<?xml version="1.0" encoding="utf-8"?>
<!-- Generator: Adobe Illustrator 18.1.1, SVG Export Plug-In . SVG Version: 6.00 Build 0)  -->
<!DOCTYPE svg PUBLIC "-//W3C//DTD SVG 1.1//EN" "http://www.w3.org/Graphics/SVG/1.1/DTD/svg11.dtd">
<svg version="1.1" id="Layer_1" xmlns="http://www.w3.org/2000/svg" xmlns:xlink="http://www.w3.org/1999/xlink" x="0px" y="0px"
	 viewBox="0 695.9 252 60.9" enable-background="new 0 695.9 252 60.9" xml:space="preserve">
<path fill="#FFFFFF" d="M131.6,711.7h-11.3L0,756.9h252L131.6,711.7z M124.6,714.6c1.1,0,2,0,3,0c0.7,0.9,1.3,1.8,1.9,2.7
	c-2.4,0-4.7,0-7.2,0C123.2,716.4,123.9,715.5,124.6,714.6z M122.6,724c2.5,0,4.7,0,7,0c1.4,2.1,3,4.1,4.4,6.2c-5.5,0-10.9,0-16.6,0
	C119.2,728.1,120.9,726,122.6,724z M119.8,740.8c4.5,0,8.5,0,12.7,0c2.7,3.7,5.3,7.4,8,11.2c-10,0-19.6,0-29.8,0
	C113.7,748.2,116.7,744.5,119.8,740.8z"/>
<path fill="#59C1E2" d="M162.2,733.3h-9.7l1.8-5c0.2-0.7,0.6-1.2,1.4-1.2h12.9c0.8,0,1.2,0.5,1.4,1.2l1.8,5H162.2z M174.4,733.4
	l-2.4-6.3c-0.5-1.2-1.5-2.2-3.4-2.2h-12.9c-1.9,0-2.9,1-3.4,2.2l-2.4,6.3c-1,0.1-2.7,1.3-2.7,3.4v8h2.4v2.6c0,3.2,4.5,3.1,4.5,0
	v-2.6h16.1v2.6c0,3.1,4.5,3.2,4.5,0v-2.6h2.4v-8C177.1,734.6,175.4,733.5,174.4,733.4z"/>
<path fill="none" stroke="#FFFFFF" stroke-width="2" stroke-miterlimit="10" d="M185.1,719"/>
<path fill="none" stroke="#FFFFFF" stroke-width="2" stroke-miterlimit="10" d="M68.9,719"/>
<g>
	<g>
		<path fill="#FFFFFF" d="M197.6,724.7c-3.8,0-6.9-3.1-6.9-6.9c0-3.8,3.1-6.9,6.9-6.9s6.9,3.1,6.9,6.9
			C204.4,721.6,201.3,724.7,197.6,724.7z M197.6,710.3c-4.2,0-7.6,3.4-7.6,7.6c0,4.2,3.4,7.6,7.6,7.6s7.6-3.4,7.6-7.6
			C205.1,713.7,201.7,710.3,197.6,710.3z"/>
		<path fill="#FFFFFF" d="M201.4,719.6h-2.1v2.1h-3.5v-2.1h-2.1v-3.5h2.1V714h3.5v2.1h2.1V719.6z M197.6,711.8
			c-3.3,0-6.1,2.7-6.1,6.1c0,3.3,2.7,6.1,6.1,6.1c3.3,0,6.1-2.7,6.1-6.1C203.6,714.5,200.9,711.8,197.6,711.8z"/>
		<rect x="196.9" y="695.9" fill="#FFFFFF" width="1.2" height="3.1"/>
		
			<rect x="202" y="702.2" transform="matrix(-0.9802 0.1981 -0.1981 -0.9802 542.1579 1351.3955)" fill="#FFFFFF" width="3.1" height="1.2"/>
		
			<rect x="201.2" y="697.7" transform="matrix(0.7075 0.7067 -0.7067 0.7075 553.1465 61.9346)" fill="#FFFFFF" width="1.2" height="3.1"/>
		
			<rect x="190.1" y="702.2" transform="matrix(0.9802 0.1981 -0.1981 0.9802 142.9894 -24.0279)" fill="#FFFFFF" width="3.1" height="1.2"/>
		<path fill="#FFFFFF" d="M197.6,706.7v-5.8h1.1c0.6,0,1.1,0.4,1.2,0.8l0.8,4.4c0,0,0,0.1,0,0.6L197.6,706.7L197.6,706.7z
			 M201.5,706.7l-1-5.6c-0.1-0.6-0.8-1.1-1.5-1.1h-2.4c-0.7,0-1.4,0.5-1.5,1.1l-1,5.6c0,0,0,0.1,0,0.6h-1.4v1.3h10.3v-1.3h-1.4
			C201.5,706.8,201.5,706.7,201.5,706.7z"/>
		
			<rect x="191.8" y="698.7" transform="matrix(0.7071 0.7071 -0.7071 0.7071 551.0797 68.0771)" fill="#FFFFFF" width="3.1" height="1.2"/>
	</g>
	<path fill="#FFFFFF" d="M190.8,709.5h-7l1.9-1.9c0.3-0.3,0.3-0.7,0-0.9c-0.3-0.3-0.7-0.3-0.9,0l-3,3c0,0-0.1,0.1-0.1,0.1
		c0,0,0,0,0,0c0,0,0,0,0,0.1c0,0,0,0,0,0.1c0,0,0,0,0,0.1c0,0,0,0.1,0,0.1c0,0,0,0,0,0c0,0,0,0,0,0c0,0,0,0.1,0,0.1c0,0,0,0,0,0.1
		c0,0,0,0,0,0.1c0,0,0,0,0,0.1c0,0,0,0,0,0c0,0,0.1,0.1,0.1,0.1l3,3c0.1,0.1,0.3,0.2,0.5,0.2c0.2,0,0.3-0.1,0.5-0.2
		c0.3-0.3,0.3-0.7,0-0.9l-1.9-1.9h7c0.4,0,0.7-0.3,0.7-0.7C191.5,709.8,191.2,709.5,190.8,709.5z"/>
</g>
<polygon fill="#FFFFFF" points="74.9,713.4 89.4,710.7 162.6,710.7 177.1,713.4 "/>
</svg>
