<?xml version="1.0" encoding="utf-8"?>
<!-- Generator: Adobe Illustrator 18.1.1, SVG Export Plug-In . SVG Version: 6.00 Build 0)  -->
<!DOCTYPE svg PUBLIC "-//W3C//DTD SVG 1.1//EN" "http://www.w3.org/Graphics/SVG/1.1/DTD/svg11.dtd">
<svg version="1.1" id="Layer_1" xmlns="http://www.w3.org/2000/svg" xmlns:xlink="http://www.w3.org/1999/xlink" x="0px" y="0px"
	 viewBox="0 0 792 612" enable-background="new 0 0 792 612" xml:space="preserve">
<path fill="none" stroke="#FFFFFF" stroke-miterlimit="10" d="M376.3,1277.8l-413.3,161.9 M828.7,1439.7L415,1277.8"/>
<path fill="#59C1E2" d="M487.4,1327.7h-24.9l4.7-12.8c0.5-1.8,1.6-3.1,3.6-3.1h33.1c2,0,3.1,1.3,3.6,3.1l4.7,12.8H487.4z
	 M518.7,1327.9l-6.1-16.2c-1.3-3.1-3.8-5.6-8.8-5.6h-33.1c-4.9,0-7.4,2.5-8.8,5.6l-6.1,16.2c-2.5,0.2-7,3.4-7,8.8v20.5h6.1v6.7
	c0,8.2,11.5,7.9,11.5,0v-6.7h41.3v6.7c0,7.9,11.5,8.2,11.5,0v-6.7h6.1v-20.5C525.7,1330.9,521.3,1328.2,518.7,1327.9z"/>
<path fill="none" stroke="#FFFFFF" stroke-width="2" stroke-miterlimit="10" d="M581.4,1300.5"/>
<path fill="none" stroke="#FFFFFF" stroke-width="2" stroke-miterlimit="10" d="M216.4,1300.5"/>
<g>
	<g>
		<path fill="#FFFFFF" d="M575.4,1452.6c-13.3,0-24.2-10.8-24.2-24.2s10.8-24.2,24.2-24.2s24.2,10.8,24.2,24.2
			C599.2,1441.8,588.4,1452.6,575.4,1452.6z M575.4,1402.2c-14.7,0-26.7,12-26.7,26.7s12,26.7,26.7,26.7c14.7,0,26.7-12,26.7-26.7
			C601.7,1414.1,589.7,1402.2,575.4,1402.2z"/>
		<path fill="#FFFFFF" d="M588.7,1434.7h-7.3v7.3h-12.2v-7.3h-7.3v-12.2h7.3v-7.3h12.2v7.3h7.3V1434.7z M575.4,1407.5
			c-11.5,0-21.3,9.5-21.3,21.3c0,11.5,9.5,21.3,21.3,21.3c11.5,0,21.3-9.5,21.3-21.3C596.5,1416.9,587,1407.5,575.4,1407.5z"/>
		<rect x="573" y="1351.9" fill="#FFFFFF" width="4.2" height="10.8"/>
		
			<rect x="590.3" y="1374" transform="matrix(-0.9802 0.1981 -0.1981 -0.9802 1452.1489 2606.8159)" fill="#FFFFFF" width="10.8" height="4.2"/>
		
			<rect x="587.9" y="1358.2" transform="matrix(0.7075 0.7067 -0.7067 0.7075 1136.2462 -18.1306)" fill="#FFFFFF" width="4.2" height="10.8"/>
		
			<rect x="549.1" y="1373.9" transform="matrix(0.9802 0.1981 -0.1981 0.9802 283.5719 -82.5735)" fill="#FFFFFF" width="10.8" height="4.2"/>
		<path fill="#FFFFFF" d="M575.4,1389.6v-20.3h3.9c2.2,0,3.9,1.4,4.2,2.7l2.7,15.4c0,0,0,0.3,0,2.2H575.4L575.4,1389.6z
			 M589.1,1389.6l-3.5-19.6c-0.3-2.2-2.7-3.9-5.2-3.9h-8.4c-2.4,0-4.9,1.7-5.2,3.9l-3.5,19.6c0,0,0,0.3,0,2.2h-5.2v4.6h36v-4.6h-4.9
			C589.1,1389.9,589.1,1389.6,589.1,1389.6z"/>
		
			<rect x="555.1" y="1361.5" transform="matrix(0.7071 0.7071 -0.7071 0.7071 1128.4023 3.0673)" fill="#FFFFFF" width="10.8" height="4.2"/>
	</g>
</g>
<path fill="none" stroke="#FFFFFF" stroke-miterlimit="10" d="M510.8,1269.2"/>
<path fill="none" stroke="#FFFFFF" stroke-miterlimit="10" d="M280.8,1269.2"/>
<line fill="none" stroke="#FFFFFF" stroke-miterlimit="10" x1="556.3" y1="1277.7" x2="235.3" y2="1277.7"/>
<g>
	<polygon fill="#FFFFFF" points="398.6,1284.2 393,1284.2 387.4,1306.1 404.2,1306.1 	"/>
	<polygon fill="#FFFFFF" points="438.2,1438.6 423.5,1381.3 368.1,1381.3 353.4,1438.6 	"/>
	<polygon fill="#FFFFFF" points="407.7,1319.8 383.9,1319.8 374,1358.2 417.6,1358.2 	"/>
</g>
<g>
	<path fill="#FFFFFF" d="M544.3,1428.2l-20.6-27.9l15.4,6.7c2.6,1,4.8,0.8,4.7-0.4c0.3-1.2-1.3-2.8-3.5-3.5l-22.9-10.9l-0.5-0.3l0,0
		c0,0,0,0-0.3,0c0,0,0,0-0.3,0c0,0,0,0-0.3,0l-0.3,0l0,0l0,0l-0.3,0c0,0,0,0-0.3,0c0,0,0,0-0.3,0c0,0,0,0-0.3,0l0,0l-0.1,0.4
		l-8.4,13.5c-0.3,0.4-0.7,1.3-0.5,2.2c0.3,0.9,0.8,1.2,1.8,2c2,1.1,4.4,0.9,5-0.4l5.9-8.6l17.4,28.3c1.1,1.7,4.1,2.6,7.2,2.3
		C544.3,1431.2,545.4,1429.6,544.3,1428.2z"/>
</g>
</svg>
