<?xml version="1.0" encoding="utf-8"?>
<!-- Generator: Adobe Illustrator 18.1.1, SVG Export Plug-In . SVG Version: 6.00 Build 0)  -->
<!DOCTYPE svg PUBLIC "-//W3C//DTD SVG 1.1//EN" "http://www.w3.org/Graphics/SVG/1.1/DTD/svg11.dtd">
<svg version="1.1" id="Layer_1" xmlns="http://www.w3.org/2000/svg" xmlns:xlink="http://www.w3.org/1999/xlink" x="0px" y="0px"
	 viewBox="-0.2 1018 612.4 148.6" enable-background="new -0.2 1018 612.4 148.6" xml:space="preserve">
<path fill="none" stroke="#FFFFFF" stroke-miterlimit="10" d="M292.2,1056.3L0,1166.1 M612,1166.1l-292.4-109.8"/>
<path fill="#59C1E2" d="M401.9,1108.8h-23.6l4.4-12.1c0.5-1.7,1.5-2.9,3.4-2.9h31.3c1.9,0,2.9,1.2,3.4,2.9l4.4,12.1H401.9z
	 M431.5,1109l-5.8-15.3c-1.2-2.9-3.6-5.3-8.3-5.3h-31.3c-4.6,0-7,2.4-8.3,5.3L372,1109c-2.4,0.2-6.6,3.2-6.6,8.3v19.4h5.8v6.3
	c0,7.8,10.9,7.5,10.9,0v-6.3h39.1v6.3c0,7.5,10.9,7.8,10.9,0v-6.3h5.8v-19.4C438.1,1111.9,434,1109.3,431.5,1109z"/>
<path fill="none" stroke="#FFFFFF" stroke-width="2" stroke-miterlimit="10" d="M449.5,1074.1"/>
<path fill="none" stroke="#FFFFFF" stroke-width="2" stroke-miterlimit="10" d="M167.3,1074.1"/>
<g>
	<g>
		<path fill="#FFFFFF" d="M479.9,1087.9c-9.2,0-16.8-7.5-16.8-16.8s7.5-16.8,16.8-16.8s16.8,7.5,16.8,16.8
			C496.4,1080.4,488.9,1087.9,479.9,1087.9z M479.9,1052.9c-10.2,0-18.5,8.3-18.5,18.5s8.3,18.5,18.5,18.5
			c10.2,0,18.5-8.3,18.5-18.5C498.1,1061.2,489.8,1052.9,479.9,1052.9z"/>
		<path fill="#FFFFFF" d="M489.1,1075.5H484v5.1h-8.5v-5.1h-5.1v-8.5h5.1v-5.1h8.5v5.1h5.1V1075.5z M479.9,1056.6
			c-8,0-14.8,6.6-14.8,14.8c0,8,6.6,14.8,14.8,14.8c8,0,14.8-6.6,14.8-14.8C494.5,1063.1,487.9,1056.6,479.9,1056.6z"/>
		<rect x="478.2" y="1018" fill="#FFFFFF" width="2.9" height="7.5"/>
		
			<rect x="490.2" y="1033.3" transform="matrix(0.9802 -0.1981 0.1981 0.9802 -195.1984 118.3674)" fill="#FFFFFF" width="7.5" height="2.9"/>
		
			<rect x="488.5" y="1022.4" transform="matrix(-0.7075 -0.7067 0.7067 -0.7075 111.4896 2098.3928)" fill="#FFFFFF" width="2.9" height="7.5"/>
		
			<rect x="461.6" y="1033.3" transform="matrix(-0.9802 -0.1981 0.1981 -0.9802 716.5209 2141.2041)" fill="#FFFFFF" width="7.5" height="2.9"/>
		<path fill="#FFFFFF" d="M479.9,1044.2v-14.1h2.7c1.5,0,2.7,1,2.9,1.9l1.9,10.7c0,0,0,0.2,0,1.5H479.9L479.9,1044.2z M489.4,1044.2
			l-2.4-13.6c-0.2-1.5-1.9-2.7-3.6-2.7h-5.8c-1.7,0-3.4,1.2-3.6,2.7l-2.4,13.6c0,0,0,0.2,0,1.5H468v3.2h25v-3.2h-3.4
			C489.4,1044.4,489.4,1044.2,489.4,1044.2z"/>
		
			<rect x="465.7" y="1024.7" transform="matrix(-0.7071 -0.7071 0.7071 -0.7071 75.8959 2083.7053)" fill="#FFFFFF" width="7.5" height="2.9"/>
	</g>
	<path fill="#FFFFFF" d="M463.4,1051h-17l4.6-4.6c0.7-0.7,0.7-1.7,0-2.2c-0.7-0.7-1.7-0.7-2.2,0l-7.3,7.3l-0.2,0.2l0,0
		c0,0,0,0,0,0.2c0,0,0,0,0,0.2c0,0,0,0,0,0.2v0.2l0,0l0,0v0.2c0,0,0,0,0,0.2c0,0,0,0,0,0.2c0,0,0,0,0,0.2l0,0l0.2,0.2l7.3,7.3
		c0.2,0.2,0.7,0.5,1.2,0.5c0.5,0,0.7-0.2,1.2-0.5c0.7-0.7,0.7-1.7,0-2.2l-4.6-4.6h17c1,0,1.7-0.7,1.7-1.7
		C465.1,1051.7,464.3,1051,463.4,1051z"/>
</g>
<path fill="none" stroke="#FFFFFF" stroke-miterlimit="10" d="M394.9,1049.9"/>
<path fill="none" stroke="#FFFFFF" stroke-miterlimit="10" d="M217.1,1049.9"/>
<line fill="none" stroke="#FFFFFF" stroke-miterlimit="10" x1="430.1" y1="1056.5" x2="181.9" y2="1056.5"/>
<g>
	<path fill="#FFFFFF" d="M291.9,1133.1c10.9,0,20.6,0,30.8,0c6.6,9,12.9,18,19.4,27.2c-24.3,0-47.6,0-72.4,0
		C277.1,1151.1,284.4,1142.1,291.9,1133.1z"/>
	<path fill="#FFFFFF" d="M298.5,1092.6c6.1,0,11.4,0,17,0c3.4,5.1,7.3,10,10.7,15.1c-13.4,0-26.5,0-40.3,0
		C290.2,1102.6,294.3,1097.5,298.5,1092.6z"/>
	<path fill="#FFFFFF" d="M302.8,1069.8c2.7,0,4.9,0,7.3,0c1.7,2.2,3.2,4.4,4.6,6.6c-5.8,0-11.4,0-17.5,0
		C299.4,1074.2,301.1,1072,302.8,1069.8z"/>
</g>
</svg>
