<?xml version="1.0" encoding="utf-8"?>
<!-- Generator: Adobe Illustrator 18.1.1, SVG Export Plug-In . SVG Version: 6.00 Build 0)  -->
<!DOCTYPE svg PUBLIC "-//W3C//DTD SVG 1.1 Basic//EN" "http://www.w3.org/Graphics/SVG/1.1/DTD/svg11-basic.dtd">
<svg version="1.1" baseProfile="basic" id="Layer_1"
	 xmlns="http://www.w3.org/2000/svg" xmlns:xlink="http://www.w3.org/1999/xlink" x="0px" y="0px" viewBox="183.8 0 428.1 792"
	 xml:space="preserve">
<g id="iyBysF.tif">
	<g>
		<path fill="#FFFFFF" d="M183.9,330.7c29.4,0,58.6,0,88.6,0c0-110.8,0-220.6,0-330.7C386.2,0,498.8,0,612,0c0,264,0,527.7,0,792
			c-92.5,0-184.8,0-278.2,0c0-30,0-59.8,0-90.7c-50.4,0-99.9,0-149.9,0C183.9,577.7,183.9,455,183.9,330.7z M448.8,14.3
			c-54.4,0-107.8,0-161.6,0c0,60.1,0,119.7,0,180.2c56.3,0,112.1,0,168.2,0c0,5.2,0,9.2,0,14.6c-56.5,0-112.2,0-169,0
			c0,46,0,90.8,0,136.3c-9.7,0-18.4,0-27.2,0c0,44.1,0,87.7,0,131.2c24.7,0,48.8,0,73.7,0c0-8.1,0-15.7,0-23.1c5.2,0,9.4,0,13.6,0
			c0,12.9,0,24.9,0,38.3c-29.6,0-58.6,0-88.3,0c0,16.7,0,32.4,0,49c-20.5,0-40.2,0-59.8,0c0,49.2,0,97.4,0,145.6
			c44.8,0,89.1,0,134.2,0c0-49.9,0-99.2,0-148.7c5,0,9.2,0,14.6,0c0,80.4,0,160.6,0,240.6c83.9,0,166.9,0,250.1,0
			c0-73,0-145.5,0-218.9c-22.4,0-44.4,0-66.6,0c0-5.2,0-9.2,0-14.3c22.6,0,44.6,0,66.4,0c0-47.6,0-94.4,0-141.4
			c-64.3,0-128.1,0-192,0c0,47.1,0,93.5,0,141.1c25.2,0,50,0,75,0c0,5,0,9,0,13.7c-3.1,0-5.7,0-8.4,0c-22.1,0-44.3,0.1-66.3-0.1
			c-6-0.1-9.7,1.3-12.9,6.9c-8.4,14.4-21.2,22-38.7,20.9c1.8-2.2,4.1-4.1,6.6-4.3c18.6-2.8,30.5-16.4,30.5-35c0-49.2,0-98.2,0-147.4
			c0-3.1,0-6.3,0-9.9c70.1,0,138.9,0,207.8,0c0-78.8,0-156.8,0-235.6c-29.3,0-57.7,0-86.5,0c0-4.8,0-9,0-13.9c29.3,0,57.7,0,86.7,0
			c0-42.2,0-83.5,0-125.3c-27.9,0-55.2,0-82.7,0c0,27.5,0,54.4,0,81.1c20.3,4.8,34.1,20,33.4,39.5c-5.7-9.7-9-19.2-15.4-24.9
			c-6.7-6.2-16.5-8.7-25.1-12.9c-0.6,0.7-1.3,1.4-1.8,2c0-2.9,0-5.9,0-8.8c0-23.3,0.1-46.4-0.1-69.6c0-2.2-2.2-6.4-3.5-6.4
			c-13-0.4-26.1-0.3-39.9-0.3c0,46.7,0,92.3,0,138.7c-20.7,0.7-31,12.6-36.3,30.5c-0.4,1.4-2.1,2.2-3.2,3.4
			c-0.6-1.8-1.8-3.8-1.4-5.3c3.4-11.9,8.8-22.6,20.5-28.2c4.9-2.4,5.7-5.5,5.6-10.2c-0.1-23.5-0.1-46.9-0.1-70.5
			C448.8,53.2,448.8,34.2,448.8,14.3z M198,379.5c15.7,0,30.7,0,46,0c0-5.5,0-10.4,0-15.6c-15.6,0-30.7,0-46,0
			C198,369.2,198,374,198,379.5z M198,400.5c16,0,31,0,46,0c0-5.5,0-10.2,0-15.3c-15.6,0-30.7,0-46,0C198,390.5,198,395.3,198,400.5
			z M244.1,407.5c-15.6,0-30.5,0-45.7,0c0,5.6,0,10.6,0,15.8c15.4,0,30.3,0,45.7,0C244.1,418,244.1,413.2,244.1,407.5z M198.4,427.9
			c0,5.7,0,10.8,0,15.7c15.7,0,30.7,0,45.7,0c0-5.6,0-10.4,0-15.7C228.6,427.9,213.8,427.9,198.4,427.9z M198,465.9c16,0,31,0,46,0
			c0-5.5,0-10.2,0-15.3c-15.6,0-30.7,0-46,0C198,455.8,198,460.7,198,465.9z M198,488.1c15.7,0,30.5,0,45.8,0c0-5.5,0-10.5,0-15.7
			c-15.6,0-30.7,0-45.8,0C198,477.7,198,482.6,198,488.1z M244.1,493.5c-15.6,0-30.5,0-45.7,0c0,5.6,0,10.6,0,15.6
			c15.7,0,30.7,0,45.7,0C244.1,503.6,244.1,498.7,244.1,493.5z M243.8,345.7c-15.6,0-30.5,0-45.7,0c0,4.2,0,8,0,12.5
			c12.1,0,23.7,0,35.3,0C245.1,358.2,245.1,358.2,243.8,345.7z M243.8,525.1c0-3.4,0-6.2,0-9c-15.7,0-30.7,0-46.1,0
			c0.1,3.4,0.3,5.9,0.4,9C213.4,525.1,228.3,525.1,243.8,525.1z"/>
		<path d="M448.8,14.3c0,20,0,39.1,0,58.2c0,23.5-0.1,46.9,0.1,70.5c0,4.8-0.7,7.8-5.6,10.2c-11.6,5.6-17.1,16.3-20.5,28.2
			c-0.4,1.5,1,3.5,1.4,5.3c1.1-1.1,2.8-2.1,3.2-3.4c5.2-17.8,15.6-29.8,36.3-30.5c0-46.4,0-92.1,0-138.7c13.9,0,26.9-0.1,39.9,0.3
			c1.3,0,3.5,4.2,3.5,6.4c0.3,23.3,0.1,46.4,0.1,69.6c0,2.9,0,5.9,0,8.8c0.6-0.7,1.3-1.4,1.8-2c8.5,4.2,18.4,6.7,25.1,12.9
			c6.4,5.9,9.7,15.3,15.4,24.9c0.7-19.5-13-34.8-33.4-39.5c0-26.8,0-53.7,0-81.1c27.5,0,54.9,0,82.7,0c0,41.8,0,83.1,0,125.3
			c-28.9,0-57.5,0-86.7,0c0,4.9,0,9.1,0,13.9c28.7,0,57.3,0,86.5,0c0,78.8,0,156.8,0,235.6c-68.9,0-137.6,0-207.8,0
			c0,3.8,0,6.9,0,9.9c0,49.2,0,98.2,0,147.4c0,18.6-11.9,32.1-30.5,35c-2.5,0.4-4.9,2.1-6.6,4.3c17.4,1.1,30.3-6.4,38.7-20.9
			c3.2-5.6,7-6.9,12.9-6.9c22.1,0.3,44.3,0.1,66.3,0.1c2.7,0,5.3,0,8.4,0c0-4.8,0-8.7,0-13.7c-24.9,0-49.6,0-75,0
			c0-47.5,0-94,0-141.1c64,0,127.8,0,192,0c0,46.9,0,93.7,0,141.4c-21.9,0-43.9,0-66.4,0c0,5,0,9.1,0,14.3c22.1,0,44.1,0,66.6,0
			c0,73.4,0,145.9,0,218.9c-83.4,0-166.2,0-250.1,0c0-80,0-160,0-240.6c-5.3,0-9.5,0-14.6,0c0,49.5,0,98.8,0,148.7
			c-45.1,0-89.4,0-134.2,0c0-48.3,0-96.5,0-145.6c19.5,0,39.2,0,59.8,0c0-16.7,0-32.4,0-49c29.7,0,58.7,0,88.3,0
			c0-13.2,0-25.4,0-38.3c-4.2,0-8.4,0-13.6,0c0,7.6,0,15,0,23.1c-24.9,0-49,0-73.7,0c0-43.4,0-86.9,0-131.2c9,0,17.5,0,27.2,0
			c0-45.5,0-90.4,0-136.3c56.8,0,112.5,0,169,0c0-5.2,0-9.4,0-14.6c-55.9,0-111.7,0-168.2,0c0-60.5,0-120.1,0-180.2
			C341,14.3,394.2,14.3,448.8,14.3z"/>
		<path d="M198,379.5c0-5.5,0-10.2,0-15.6c15.3,0,30.4,0,46,0c0,5.2,0,10.2,0,15.6C228.6,379.5,213.8,379.5,198,379.5z"/>
		<path d="M198,400.5c0-5.2,0-9.9,0-15.3c15.3,0,30.4,0,46,0c0,5,0,9.8,0,15.3C229.1,400.5,214,400.5,198,400.5z"/>
		<path d="M244.1,407.5c0,5.7,0,10.5,0,15.8c-15.4,0-30.3,0-45.7,0c0-5.2,0-10.2,0-15.8C213.4,407.5,228.4,407.5,244.1,407.5z"/>
		<path d="M198.4,427.9c15.4,0,30.3,0,45.7,0c0,5.3,0,10.1,0,15.7c-15,0-30,0-45.7,0C198.4,438.7,198.4,433.7,198.4,427.9z"/>
		<path d="M198,465.9c0-5.2,0-9.9,0-15.3c15.4,0,30.4,0,46,0c0,5,0,9.8,0,15.3C229.1,465.9,213.9,465.9,198,465.9z"/>
		<path d="M198,488.1c0-5.5,0-10.4,0-15.7c15.3,0,30.3,0,45.8,0c0,5.3,0,10.2,0,15.7C228.6,488.1,213.8,488.1,198,488.1z"/>
		<path d="M244.1,493.5c0,5.2,0,9.9,0,15.6c-15,0-30,0-45.7,0c0-4.9,0-9.9,0-15.6C213.4,493.5,228.4,493.5,244.1,493.5z"/>
		<path d="M243.8,345.7c1.3,12.5,1.3,12.5-10.4,12.5c-11.6,0-23.3,0-35.3,0c0-4.6,0-8.3,0-12.5C213.4,345.7,228.3,345.7,243.8,345.7
			z"/>
		<path d="M243.8,525.1c-15.6,0-30.4,0-45.8,0c-0.1-2.9-0.3-5.6-0.4-9c15.4,0,30.4,0,46.1,0C243.8,518.9,243.8,521.7,243.8,525.1z"
			/>
	</g>
</g>
<g id="gdUtxf.tif">
	<g>
		<path fill="#58C1E2" d="M421.2,263.2c-0.1,8.2-3,15.7-8.9,22c-0.1,0.1-0.2,0.3-0.4,0.4c-0.7,0.7-1.5,0.8-2.1,0.1
			c-0.6-0.6-0.5-1.4,0.2-2.1c0.7-0.8,1.4-1.6,2.1-2.4c3.6-4.5,5.7-9.7,6.2-15.5c0.8-8.6-1.8-16.1-7.4-22.5c-0.3-0.3-0.6-0.6-0.8-0.9
			c-0.8-0.8-0.8-1.5-0.2-2.1c0.6-0.6,1.4-0.6,2.2,0.3c1.4,1.7,3,3.4,4.2,5.3C419.5,251,421.1,256.7,421.2,263.2z"/>
		<path fill="#58C1E2" d="M317.4,263c0.1-8.4,2.9-15.8,8.7-22c0.2-0.2,0.4-0.4,0.5-0.6c0.8-0.8,1.5-0.8,2.1-0.2
			c0.6,0.6,0.5,1.3-0.2,2.1c-1.3,1.5-2.7,3.1-3.8,4.7c-3.2,4.9-4.8,10.4-4.7,16.3c0.1,7.9,3,14.6,8.4,20.3c0.4,0.4,0.6,1,0.6,1.4
			c0,0.4-0.5,0.9-0.9,1c-0.4,0.1-1.1-0.1-1.4-0.5c-1.5-1.8-3.2-3.6-4.5-5.7c-2.8-4.4-4.4-9.3-4.8-14.5c0-0.3-0.1-0.6-0.1-0.9
			C317.3,264,317.4,263.5,317.4,263z"/>
		<path fill="#58C1E2" d="M325.4,263c0.1-6.6,2.4-12.2,6.9-16.9c0.5-0.5,0.9-0.8,1.5-0.5c0.4,0.2,0.8,0.6,0.9,1
			c0.1,0.4-0.1,0.9-0.5,1.3c-2.1,2.2-3.8,4.7-4.8,7.6c-2.8,8.1-1.4,15.5,4.2,22c0.2,0.3,0.5,0.5,0.7,0.8c0.5,0.6,0.5,1.4,0,1.8
			c-0.5,0.5-1.4,0.5-1.9,0c-1.8-1.8-3.4-4-4.5-6.3C326.2,270.3,325.4,266.7,325.4,263z"/>
		<path fill="#58C1E2" d="M413.1,263.3c-0.1,6.1-2.3,11.7-6.8,16.4c-0.4,0.4-0.8,0.9-1.4,0.6c-0.4-0.1-0.8-0.5-1.1-0.8
			c-0.3-0.5,0-1,0.3-1.4c1.2-1.5,2.5-2.9,3.4-4.5c4.7-8.1,3.5-18.5-3-25.3c-0.1-0.1-0.3-0.3-0.5-0.5c-0.6-0.7-0.6-1.4,0-2
			s1.4-0.5,2,0.2c1.2,1.4,2.4,2.8,3.4,4.3C411.9,254.2,413,258.4,413.1,263.3z"/>
		<path fill="#58C1E2" d="M333.5,262.9c0-4.3,1.6-8.1,4.6-11.2c0.6-0.6,1.5-0.7,2-0.1c0.5,0.5,0.5,1.4-0.1,2
			c-2.4,2.5-3.7,5.4-3.8,8.8c-0.1,3.6,1,6.8,3.5,9.6c0.1,0.1,0.3,0.3,0.5,0.5c0.5,0.6,0.5,1.5,0,2c-0.5,0.5-1.4,0.5-1.9-0.1
			c-1.4-1.4-2.4-3-3.2-4.8C333.9,267.4,333.5,265.2,333.5,262.9z"/>
		<path fill="#58C1E2" d="M405.1,262.9c-0.2,4.7-1.7,8.2-4.5,11.2c-0.7,0.7-1.5,0.8-2.1,0.3c-0.6-0.5-0.6-1.4,0.1-2
			c2.4-2.5,3.7-5.5,3.8-9c0.1-3.6-1.1-6.8-3.5-9.4c-0.1-0.2-0.4-0.4-0.5-0.5c-0.5-0.6-0.5-1.4,0-1.9s1.4-0.5,1.8,0
			c0.7,0.7,1.4,1.5,1.9,2.3C404.2,256.8,405.1,260.1,405.1,262.9z"/>
	</g>
</g>
<g id="HNlAxV.tif">
	<g>
		<path fill="#FFFFFF" d="M376,279c0,4.5,0,9,0,13.5c0,1.7-0.9,2.9-2.5,3.4c-0.5,0.1-0.9,0.1-1.3-0.2c-7.4-5.4-14.8-10.9-22.2-16.3
			c-0.7-0.5-1.5-1-2.3-1.5c-0.9-0.5-1.3-1.4-1.3-2.4c0-3.3,0-6.7,0-10c0-5.5,0-11,0-16.6c0-0.9,0.1-1.8,0.7-2.5
			c0.5-0.7,1.2-1.1,2.1-1.3c0.4-0.1,0.7,0,1,0.2c7.3,5.4,14.7,10.8,22.1,16.2c1,0.8,2.1,1.6,3.1,2.5c0.5,0.4,0.7,0.9,0.7,1.6
			C376,270,376,274.5,376,279z"/>
		<path fill="#FFFFFF" d="M378.7,280.8c0-0.3,0-0.5,0-0.7c0-5.2,0-10.4,0-15.5c0-0.8-0.2-1.5-0.9-2c-0.7-0.6-1.5-1.2-2.3-1.8
			c-0.2-0.1-0.4-0.2-0.5-0.5c0.2,0,0.4,0,0.5,0c2.8,0,5.7,0,8.6,0c1,0,1.6-0.7,1.6-1.6c0-0.6-0.5-1.2-1.1-1.4
			c-0.3-0.1-0.6-0.1-0.9-0.1c-4.1,0-8.2,0-12.4,0c-0.3,0-0.7-0.1-0.9-0.3c-1.4-1.1-2.9-2.2-4.5-3.3c0.3,0,0.5,0,0.7,0
			c5.7,0,11.4,0,17.1,0c0.3,0,0.5,0,0.8,0c0.8-0.2,1.2-0.8,1.2-1.6c0-0.7-0.6-1.3-1.4-1.4c-0.2,0-0.4,0-0.6,0c-7.1,0-14.2,0-21.3,0
			c-0.3,0-0.5,0-0.7-0.2c-2.3-1.7-4.6-3.5-7-5.2c0,0-0.1,0-0.2-0.1c0,0,0-0.1,0-0.1c0.2,0,0.3,0,0.5,0c11.2,0,22.4,0,33.6,0
			c2.1,0,3.5,1.4,3.5,3.5c0,9.7,0,19.4,0,29.1c0,1.8-1.4,3.3-3.3,3.3c-3.2,0-6.4,0-9.6,0C379,280.8,378.9,280.8,378.7,280.8z"/>
	</g>
</g>
</svg>
