<?xml version="1.0" encoding="utf-8"?>
<!-- Generator: Adobe Illustrator 18.1.0, SVG Export Plug-In . SVG Version: 6.00 Build 0)  -->
<!DOCTYPE svg PUBLIC "-//W3C//DTD SVG 1.1//EN" "http://www.w3.org/Graphics/SVG/1.1/DTD/svg11.dtd">
<svg version="1.1" id="Layer_1" xmlns="http://www.w3.org/2000/svg" xmlns:xlink="http://www.w3.org/1999/xlink" x="0px" y="0px"
	 viewBox="638.8 -27.1 578.5 792" enable-background="new 638.8 -27.1 578.5 792" xml:space="preserve">
<g id="sFb5v6.tif">
	<g>
		<path fill="#FFFFFF" d="M1217.3,265c-6.5,118.4-62.3,207.2-172.3,260.3c-5.1,2.5-8.1,4.6-9,11.1c-5.5,42.9-12.7,85.7-25.5,127.1
			c-7.7,24.6-16.9,48.8-31.9,70c-9.5,13.4-20.8,25-37.1,29.4c-24.6,6.9-43.5-3.7-58.8-21.8c-17.8-20.9-27.5-46.1-35.9-71.8
			c-14.3-43.6-21.6-88.5-27.6-133.8c-0.7-5.1-2.6-7.4-7-9.5c-85.5-39.4-142.2-104.2-164.4-196.1c-23.9-100.1,0.4-189.2,69.7-265.2
			c43.3-47.7,97.9-77.3,161.4-87.5c93.1-15,175.5,9.3,245,73c51.2,46.8,80.6,105.4,90.1,174.2C1215.7,237,1216,249.7,1217.3,265z
			 M1038.6,512.8c98-40.3,185.9-156.6,160-300.8C1175.4,83.9,1063.4-13.6,927.4-13.6c-139.6,0-258.2,105.1-273.5,246.2
			c-13.7,127.1,62.7,238.5,163,280c-5.6-43.3-9-85.9,22.5-121.8c-105.8-61.6-119.3-195.7-49.3-277.4
			c65.5-76.6,184.1-84.7,258.7-16.7c37.1,33.6,58.1,75.9,59.8,125.8c2.6,73.7-30.4,129.2-92.8,168.3
			C1047.9,427.3,1044.2,469.7,1038.6,512.8z M759.7,241.6c1.8,52.8,29,101.4,82.7,134.8c4.6,3,7.7,3,12.1-0.7
			c43.3-35.7,103.1-35.7,146.1-0.2c4.4,3.5,7.4,3.7,12.1,1.1c56.8-32.6,90.6-100.8,81.8-166c-12-88.4-87.8-151-176.9-146.3
			C829.7,68.9,759.5,143,759.7,241.6z"/>
		<path d="M1038.6,512.8c5.6-43.1,9.3-85.5-22.7-121.8c62.5-39.1,95.4-94.5,92.8-168.3c-1.8-50-22.9-92-59.8-125.8
			C974,29,855.6,37.1,790.1,113.6c-70,81.7-56.5,215.8,49.3,277.4c-31.5,35.7-28.2,78.5-22.5,121.8c-100.3-41.7-176.7-153.1-163-280
			C669.2,91.4,787.8-13.6,927.4-13.6c136,0,248,97.5,271,225.6C1224.5,356,1136.6,472.3,1038.6,512.8z"/>
		<path d="M759.7,241.6c-0.2-98.6,69.9-172.7,158-177.2c89.1-4.8,164.9,57.9,176.9,146.3c8.8,65.1-25,133.4-81.8,166
			c-4.9,2.8-7.7,2.6-12.1-1.1c-42.9-35.6-102.8-35.6-146.1,0.2c-4.4,3.7-7.6,3.5-12.1,0.7C788.9,343,761.6,294.4,759.7,241.6z
			 M927.6,324.8c51.6,0,93.3-41.7,93.3-93.3c-0.2-51-41.9-92.8-92.9-92.9c-51.2-0.2-93.3,42.1-93.3,93.5
			C834.6,283.1,876.3,324.8,927.6,324.8z"/>
		<path fill="#FFFFFF" d="M927.6,324.8c-51.2,0-92.9-41.5-92.9-92.8c0-51.4,42.1-93.6,93.3-93.5c51,0.2,92.9,41.9,92.9,92.9
			C1021,283.1,979.3,324.8,927.6,324.8z"/>
	</g>
</g>
</svg>
