<?xml version="1.0" encoding="utf-8"?>
<!-- Generator: Adobe Illustrator 18.1.0, SVG Export Plug-In . SVG Version: 6.00 Build 0)  -->
<!DOCTYPE svg PUBLIC "-//W3C//DTD SVG 1.1//EN" "http://www.w3.org/Graphics/SVG/1.1/DTD/svg11.dtd">
<svg version="1.1" id="Layer_1" xmlns="http://www.w3.org/2000/svg" xmlns:xlink="http://www.w3.org/1999/xlink" x="0px" y="0px"
	 viewBox="0 0 257.5 574.7" enable-background="new 0 0 257.5 574.7" xml:space="preserve">
<path fill="#FFFFFF" d="M256.3,314.5c0,65.7,0,131.4-0.1,197c0,6-1,12.1-1.8,18c-2.7,19.1-12.9,25.4-31.7,31.4
	c-35.6,11.4-57,15.2-94.3,13.2c-25.2-1.3-64.9-1.9-89-9.8C13.8,556,3.8,553,2.4,519.8C0.3,467.9,1.3,416,1.1,364
	c-0.1-14.9,0-29.8,0-44.7c0-63.6-0.1-127.2,0-190.8c0.1-28.1-4.3-55.3,3.6-82.2C12.1,21.4,39.3,8.7,63.9,5.1
	c44.9-6.7,89.9-7.2,134.7,1.1c22.3,4.1,47,16.9,53.8,39c8.3,27,4,54.4,3.9,82.8C256.3,190.2,256.3,252.3,256.3,314.5z M54.6,212.5
	c49.5-14.1,98.6-14.1,148,0c19.1-31.3,19.2-25.1,29.1-58.8c-13.4-4.5-26-10-39.2-13.1c-35-8.3-70.6-8.6-106.1-4.1
	c-19.2,2.4-37.9,6.9-55.3,15.8c-3.2,1.7-5.2,3.2-3.9,7.4C36.3,190.1,35.7,184.2,54.6,212.5z M223.4,540c-6.7-8.5-12.8-6-18.7-13.8
	c-2.4-3.2-5-3.9-9-3c-44.9,10.1-89.8,10.2-134.7,0.1c-2-0.4-5.2-0.4-6.3,0.8C47.6,532.3,41,531,33.8,540
	C97.3,558.2,159.7,558,223.4,540z M16.6,370.6c0,35.9,0,70.6,0,106.5c7.9-5.4,15-10.1,21.9-15.1c1.4-1,2.2-3.5,2.2-5.3
	c0.1-24.9,0.1-49.8,0-74.6c0-1.7-1.2-4.5-2.4-4.9C31.3,374.6,24.2,372.8,16.6,370.6z M240.8,477.1c0-36.2,0-71,0-106.5
	c-6.7,1.9-12.8,3.9-19.1,5.4c-3.8,0.9-5.2,2.7-5.2,6.7c0.2,24.4,0,48.8,0.2,73.2c0,2.1,0.7,5,2.1,6.1
	C225.6,467,232.7,471.6,240.8,477.1z M40.8,342.1c0-15.4,0.1-29.7-0.1-44.1c0-2.5-0.5-5.1-1.3-7.5c-6.7-19.5-13.6-39-20.4-58.5
	c-0.5-1.5-1.3-3-2-4.5c-0.9,33.9-1,67.4-0.8,101c0,1.7,1.2,4.3,2.5,4.9C25.6,336.5,32.7,339,40.8,342.1z M218.2,341.4
	c5-1.9,10.1-4.2,15.4-5.7c5.8-1.6,7.7-4.5,7.7-10.8c-0.4-30.3-0.2-60.6-0.2-90.8c0-2.2,0-4.3,0-6.5
	C227.5,264.4,208.8,299.9,218.2,341.4z"/>
<g>
	<path d="M138.3,329.4v32.7h31.3v14.1h-31.3v33h-14.7v-33H92.2v-14.1h31.3v-32.7H138.3z"/>
</g>
<polygon fill="#FFFFFF" points="8,200.5 9.3,514.5 50,517.2 75.3,461.2 51.3,231.2 "/>
<polygon fill="#FFFFFF" points="249.3,196.5 248,510.5 207.3,513.2 182,457.2 206,227.2 "/>
<rect x="60" y="245.8" width="65.3" height="21.3"/>
<rect x="136.7" y="245.8" width="65.3" height="21.3"/>
</svg>
