<?xml version="1.0" encoding="utf-8"?>
<!-- Generator: Adobe Illustrator 18.1.0, SVG Export Plug-In . SVG Version: 6.00 Build 0)  -->
<!DOCTYPE svg PUBLIC "-//W3C//DTD SVG 1.1//EN" "http://www.w3.org/Graphics/SVG/1.1/DTD/svg11.dtd">
<svg version="1.1" id="Layer_1" xmlns="http://www.w3.org/2000/svg" xmlns:xlink="http://www.w3.org/1999/xlink" x="0px" y="0px"
	 viewBox="0 0 449.5 449.3" enable-background="new 0 0 449.5 449.3" xml:space="preserve">
<g id="e7crH6.tif">
	<g>
		<path fill="#FFFFFF" d="M0,449.3c0-120,0-239.5,0-359.4c119.8,0,239.4,0,359.4,0c0,119.6,0,239.3,0,359.4
			C239.8,449.3,120.1,449.3,0,449.3z M260.8,160.6c-1.1-0.2-1.7-0.4-2.4-0.4c-19.2-1.3-38.3-0.1-57.3,2.7
			c-19.3,2.9-38,7.9-55.7,16.5c-4.4,2.1-6.3,4.5-6.3,9.8c0.3,40,0.2,80,0.2,120c0,1.9,0,3.9,0,5.4c-0.9,0.4-1.1,0.5-1.2,0.5
			c-1.3-0.3-2.6-0.7-3.8-1.1c-17.3-4.2-32.8-1.3-45.3,12.1c-10,10.7-8.3,25.2,3.5,33.9c9.2,6.7,19.6,8.1,30.4,6.5
			c15.9-2.4,30.6-15.1,30.1-34.5c-0.9-31-0.1-62-0.3-93c0-4.3,1.3-6.2,5.4-7c6.7-1.3,13.2-3.5,19.9-4.8c21.4-3.9,42.8-7.4,64.6-11.2
			c0,26.8,0,52.3,0,78c-1.2-0.4-2.3-0.8-3.4-1.1c-15.8-3.9-30.2-1.6-42,10.1c-11.9,11.9-9.3,29.4,5.3,37.6
			c10.1,5.7,20.8,6.6,31.9,3.6c17.2-4.7,26.4-16.8,26.4-34.6c0-47.7,0-95.3,0-143C260.8,164.6,260.8,162.6,260.8,160.6z"/>
		<path fill="#FFFFFF" d="M449.5,0c0,119.9,0,239.5,0,359.4c-14.8,0-29.4,0-44.6,0c0-104.7,0-209.4,0-314.7c-105.3,0-210,0-314.9,0
			C90,29.6,90,15,90,0C209.7,0,329.4,0,449.5,0z"/>
		<path d="M260.8,160.6c0,2,0,4,0,5.9c0,47.7,0,95.3,0,143c0,17.8-9.2,29.9-26.4,34.6c-11.1,3-21.8,2.1-31.9-3.6
			c-14.6-8.2-17.2-25.7-5.3-37.6c11.8-11.8,26.2-14.1,42-10.1c1.1,0.3,2.1,0.7,3.4,1.1c0-25.8,0-51.2,0-78
			c-21.8,3.8-43.2,7.3-64.6,11.2c-6.7,1.2-13.2,3.4-19.9,4.8c-4.2,0.8-5.5,2.7-5.4,7c0.2,31-0.5,62,0.3,93
			c0.5,19.5-14.1,32.1-30.1,34.5c-10.8,1.6-21.3,0.3-30.4-6.5c-11.8-8.7-13.5-23.2-3.5-33.9c12.5-13.3,28-16.3,45.3-12.1
			c1.3,0.3,2.6,0.7,3.8,1.1c0.1,0,0.3-0.1,1.2-0.5c0-1.6,0-3.5,0-5.4c0-40,0.1-80-0.2-120c0-5.3,1.9-7.7,6.3-9.8
			c17.7-8.5,36.4-13.6,55.7-16.5c19-2.9,38.1-4,57.3-2.7C259.1,160.2,259.7,160.4,260.8,160.6z"/>
	</g>
</g>
</svg>
