<?xml version="1.0" encoding="utf-8"?>
<!-- Generator: Adobe Illustrator 15.0.0, SVG Export Plug-In . SVG Version: 6.00 Build 0)  -->
<!DOCTYPE svg PUBLIC "-//W3C//DTD SVG 1.1//EN" "http://www.w3.org/Graphics/SVG/1.1/DTD/svg11.dtd">
<svg version="1.1" id="Layer_1" xmlns="http://www.w3.org/2000/svg" xmlns:xlink="http://www.w3.org/1999/xlink" x="0px" y="0px"
	 width="595.279px" height="841.891px" viewBox="0 0 595.279 841.891" enable-background="new 0 0 595.279 841.891"
	 xml:space="preserve">
<circle fill="none" stroke="#FFFFFF" stroke-width="13" stroke-miterlimit="10" cx="297.64" cy="420.945" r="278.894"/>
<path fill="#FFFFFF" stroke="#1A171B" stroke-width="0.5" stroke-linecap="round" stroke-linejoin="round" d="M234.048,475.828
	c-6.209-0.181-16.735,0.841-22.29,3.509c-8.058,3.881-15.565,20.627-6.226,30.9c11.076,12.182,41.123,1.524,45.233-11.229
	c2.64-8.202-1.436-17.755-5.899-20.722C242.552,476.733,238.339,475.948,234.048,475.828z"/>
<path fill="#FFFFFF" stroke="#1A171B" stroke-width="0.5" stroke-linecap="round" stroke-linejoin="round" d="M227.821,462.479
	c-3.173,2.921-6.957,5.195-11.472,6.675c0.017,1.617,0.929,2.281,1.307,3.506c4.842-0.438,8.96-1.644,14.095-1.754
	C230.693,467.83,228.982,465.446,227.821,462.479z"/>
<path fill="#FFFFFF" stroke="#1A171B" stroke-width="0.5" stroke-linecap="round" stroke-linejoin="round" d="M211.758,429.467
	c-10.096-0.995-20.879-0.146-26.22,5.972c-6.123,7.014-7.524,20.511-0.653,27.396c10.233,10.256,36.058,2.96,41.295-7.021
	c3.474-6.612,1.978-17.415-1.634-21.423C221.733,431.265,217.914,430.079,211.758,429.467z"/>
<path fill="#FFFFFF" stroke="#1A171B" stroke-width="0.5" stroke-linecap="round" stroke-linejoin="round" d="M207.501,419.633
	c-3.062,1.762-5.744,3.926-9.511,4.921c2.873,0.384,7.628-0.255,11.48,0C209.074,422.627,207.888,421.559,207.501,419.633z"/>
<path fill="#FFFFFF" stroke="#1A171B" stroke-width="0.5" stroke-linecap="round" stroke-linejoin="round" d="M178.658,384.164
	c-1.677,0.009-5.907,0.392-7.869,1.406c-6.939,3.58-14.61,16.008-9.184,27.04c6.725,13.652,38.827,12.666,44.907-1.397
	c1.66-3.826,2.691-11.515,0.335-16.858C203.364,386.456,191.712,384.137,178.658,384.164z"/>
<path fill="#FFFFFF" stroke="#1A171B" stroke-width="0.5" stroke-linecap="round" stroke-linejoin="round" d="M162.267,371.179
	c-4.971-11.187-10.483-21.789-15.737-32.665C132.865,349.855,146.238,371.827,162.267,371.179z"/>
<path fill="#FFFFFF" stroke="#1A171B" stroke-width="0.5" stroke-linecap="round" stroke-linejoin="round" d="M219.299,277.76
	c-28.284,1.069-56.094,2.027-83.587,3.16c-1.393,0.932-2.081,2.931-3.276,4.922c-0.92,1.543-2.855,3.452-2.95,4.913
	c-0.172,2.584,3.758,8.136,5.246,11.242c12.211,25.478,25.833,53.457,37.691,77.602c4.987-0.886,10.827,0.027,15.737,0.355
	c-11.833-25.368-24.036-50.334-36.058-75.501c23.7-2,48.123-3.232,71.788-5.269c25.506,48.17,50.625,96.761,75.718,145.386
	c-18.927,8.986-38.009,17.809-57.366,26.337c2.554,1.626,5.332,1.719,7.869,3.517c7.026,4.969,10.268,20.118,5.246,28.792
	c-0.353,0.613-0.869,1.453-1.316,2.11c-0.051,0.084-2.004,1.069-0.653,1.405c20.174-11.643,40.443-23.166,60.969-34.418
	c1.265-2.511,3.226-4.263,4.258-7.021C285.196,403.122,252.82,339.829,219.299,277.76z"/>
<path fill="#FFFFFF" stroke="#1A171B" stroke-width="0.5" stroke-linecap="round" stroke-linejoin="round" d="M367.786,537.276
	c-7.018,12.62-19.831,26.045-36.058,31.259c11.042,2.421,21.396,3.717,30.157,8.081c8.505,4.229,14.775,11.078,19.993,18.611
	c7.509,4.282,16.486,7.096,26.549,7.371c9.881,0.271,20.25-2.55,27.862-5.966c15.409-6.931,27.604-19.778,32.127-37.229
	c-18.729-23.752-41.793-45.038-59.989-70.233c-5.118-7.086-11.301-15.642-14.096-25.285c-1.067-3.708-0.937-7.524-1.634-11.588
	c-2.338-13.599-10.611-24.83-18.36-34.063c-19.83-23.659-42.206-42.973-64.572-64.972c-4.292-4.228-8.333-7.872-13.106-12.995
	c-3.81-4.073-9.158-11.716-14.43-11.588c-4.068,0.1-7.577,4.931-9.503,8.082c-5.804,9.507-5.864,25.158,0,34.765
	c2.236,3.663,5.702,6.813,8.85,10.182c8.556,9.169,20.595,18.958,24.585,31.961c-2.063,0.22-5.771-0.84-8.522-1.059
	c9.167,17.569,18.668,34.783,28.189,51.979c-0.817,2.173-2.046,4.457-3.275,6.675c-1.136,2.038-2.177,4.813-3.604,6.319
	c-2.132,2.247-7.052,4.011-10.491,5.974c-23.692,13.522-50.006,28.289-73.095,41.43c9.881,6.329,20.372,11.808,30.812,17.917
	c18.394,10.767,45.992,27.059,73.095,15.798C350.26,554.134,359.651,545.86,367.786,537.276z"/>
</svg>
