<?xml version="1.0" encoding="utf-8"?>
<!-- Generator: Adobe Illustrator 18.1.1, SVG Export Plug-In . SVG Version: 6.00 Build 0)  -->
<!DOCTYPE svg PUBLIC "-//W3C//DTD SVG 1.1//EN" "http://www.w3.org/Graphics/SVG/1.1/DTD/svg11.dtd">
<svg version="1.1" id="Layer_1" xmlns="http://www.w3.org/2000/svg" xmlns:xlink="http://www.w3.org/1999/xlink" x="0px" y="0px"
	 viewBox="0 0 56.4 57.4" enable-background="new 0 0 56.4 57.4" xml:space="preserve">
<g>
	<path fill="#FFFFFF" d="M27.3,10.9c-0.1,0-0.1-0.1-0.2-0.1c0,0-0.1,0-0.1-0.1c0,0,0,0,0,0c-0.4-0.3-0.9-0.5-1.5-0.5
		c-0.6,0-1.1,0.2-1.5,0.5c0,0,0,0-0.1,0c0,0,0,0-0.1,0.1c-0.1,0-0.1,0.1-0.2,0.1L12.4,22.3c-1,1-1,2.6,0,3.6c1,1,2.6,1,3.6,0l7-7
		v19.3c0,1.4,1.1,2.6,2.6,2.6c1.4,0,2.6-1.1,2.6-2.6V18.9l7,7c1,1,2.6,1,3.6,0c1-1,1-2.6,0-3.6L27.3,10.9L27.3,10.9z"/>
	<path fill="#FFFFFF" d="M25.5,5.1c11.3,0,20.4,9.1,20.4,20.4s-9.1,20.4-20.4,20.4S5.1,36.8,5.1,25.5S14.2,5.1,25.5,5.1z M25.5,51
		C39.6,51,51,39.6,51,25.5S39.6,0,25.5,0S0,11.4,0,25.5S11.4,51,25.5,51z"/>
</g>
<g>
	<g>
		<defs>
			<rect id="SVGID_1_" x="32.4" y="33.4" width="24" height="24"/>
		</defs>
		<clipPath id="SVGID_2_">
			<use xlink:href="#SVGID_1_"  overflow="visible"/>
		</clipPath>
		<path clip-path="url(#SVGID_2_)" fill="#FFFFFF" d="M52,36.9c4.5,4.5,4.5,11.8,0,16.3c-4.5,4.5-11.8,4.5-16.3,0
			c-4.5-4.5-4.5-11.8,0-16.3C40.3,32.4,47.5,32.4,52,36.9"/>
	</g>
	<g>
		<defs>
			<rect id="SVGID_3_" x="37.1" y="39.8" width="13.9" height="12.6"/>
		</defs>
		<clipPath id="SVGID_4_">
			<use xlink:href="#SVGID_3_"  overflow="visible"/>
		</clipPath>
		<g clip-path="url(#SVGID_4_)">
			<defs>
				<rect id="SVGID_5_" x="37.1" y="39.8" width="13.9" height="12.5"/>
			</defs>
			<clipPath id="SVGID_6_">
				<use xlink:href="#SVGID_5_"  overflow="visible"/>
			</clipPath>
			<g clip-path="url(#SVGID_6_)">
				<defs>
					<rect id="SVGID_7_" x="37.1" y="39.8" width="13.9" height="12.6"/>
				</defs>
				<clipPath id="SVGID_8_">
					<use xlink:href="#SVGID_7_"  overflow="visible"/>
				</clipPath>
				<path clip-path="url(#SVGID_8_)" d="M44,41.6c0.3-0.3,0.5-0.6,0.8-0.9c0.7-0.7,1.7-1,2.7-0.9c1.5,0.1,3.2,1.3,3.5,3.2
					c0.2,1.1-0.1,2-0.7,2.9c-0.5,0.7-1.1,1.4-1.7,2.1c-0.8,0.9-1.7,1.8-2.6,2.6c-0.6,0.6-1.2,1.2-1.9,1.8c-0.3-0.3-0.6-0.5-0.9-0.8
					c-0.9-0.9-1.9-1.8-2.8-2.8c-0.9-0.9-1.8-1.9-2.5-2.9c-0.5-0.6-0.7-1.4-0.8-2.2c0-1.4,0.6-2.5,1.8-3.3c0.7-0.5,1.5-0.7,2.4-0.6
					c1,0.1,1.7,0.6,2.4,1.3C43.8,41.3,43.9,41.4,44,41.6"/>
			</g>
		</g>
	</g>
</g>
</svg>
