<?xml version="1.0" encoding="utf-8"?>
<!-- Generator: Adobe Illustrator 18.1.1, SVG Export Plug-In . SVG Version: 6.00 Build 0)  -->
<!DOCTYPE svg PUBLIC "-//W3C//DTD SVG 1.1//EN" "http://www.w3.org/Graphics/SVG/1.1/DTD/svg11.dtd">
<svg version="1.1" id="Layer_1" xmlns="http://www.w3.org/2000/svg" xmlns:xlink="http://www.w3.org/1999/xlink" x="0px" y="0px"
	 viewBox="0 0 206.4 206.4" enable-background="new 0 0 206.4 206.4" xml:space="preserve">
<circle fill="none" stroke="#FFFFFF" stroke-width="13" stroke-miterlimit="10" cx="103.2" cy="103.2" r="96.7"/>
<path fill="#FFFFFF" d="M169.1,80.4L152,100.9c-3-2.4-7-3.6-10.7-4.3c-3.6-0.9-7.8-0.9-11-2.8l-2.4-2.4c-0.9-1.2-2.7-2.2-5.2-3
	l7-14.2c9.1-0.3,18,0.6,26.8,2.4c3,0.6,6,1.3,8.9,2.1c1.2,0.3,2.2,0.7,3.4,0.9c0.1,0,0.3,0.1,0.5,0.3
	C169.4,80,169.3,80.3,169.1,80.4z M160.9,100.4v0.3c0,2.1-4.9,2.8-6.3,3.3c0.1,0-0.7-1-1.5-1.8l3.6-4.3
	C158.5,98.3,160.2,99.1,160.9,100.4z M100.4,149C65,149,41,130.7,39.8,103.2c3.1,2.4,7.3,2.8,11,3.6c4.6,0.9,9.4,1.5,14,2.1
	c9.7,1,19.5,1.5,29.4,1.6c9.5,0.1,19.2,0,28.8-0.6c9.4-0.6,18.9-1.3,28.2-3.4c0.5-0.1,0.7-0.1,1.2-0.3c2.7-0.7,6.1-1.2,8.4-3
	C159.7,130.8,135.7,149,100.4,149z M39.8,100.7c0.6-1.9,3.3-2.5,4.9-3c2.5-0.7,5.1-1.3,7.8-1.8l3.7,3.4c-3.4,1-7.2,2.1-9.7,4.8
	C45.6,104,39.8,102.3,39.8,100.7L39.8,100.7C40.3,99.4,39.8,100.7,39.8,100.7z M37.3,79.1c-0.3-0.3-0.5-0.9,0.1-0.9
	c1.2-0.5,2.4-0.9,3.4-1.5c3.1-1.2,6.3-2.4,9.4-3.3c9.2-3,18.6-4.8,28.3-5.4l7.2,14.2C84.9,84,84,86.1,84,88c-1.9,0.4-3.9,1-5.5,2.2
	c-2.8,0.4-5.5,1-8.2,1.5c-2.4,0.4-4.8,1.5-7,2.5c-1.9,0.9-4.2,2.2-5.1,4.3L37.3,79.1z M75.7,58.2c-0.1-0.3-0.1-0.5,0-0.6
	c0-0.1,0.1-0.1,0.5-0.1h0.1c10.1-0.3,20.1-0.1,30.1,1.6c8.5,1.5,16.6,4.5,24.6,7.3c0.1,0,0.3,0.5,0.1,0.6l-10.3,20.9
	c-5.4-1.3-11.2-1.6-16.7-1.8c-1.5-3.9-7.2-5.1-7.9-9.2c-0.1-0.9-0.1-2.1-0.6-2.8c-0.9-1.3-2.5-1-3.7-0.1c-2.2,1.6-3.6,4-4.9,6.3
	L75.7,58.2z M170.9,79.1c-0.3-0.7-1-1.2-1.8-1.3c-12.4-3.7-25.7-6-38.6-5.4l2.2-4.5c0.6-1.2,0-2.8-1.3-3.1
	c-17.4-7.2-36.4-10.3-55.2-9.1c-1.9-0.1-3,1.8-2.2,3.4l3.7,7.3c-14,0.9-27.9,4.5-40.7,10.1c-1.8,0.3-2.2,2.7-0.9,3.9L51,94.3
	c-3.3,0.6-6.9,1.3-9.8,2.8c-1.2,0.6-2.2,1.3-2.8,2.5c-0.7,1.5-0.3,3.6-0.1,5.2c0.6,7.5,3.1,14.9,7.3,21.2c8.9,13.6,24.3,21,40,23.6
	c15.8,2.7,33.1,1.3,47.9-5.4c14.5-6.6,25.7-18.9,28.6-34.8c0.4-2.7,0.7-5.5,0.7-8.4c0-2.8-2.4-3.9-4.8-4.8l12.5-14.9
	C171.1,80.9,171.2,80,170.9,79.1C170.6,78.3,171.2,80,170.9,79.1z"/>
</svg>
