<?xml version="1.0" encoding="utf-8"?>
<!-- Generator: Adobe Illustrator 18.1.0, SVG Export Plug-In . SVG Version: 6.00 Build 0)  -->
<!DOCTYPE svg PUBLIC "-//W3C//DTD SVG 1.1//EN" "http://www.w3.org/Graphics/SVG/1.1/DTD/svg11.dtd">
<svg version="1.1" id="Layer_1" xmlns="http://www.w3.org/2000/svg" xmlns:xlink="http://www.w3.org/1999/xlink" x="0px" y="0px"
	 viewBox="0 0 381.2 277.6" enable-background="new 0 0 381.2 277.6" xml:space="preserve">
<g id="lX0qwe.tif">
	<g>
		<path fill="#FFFFFF" d="M207.9,138.9c0,42,0,84,0,126c0,8.9-4,13.5-11,12.5c-2.3-0.3-4.7-1.7-6.6-3.2
			c-28.1-21.1-56.1-42.2-84.3-63.2c-2.2-1.6-5.4-2.6-8.1-2.6c-22.5-0.2-45-0.1-67.5-0.1c-18.1,0-30.4-12.2-30.4-30.4
			c0-26.8,0-53.7,0-80.5c0-18.7,12.2-30.8,31.1-30.8c23,0,46-0.1,69,0.1c4.4,0,7.8-1,11.4-3.7c26.2-20,52.7-39.7,78.9-59.6
			c3.7-2.8,7.4-4.4,11.9-2.3c4.6,2.2,5.5,6.4,5.5,10.9c0,28,0,56,0,84C207.9,110.2,207.9,124.6,207.9,138.9z"/>
		<path fill="#FFFFFF" d="M381.2,182.6c-11,10.9-21.2,21.1-31.6,31.6c-14.1-14.2-28.5-28.6-42.9-43c-14.9,14.9-29.3,29.3-43.3,43.3
			c-10.9-10.9-21.2-21.2-31.5-31.6c13.8-13.7,28.3-28.2,42.6-42.4c-15.1-15-29.5-29.5-43.5-43.4C242,86,252.3,75.7,262.4,65.6
			c13.5,13.6,28,28,42.8,42.9C320.4,93,334.7,78.3,348.8,64c11.1,11.1,21.3,21.3,31.6,31.4c-14,14-28.5,28.4-43.8,43.6
			C352,154.1,366.8,168.6,381.2,182.6z"/>
	</g>
</g>
</svg>
