<?xml version="1.0" encoding="utf-8"?>
<!-- Generator: Adobe Illustrator 18.1.0, SVG Export Plug-In . SVG Version: 6.00 Build 0)  -->
<!DOCTYPE svg PUBLIC "-//W3C//DTD SVG 1.1//EN" "http://www.w3.org/Graphics/SVG/1.1/DTD/svg11.dtd">
<svg version="1.1" id="Layer_1" xmlns="http://www.w3.org/2000/svg" xmlns:xlink="http://www.w3.org/1999/xlink" x="0px" y="0px"
	 viewBox="14.2 0 590 792.1" enable-background="new 14.2 0 590 792.1" xml:space="preserve">
<g id="uo9Lmo.tif">
	<g>
		<path fill="#FFFFFF" d="M311.1,0c77.1,0,154.2,0,231.1,0c45.5,0,61.9,16.4,61.9,61.4c0,156.1,0.2,312.1,0,468.2
			c0,43.7-17,60.5-60.8,60.5c-156.1,0-312.1,0-468.2,0c-43.9,0-60.7-16.6-60.8-60.3c0-156.7,0-313.5,0.2-470.1
			c0-42.5,17.1-59.4,59.8-59.4C153.2,0,232.1,0,311.1,0z"/>
		<path fill="#FFFFFF" d="M339.3,761.8c21.5,4.4,39.9,8,60.7,12.2c-27.1,23.6-138.8,24.5-175.7,0.3c23.6-5.2,42.7-9.4,63.8-14.2
			c0-267.7,0,92.5,0-176.8c17.8,0,33.6,0,51.2,0C339.3,852.1,339.3,492.5,339.3,761.8z"/>
	</g>
</g>
<text transform="matrix(1 0 0 1 86.7659 365.0911)"><tspan x="0" y="0" font-family="'Helvetica'" font-size="400">45</tspan><tspan x="89.1" y="144" font-family="'Helvetica'" font-size="120">MPH</tspan></text>
</svg>
