<?xml version="1.0" encoding="utf-8"?>
<!-- Generator: Adobe Illustrator 18.1.1, SVG Export Plug-In . SVG Version: 6.00 Build 0)  -->
<!DOCTYPE svg PUBLIC "-//W3C//DTD SVG 1.1//EN" "http://www.w3.org/Graphics/SVG/1.1/DTD/svg11.dtd">
<svg version="1.1" id="Layer_1" xmlns="http://www.w3.org/2000/svg" xmlns:xlink="http://www.w3.org/1999/xlink" x="0px" y="0px"
	 viewBox="13.9 33.8 222.5 74.7" enable-background="new 13.9 33.8 222.5 74.7" xml:space="preserve">
<path fill="#FFFFFF" d="M13.9,38.8c12.9-3,25.6-4.6,38.5-4.9c18.8-0.4,37.3,2,55.4,6.7c13.6,3.5,26.9,3.3,40.2-0.4
	c29.2-8.2,58.3-6.4,87.4,0.3c0.3,0.1,0.5,0.3,1,0.5c-0.6,4.7-1.2,9.5-1.8,14.5c-4.9,0.1-6,3.8-6.8,7.5c-1.6,7.3-2.8,14.8-4.7,22
	c-3.9,14.8-11.4,21.5-26.6,23.1c-11.3,1.2-22.5-0.2-33.2-4.1c-9.6-3.6-15.7-10.9-20.2-19.7c-3.7-7.4-6.9-15-10.1-22.6
	c-1.8-4.3-3.7-5.8-7.9-5.8c-4.7,0-7,1.7-8,6.2c-2.2,10.1-7,18.9-13.6,26.8c-14.9,17.9-35.1,23.1-56.7,16.5
	c-11.8-3.6-18.3-12.5-21.2-24c-1.7-6.9-2.4-14-3.2-21.1c-0.4-3.4-1.2-5.9-5-6.7c-0.6-0.1-1.4-1.2-1.5-2
	C15.1,47.5,14.5,43.3,13.9,38.8 M167.3,46.9c-8.2-0.7-15.5,1.3-21.4,7c-2.8,2.6-3.8,6.1-3.1,9.8c1.2,6.8,5.3,11.9,10.8,17
	C150.4,65.8,157.6,55.9,167.3,46.9 M19.2,46.8c3.5,2.1,8.6,2,11-0.1C27.2,44.9,22.4,44.9,19.2,46.8 M232,48.5
	c-3.8-2.3-9.3-2.1-11.4,0.2C224.3,50,227.9,50,232,48.5"/>
</svg>
