<?xml version="1.0" encoding="utf-8"?>
<!-- Generator: Adobe Illustrator 15.0.0, SVG Export Plug-In . SVG Version: 6.00 Build 0)  -->
<!DOCTYPE svg PUBLIC "-//W3C//DTD SVG 1.1//EN" "http://www.w3.org/Graphics/SVG/1.1/DTD/svg11.dtd">
<svg version="1.1" id="Layer_1" xmlns="http://www.w3.org/2000/svg" xmlns:xlink="http://www.w3.org/1999/xlink" x="0px" y="0px"
	 width="595.279px" height="841.891px" viewBox="0 0 595.279 841.891" enable-background="new 0 0 595.279 841.891"
	 xml:space="preserve">
<circle fill="none" stroke="#FFFFFF" stroke-width="13" stroke-miterlimit="10" cx="297.64" cy="420.945" r="278.894"/>
<g id="XMLID_2_">
	<g>
		<path fill="#FFFFFF" d="M533.3,366.445c-4.311-0.41-8.49-2.17-12.95-3.33c-12.89-3.36-27.76-5.85-43.65-7.03
			c-21.159-1.57-43.069,1.02-61.39,5.55c-35.97,8.89-64.14,27.27-84.71,50.3c-0.06,0.3-0.37,0.37-0.36,0.74
			c-0.54-0.16,0.03-0.32,0-0.74c15.811-32.11,44.44-55.66,83.221-65.83C457.83,334.455,506.31,347.055,533.3,366.445z"/>
		<path fill="#FFFFFF" d="M533.67,435.235c-4.34,13.34-13.5,22.84-23.311,30.7c-9.95,7.979-22.42,14.02-37.35,16.649
			c19.92-9.67,36.189-22.989,45.86-42.909c-12.921-9.271-28.82-15.561-48.82-17.75c1.1,4.689,3.35,11.439,2.59,19.229
			c-1.3-1.77-1.25-4-1.85-5.92c-1.641-5.16-4.53-10.32-8.141-14.05c-4.93,0-9.859,0-14.8,0c-0.17,1.16,0.93,1.04,1.48,1.479
			c-4.48,1.23-7.921,4.32-7.391,9.25c0.59,5.58,8.8,9.61,13.681,4.061c0.92-0.5,1.079-3.08,2.22-2.21
			c3.74,16.71-6.25,29.75-21.08,29.96c-19.28,0.26-29.98-22.391-17.39-37.73c-4.48,0.94-8.36,2.48-12.57,3.7
			c-9.19,25.97,13.109,49.74,39.21,42.9c13.86-3.631,23.34-15.16,25.89-30.33c1.23,2.38,0.91,4.91,0.74,7.399
			c-1.41,19.63-18.86,34.141-36.62,35.511c-28.07,2.159-48.77-20.25-46.6-47.721c-10.811,4.91-21.23,11.99-29.96,19.61
			c-0.53,0.46-1.24,1.37-1.851,1.85c0.07-0.06-1.279,1.75-1.479,0.37c20.92-28.5,52.04-51.04,99.859-53.26
			C490.17,404.436,515.25,417.945,533.67,435.235z"/>
		<path fill="#FFFFFF" d="M265.88,411.945c0.12,0.12,0.25,0.24,0.37,0.36C266.02,412.285,265.82,412.255,265.88,411.945z"/>
		<path fill="#FFFFFF" d="M265.88,411.936c-10.76-10.49-22.02-21.66-36.25-30.33c-26.84-16.35-65.24-28.33-109.11-25.52
			c-21,1.35-40.62,4.63-56.96,10.73c-1.57,0.06-0.01-0.58,0.37-0.74c14.13-10.29,32.08-17.22,52.89-21.45
			c21.04-4.29,45.69-3.43,66.21,1.85C221.93,356.475,249.98,380.005,265.88,411.936z"/>
		<path fill="#FFFFFF" d="M239.99,460.025c-9.74-8.76-20.49-16.5-32.92-22.57c1.15,26.84-18.05,49.76-46.61,47.721
			c-8.94-0.641-17.44-4.23-23.67-9.62c-8.11-7.011-14.18-17.591-13.31-33.66c3.65,16.5,16.11,32.859,36.98,31.81
			c20.34-1.02,37.04-21.08,28.85-44.01c-3.06-0.82-5.75-1.99-9.24-2.96c-2.77-0.771-7.41-2.79-9.99-2.22
			c-6.41,1.42-4.43,15.81,5.92,14.05c2.65-0.45,2.96-1.91,5.55-3.7c3.63,15.98-7.68,28.69-21.46,28.86
			c-13.23,0.149-22.91-10.57-22.93-22.57c-0.01-8.81,4.66-14.91,11.1-19.6c-4.83,0.199-10.61-1.581-14.43-0.37
			c-2.79,0.88-4.9,6.029-6.28,8.88c-1.84,3.77-3.17,7.67-3.7,11.09c-1.32-7.11,0.54-14.25,2.59-19.229
			c-20.29,1.899-35.72,8.659-49.2,17.38c9.32,20.149,25.52,33.42,45.5,42.909c-7.26-0.729-14.25-3.109-20.35-5.92
			c-17.77-8.21-32.47-21.779-39.94-40.68c16.88-17.26,39.16-28.15,70.27-29.59c25.72-1.2,48.52,6.57,65.1,15.9
			C216,432.155,230.8,444.665,239.99,460.025z"/>
	</g>
	<g>
	</g>
</g>
</svg>
