<?xml version="1.0" encoding="utf-8"?>
<!-- Generator: Adobe Illustrator 18.1.1, SVG Export Plug-In . SVG Version: 6.00 Build 0)  -->
<!DOCTYPE svg PUBLIC "-//W3C//DTD SVG 1.1//EN" "http://www.w3.org/Graphics/SVG/1.1/DTD/svg11.dtd">
<svg version="1.1" id="Layer_1" xmlns="http://www.w3.org/2000/svg" xmlns:xlink="http://www.w3.org/1999/xlink" x="0px" y="0px"
	 viewBox="0 0 110.1 110.1" enable-background="new 0 0 110.1 110.1" xml:space="preserve">
<g>
	<defs>
		<rect id="SVGID_1_" x="0" y="0" width="110.1" height="110.1"/>
	</defs>
	<clipPath id="SVGID_2_">
		<use xlink:href="#SVGID_1_"  overflow="visible"/>
	</clipPath>
	<g clip-path="url(#SVGID_2_)">
		<defs>
			<rect id="SVGID_3_" x="0" y="0" width="110.1" height="110.1"/>
		</defs>
		<clipPath id="SVGID_4_">
			<use xlink:href="#SVGID_3_"  overflow="visible"/>
		</clipPath>
		<g clip-path="url(#SVGID_4_)" enable-background="new    ">
			<g>
				<defs>
					<rect id="SVGID_5_" x="-3" y="-1" width="119.5" height="112.8"/>
				</defs>
				<clipPath id="SVGID_6_">
					<use xlink:href="#SVGID_5_"  overflow="visible"/>
				</clipPath>
				<g clip-path="url(#SVGID_6_)">
					<defs>
						<rect id="SVGID_7_" x="0" y="0" width="110.1" height="110.1"/>
					</defs>
					<clipPath id="SVGID_8_">
						<use xlink:href="#SVGID_7_"  overflow="visible"/>
					</clipPath>
					<g clip-path="url(#SVGID_8_)">
						<defs>
							<rect id="SVGID_9_" x="-3" y="-1" width="119.5" height="112.8"/>
						</defs>
						<clipPath id="SVGID_10_">
							<use xlink:href="#SVGID_9_"  overflow="visible"/>
						</clipPath>
						<path clip-path="url(#SVGID_10_)" fill="#FFFFFF" d="M55,29.6c-5.2,0-9.5,4.2-9.5,9.4c0,5.2,4.2,9.5,9.5,9.5
							c5.2,0,9.5-4.3,9.5-9.5C64.5,33.9,60.2,29.6,55,29.6"/>
						<path clip-path="url(#SVGID_10_)" fill="#FFFFFF" d="M87.6,0H22.5C10.1,0,0,10.1,0,22.5v65.2c0,12.4,10.1,22.5,22.5,22.5h65.2
							c12.4,0,22.5-10.1,22.5-22.5V22.5C110.1,10.1,100,0,87.6,0 M76,40.4c-0.2,3.3-1.1,6.5-2.7,9.4c-1.1,2.2-2.3,4.5-3.7,6.6
							c-4.7,7.6-8.7,15.4-11.3,24c-1.1,3.6-2,7.3-3.1,11c-0.1,0.2-0.1,0.4-0.2,0.6c0,0-0.1,0-0.1,0c-0.6-2.3-1.3-4.6-1.9-7
							c-2.6-10.3-7-19.8-12.7-28.8c-2.1-3.3-4.1-6.8-5.3-10.6c-3.3-10.7,1.8-21.8,12.2-26c8.3-3.3,18-1,23.9,6.1
							C74.7,30,76.3,34.9,76,40.4"/>
					</g>
				</g>
			</g>
		</g>
	</g>
</g>
</svg>
