<?xml version="1.0" encoding="utf-8"?>
<!-- Generator: Adobe Illustrator 18.1.1, SVG Export Plug-In . SVG Version: 6.00 Build 0)  -->
<!DOCTYPE svg PUBLIC "-//W3C//DTD SVG 1.1//EN" "http://www.w3.org/Graphics/SVG/1.1/DTD/svg11.dtd">
<svg version="1.1" id="Layer_1" xmlns="http://www.w3.org/2000/svg" xmlns:xlink="http://www.w3.org/1999/xlink" x="0px" y="0px"
	 viewBox="218 0 356 612" enable-background="new 218 0 356 612" xml:space="preserve">
<g>
	<path fill="#FFFFFF" d="M322.2,76.4c0-8.9,0-17.3,0-25.5C321.9,59.2,322.2,67.5,322.2,76.4z"/>
	<path fill="#FFFFFF" d="M475.1,42.7c0,10.9,0,21.8,0,33.2c3.8,0,6.6,0.5,9.5,0.5c0.2,0,0.3,0,0.5,0c-2.8,0-5.7-0.5-9.5-0.5
		c0-11.4,0-22.3,0-33.2C475.1,13.8,461.8,0,433.3,0c-22.8,0-45.6,0-68.4,0c0,0,0,0,0,0c22.6,0,45.3,0,67.9,0
		C461.3,0.5,474.6,13.8,475.1,42.7z"/>
	<path fill="#FFFFFF" d="M521.1,76.4c-7.4-0.2-11.5-0.2-14.5-0.2c3,0,7,0.1,14,0.2c26.1,0.5,39.4,13.8,40.4,39.9c0,2.4,0,4.7,0,7.1
		c0,146.7,0,293.4,0,440.6c0,1.9,0,3.8,0,5.2c-0.5,27.5-13.8,41.8-41.3,41.8c0.2,0,0.3,0,0.5,0c27.5,0,40.8-14.2,41.3-41.8
		c0-1.9,0-3.8,0-5.2c0-146.7,0-293.4,0-440.6c0-2.4,0-4.7,0-7.1C560.5,90.2,547.2,76.9,521.1,76.4z"/>
	<path d="M364.9,0c-0.2,0-0.3,0-0.5,0c-28.5,0-41.8,13.8-42.3,42.7c0,2.7,0,5.5,0,8.2c0.1-2.7,0.2-5.5,0.5-8.2
		C322.6,13.8,336.4,0.5,364.9,0z"/>
	<path d="M231.5,567.4c0-91.2,0-181.8,0-273c0-56,0-112.5,0-169c0-1.4,0-3.3,0-5.2c0-30.4,13.8-43.7,44.2-43.7c-0.2,0-0.3,0-0.5,0
		c-30.4,0-44.2,13.3-44.2,43.7c0,1.4,0,3.3,0,5.2c0,56,0,112.5,0,169c0,91.2,0,181.8,0,273c0,29.4,12.8,43.7,41.3,43.7
		c0.2,0,0.3,0,0.5,0C244.8,611.1,231.5,596.8,231.5,567.4z"/>
	<path d="M506.6,76.2c-6,0-7.7,0.2-21.6,0.2c0,0,0,0,0,0C499,76.4,501,76.2,506.6,76.2z"/>
	<path fill="#E25957" d="M561,569.3c0-1.4,0-3.3,0-5.2c0-147.2,0-293.9,0-440.6c0-2.4,0-4.7,0-7.1c-0.9-26.1-14.2-39.4-40.4-39.9
		c-7-0.2-11-0.2-14-0.2c-5.6,0-7.7,0.2-21.6,0.2c0,0,0,0,0,0c-0.2,0-0.3,0-0.5,0c-2.8,0-5.7-0.5-9.5-0.5c0-11.4,0-22.3,0-33.2
		c-0.5-29-13.8-42.3-42.3-42.7c-22.6,0-45.3,0-67.9,0c-28.5,0.5-42.3,13.8-42.3,42.7c-0.2,2.7-0.4,5.5-0.5,8.2c0,8.2,0,16.6,0,25.5
		c-4.3,0-7.6,0-10.4,0c-0.2,0-0.3,0-0.5,0c-19.4,0-15.8,0-35.6,0c-30.4,0-44.2,13.3-44.2,43.7c0,1.9,0,3.8,0,5.2c0,56.5,0,113,0,169
		c0,91.2,0,181.8,0,273c0,29.4,13.3,43.7,41.3,43.7c99.5,0,147,0,246.9,0C547.2,611.1,560.5,596.8,561,569.3z M512.1,459.1
		c0,25.2,0,49.9,0,75.5V551H284.2v-16.4c0-25.2,0-50.3,0-75.5V123h227.9V459.1z"/>
</g>
<rect x="297.9" y="482" fill="#E25957" width="198.8" height="53"/>
</svg>
