<?xml version="1.0" encoding="utf-8"?>
<!-- Generator: Adobe Illustrator 18.1.0, SVG Export Plug-In . SVG Version: 6.00 Build 0)  -->
<!DOCTYPE svg PUBLIC "-//W3C//DTD SVG 1.1//EN" "http://www.w3.org/Graphics/SVG/1.1/DTD/svg11.dtd">
<svg version="1.1" id="Layer_1" xmlns="http://www.w3.org/2000/svg" xmlns:xlink="http://www.w3.org/1999/xlink" x="0px" y="0px"
	 viewBox="0 0 450 406.3" enable-background="new 0 0 450 406.3" xml:space="preserve">
<g id="V3JEUD.tif">
	<g>
		<path d="M224.4,58c8.6-9.4,16.4-19.1,25.4-27.6c24.3-23.2,53.7-32.7,86.9-29.8C385.1,4.7,439.3,42.1,448.6,103
			c5.2,34.1-4.4,64.8-23.8,92.9c-16.6,24-35.4,46.3-55.5,67.4c-27.4,28.7-55.2,56.9-83.3,84.9c-19.8,19.7-40.5,38.6-61.1,58.2
			c-9.3-8.7-18.6-17.2-27.6-26c-30.6-29.9-61.5-59.6-91.5-90.1c-29.1-29.6-57-60.2-80.8-94.3c-14.7-21.1-24.1-44.1-25-69.9
			c-1.5-46.3,19-81.2,57.4-106.1C80.8,4.8,106.6-1.9,134.4,0.5c31.6,2.7,56.6,18,77.1,41.4C216,47.2,220.2,52.8,224.4,58z"/>
	</g>
</g>
</svg>
