<?xml version="1.0" encoding="utf-8"?>
<!-- Generator: Adobe Illustrator 18.1.1, SVG Export Plug-In . SVG Version: 6.00 Build 0)  -->
<!DOCTYPE svg PUBLIC "-//W3C//DTD SVG 1.1//EN" "http://www.w3.org/Graphics/SVG/1.1/DTD/svg11.dtd">
<svg version="1.1" id="Layer_1" xmlns="http://www.w3.org/2000/svg" xmlns:xlink="http://www.w3.org/1999/xlink" x="0px" y="0px"
	 viewBox="0 0 171.4 194.3" enable-background="new 0 0 171.4 194.3" xml:space="preserve">
<g>
	<g>
		<path fill="#FFFFFF" d="M146.9,194.3c-4.7,0-9,0-13.6,0c0-4.2,0-8.4,0-12.3c-5.3-1.1-10.4-2-15.4-3.2c-2.2-0.5-4.2-1.6-6.3-2.6
			c-0.4-0.2-0.9-1.2-0.8-1.7c1.1-4.9,2.4-9.8,3.7-14.8c1.2,0.6,2.2,1.1,3.3,1.6c7.7,3.5,15.7,5.3,24.2,3.8c1.9-0.3,3.8-1.1,5.5-2.1
			c4.3-2.5,4.9-7.8,1.3-11.3c-3-2.9-6.9-4.5-10.8-5.8c-5.5-2-10.9-4-15.9-7.2c-7.8-5.1-11.5-12.3-10.6-21.6
			c0.9-9.1,5.8-15.3,14-19.1c2.9-1.4,6.1-2.2,9.3-3.3c0-4,0-8.2,0-12.5c4.4,0,8.7,0,13.4,0c0,3,0,6,0,9.1c0,3.2-0.3,2.7,2.9,3
			c5.9,0.4,11.5,1.7,16.9,4.4c-1.3,5.2-2.6,10.3-3.9,15c-4.3-1.3-8.3-2.9-12.5-3.6c-4.1-0.6-8.4-0.5-12.6-0.2
			c-1.7,0.1-3.5,1.1-4.9,2.3c-3.2,2.8-3.3,7.2,0.1,9.7c2.8,2.1,6.1,3.7,9.3,5.1c5,2.3,10.2,4,15,6.4c7.1,3.6,11.7,9.3,12.7,17.4
			c1.6,13.9-5.5,24.4-19.1,28.2c-1.7,0.5-3.3,0.8-5.2,1.3C146.9,185,146.9,189.6,146.9,194.3z"/>
	</g>
	<g>
		<defs>
			<polygon id="SVGID_1_" points="156.5,0 5.8,0 5.8,31.7 0,31.7 0,157.3 106.8,157.3 108.8,70.3 156.5,68.3 			"/>
		</defs>
		<clipPath id="SVGID_2_">
			<use xlink:href="#SVGID_1_"  overflow="visible"/>
		</clipPath>
		<g clip-path="url(#SVGID_2_)">
			<path fill="#FFFFFF" d="M77.8,150.4c-39.5,0-72-32.5-72-72.1C5.8,38.5,38.2,6,77.9,6c39.9,0,72.3,32.4,72.3,72.2
				C150.2,118.1,117.8,150.4,77.8,150.4z M137.5,78.3c0-32.8-26.6-59.6-59.2-59.6c-32.6,0-59.5,26.5-59.8,58.4
				C18.2,110.5,45,137.6,78,137.6C110.7,137.6,137.5,111,137.5,78.3z"/>
			<path fill="#FFFFFF" d="M65.2,53c8.5,0,16.8-0.2,25.2,0.1c4.8,0.1,8.2,3.1,10.2,7.2c3.2,6.5,3.2,13.3,0.1,19.9
				c-2.7,5.7-7.6,8.1-13.8,8.3c-3.9,0.1-7.8,0-11.9,0c0,7.4,0,14.6,0,21.9c-3.4,0-6.6,0-9.8,0C65.2,91.1,65.2,72,65.2,53z M75.1,79
				c4-0.2,7.9-0.2,11.7-0.7c3.8-0.5,5.7-3.5,5.7-7.7c0-4.2-2-7.4-5.7-7.8c-3.8-0.4-7.7-0.1-11.7-0.1C75.1,67.9,75.1,73.2,75.1,79z"
				/>
		</g>
	</g>
</g>
</svg>
