<?xml version="1.0" encoding="utf-8"?>
<!-- Generator: Adobe Illustrator 18.1.0, SVG Export Plug-In . SVG Version: 6.00 Build 0)  -->
<!DOCTYPE svg PUBLIC "-//W3C//DTD SVG 1.1//EN" "http://www.w3.org/Graphics/SVG/1.1/DTD/svg11.dtd">
<svg version="1.1" id="Layer_1" xmlns="http://www.w3.org/2000/svg" xmlns:xlink="http://www.w3.org/1999/xlink" x="0px" y="0px"
	 viewBox="0 0 404.8 405" enable-background="new 0 0 404.8 405" xml:space="preserve">
<g id="hghcwW.tif">
	<g>
		<path fill="#FFFFFF" d="M300,404.7c-38.5-2.6-73-17-105.4-36.6C141.5,336,95,296.2,58.3,245.8C30.8,208,12.2,166.1,2.5,120.1
			c-10-47.6,10.3-81.7,46.8-106.7C58.7,7,68.1,0.6,80.1,0c6.2-0.3,10.6,1.1,14.1,6.9c15.9,26.6,32.2,52.9,48.2,79.3
			c6.3,10.4,6,16.4-2.6,25c-8.3,8.2-17.5,15.3-26.2,23.1c-4.8,4.3-9.5,8.8-14.1,13.4c-4.5,4.4-5.2,9.7-3.6,15.6
			c4.6,17.1,14.1,31.4,25,45c20.5,25.5,45.5,46.3,71,66.4c13.7,10.8,28.3,20.5,42.5,30.7c1.7,1.2,3.7,2.2,5.6,3.2
			c9,4.7,13.6,4.6,20.5-2.8c7.9-8.5,14.8-18,22.4-26.8c4.4-5.2,9-10.2,14-14.8c6.1-5.6,12.9-5.2,19.8-1.1
			c19.9,11.7,39.9,23.3,59.9,35c7.5,4.4,14.7,9.1,22.3,13.2c5.1,2.7,6.4,6.8,5.9,12c-1.3,15.3-8.3,28.4-17.4,40.2
			c-20.9,26.9-49,39.9-82.8,41.5c-0.8,0-1.7,0-2.5,0C301.3,404.9,300.7,404.8,300,404.7z"/>
	</g>
</g>
</svg>
