<?xml version="1.0" encoding="utf-8"?>
<!-- Generator: Adobe Illustrator 18.1.0, SVG Export Plug-In . SVG Version: 6.00 Build 0)  -->
<!DOCTYPE svg PUBLIC "-//W3C//DTD SVG 1.1//EN" "http://www.w3.org/Graphics/SVG/1.1/DTD/svg11.dtd">
<svg version="1.1" id="Layer_1" xmlns="http://www.w3.org/2000/svg" xmlns:xlink="http://www.w3.org/1999/xlink" x="0px" y="0px"
	 viewBox="0 91.4 611.9 608.8" enable-background="new 0 91.4 611.9 608.8" xml:space="preserve">
<g id="j7OUSk.tif">
	<g>
		<path fill="#FFFFFF" d="M128.1,166.8c0,9.6,0,18.2,0,26.6c0.1,25.3,20.1,45.5,45.3,45.6c25.7,0.3,46.3-19.5,46.8-45.1
			c0.1-8.9,0-17.6,0-26.9c57.2,0,113.8,0,171.3,0c0,8.5-0.1,16.8,0,25.1c0.4,28.5,21.3,48.1,49.7,46.7c23.4-1.2,42.5-22.1,43-47.3
			c0.1-8.1,0-16.3,0-25c18,0,35.4-0.3,52.6,0.1c10,0.3,20.1,0.5,29.8,2.6c16.3,3.6,28.5,13.4,37.7,27.3c4.9,7.5,7.5,15.6,7.5,25
			c-0.3,139-0.4,278.1,0.1,417.1c0.1,24.3-11.9,40-30.7,52.3c-10.1,6.7-21.7,9.2-33.7,9.2c-159.8,0-319.6,0.1-479.2,0
			C29.4,700.4,0,670.2,0,630.4c0-105.3,0-210.7,0-316c0-26.2,0-52.3,0-78.5c0-41,28.1-69.1,69-69.1
			C88.2,166.8,107.6,166.8,128.1,166.8z M553.8,545.2c-31.5,0-62.8,0-94.4,0c0,29.1,0,57.8,0,86.9c31.5,0,62.8,0,94.4,0
			C553.8,603,553.8,574.3,553.8,545.2z M326.4,632.1c32.1,0,63.4,0,94.8,0c0-29.2,0-57.9,0-86.7c-32,0-63.4,0-94.8,0
			C326.4,574.4,326.4,603.1,326.4,632.1z M288.9,545.2c-31.8,0-63.2,0-94.6,0c0,29.2,0,57.9,0,86.9c31.7,0,63,0,94.6,0
			C288.9,603,288.9,574.3,288.9,545.2z M553.8,423.7c-31.5,0-62.8,0-94.4,0c0,29.1,0,57.9,0,86.6c31.7,0,63,0,94.4,0
			C553.8,481.2,553.8,452.6,553.8,423.7z M326.6,423.4c0,29.4,0,58,0,86.9c31.8,0,63.2,0,94.5,0c0-29.2,0-57.9,0-86.9
			C389.4,423.4,358.4,423.4,326.6,423.4z M288.9,423.7c-31.8,0-63.2,0-94.6,0c0,29.2,0,57.9,0,86.5c31.8,0,63.4,0,94.6,0
			C288.9,481,288.9,452.5,288.9,423.7z M459.3,387.6c31.5,0,62.8,0,94.4,0c0-29.1,0-57.8,0-87c-31.5,0-62.8,0-94.4,0
			C459.3,329.8,459.3,358.5,459.3,387.6z M421.2,387.7c0-29.5,0-58.2,0-87.1c-31.8,0-63.1,0-94.5,0c0,29.2,0,58.2,0,87.1
			C358.4,387.7,389.5,387.7,421.2,387.7z M193.9,387.6c32,0,63.2,0,94.9,0c0-29.1,0-57.9,0-86.9c-31.8,0-63.2,0-94.9,0
			C193.9,330,193.9,358.5,193.9,387.6z M155.3,510.5c0-29.2,0-58,0-86.9c-31.4,0-62.4,0-93.7,0c0,29.1,0,57.9,0,86.9
			C92.9,510.5,123.7,510.5,155.3,510.5z M155.4,545.2c-31.8,0-62.8,0-93.8,0c0,29.2,0,58,0,86.7c31.5,0,62.6,0,93.8,0
			C155.4,603,155.4,574.3,155.4,545.2z M155.4,300.7c-31.7,0-62.7,0-93.8,0c0,29.2,0,58,0,86.7c31.5,0,62.6,0,93.8,0
			C155.4,358.5,155.4,329.8,155.4,300.7z"/>
		<path fill="#FFFFFF" d="M203.2,156.5c0,11.9,0.1,23.6,0,35.5c-0.1,16.8-12.8,29.9-29,30c-16.3,0-29-12.7-29-29.6
			c-0.1-23.9-0.1-47.8,0-71.7c0.1-16.5,12.7-29.1,28.7-29.1c16.4,0,29.1,12.7,29.2,29.5C203.2,132.9,203.2,144.6,203.2,156.5z"/>
		<path fill="#FFFFFF" d="M467,156.2c0,12,0,24.2,0,36.2c-0.1,15.7-12.6,28.8-28.1,29.5c-15.2,0.7-28.7-10.1-29.2-26.1
			c-1-26.4-1-52.7,0-79.1c0.4-15.7,14.1-26.1,29.8-25.3c15.2,0.8,27.5,13.4,27.6,28.5C467.1,132.2,467,144.2,467,156.2z"/>
		<path d="M553.8,545.2c0,29.1,0,57.9,0,86.9c-31.7,0-62.8,0-94.4,0c0-29.1,0-57.9,0-86.9C491,545.2,522.3,545.2,553.8,545.2z"/>
		<path d="M326.4,632.1c0-29,0-57.5,0-86.7c31.4,0,62.8,0,94.8,0c0,28.7,0,57.5,0,86.7C389.8,632.1,358.5,632.1,326.4,632.1z"/>
		<path d="M288.9,545.2c0,29.1,0,57.8,0,86.9c-31.7,0-63,0-94.6,0c0-29,0-57.6,0-86.9C225.6,545.2,257,545.2,288.9,545.2z"/>
		<path d="M553.8,423.7c0,29,0,57.5,0,86.6c-31.4,0-62.7,0-94.4,0c0-28.7,0-57.5,0-86.6C491,423.7,522.1,423.7,553.8,423.7z"/>
		<path d="M326.6,423.4c31.8,0,62.8,0,94.5,0c0,29,0,57.6,0,86.9c-31.3,0-62.7,0-94.5,0C326.6,481.6,326.6,452.7,326.6,423.4z"/>
		<path d="M288.9,423.7c0,28.8,0,57.4,0,86.5c-31.4,0-62.8,0-94.6,0c0-28.5,0-57.4,0-86.5C225.6,423.7,257,423.7,288.9,423.7z"/>
		<path d="M459.3,387.6c0-29.1,0-57.8,0-87c31.5,0,62.8,0,94.4,0c0,29.1,0,57.8,0,87C522.1,387.6,491,387.6,459.3,387.6z"/>
		<path d="M421.2,387.7c-31.7,0-62.8,0-94.5,0c0-29,0-57.8,0-87.1c31.4,0,62.7,0,94.5,0C421.2,329.6,421.2,358.2,421.2,387.7z"/>
		<path d="M193.9,387.6c0-29.1,0-57.8,0-86.9c31.7,0,63.1,0,94.9,0c0,29,0,57.6,0,86.9C257.2,387.6,225.9,387.6,193.9,387.6z"/>
		<path d="M155.3,510.5c-31.5,0-62.4,0-93.7,0c0-29,0-57.8,0-86.9c31.1,0,62.1,0,93.7,0C155.3,452.5,155.3,481.3,155.3,510.5z"/>
		<path d="M155.4,545.2c0,29.1,0,57.6,0,86.7c-31.3,0-62.3,0-93.8,0c0-28.7,0-57.5,0-86.7C92.7,545.2,123.7,545.2,155.4,545.2z"/>
		<path d="M155.4,300.7c0,29.1,0,57.8,0,86.7c-31.3,0-62.3,0-93.8,0c0-28.8,0-57.5,0-86.7C92.7,300.7,123.7,300.7,155.4,300.7z"/>
	</g>
</g>
</svg>
