<?xml version="1.0" encoding="utf-8"?>
<!-- Generator: Adobe Illustrator 18.1.1, SVG Export Plug-In . SVG Version: 6.00 Build 0)  -->
<!DOCTYPE svg PUBLIC "-//W3C//DTD SVG 1.1//EN" "http://www.w3.org/Graphics/SVG/1.1/DTD/svg11.dtd">
<svg version="1.1" id="Layer_1" xmlns="http://www.w3.org/2000/svg" xmlns:xlink="http://www.w3.org/1999/xlink" x="0px" y="0px"
	 viewBox="0 0 206.4 206.4" enable-background="new 0 0 206.4 206.4" xml:space="preserve">
<circle fill="none" stroke="#FFFFFF" stroke-width="13" stroke-miterlimit="10" cx="103.2" cy="103.2" r="96.7"/>
<path fill="#FFFFFF" d="M107.4,141.8c0,0-10.4-13.3-9.3-33.1c1.1-19.9,5.9-30.3,6.4-38.7c0.5-8.3,0-4.8-4.2-4.2
	c-4.2,0.6-4.3-1.7-7.5-2.3c0,0-5.4-2.1-8.3-1c0,0-4.3,1.7-6.4,19.6c-2.1,17.9,0.2,35.1,3.9,43.1c3.7,8,7.1,17.2,14.5,24.4
	c7.4,7.2,25.5,21.5,19.1,26.4C115.7,176.1,133.2,175.3,107.4,141.8z"/>
<path fill="#FFFFFF" d="M96.4,63c1.3,2.1,6.1,0.8,6.1-0.2c0-0.1-0.6-0.3-0.8-0.5c0,0-6.2,0.2-2.6-13.9c3.6-14.1,15-17.8,15-17.8
	s-9-3.1-14.5,7.8c-5.4,11-5.6,11.6-6.4,14.5c-0.8,2.9-0.7,5.7-7.4,7.3C85.8,60.2,94.9,60.6,96.4,63z"/>
</svg>
