<?xml version="1.0" encoding="utf-8"?>
<!-- Generator: Adobe Illustrator 18.1.0, SVG Export Plug-In . SVG Version: 6.00 Build 0)  -->
<!DOCTYPE svg PUBLIC "-//W3C//DTD SVG 1.1//EN" "http://www.w3.org/Graphics/SVG/1.1/DTD/svg11.dtd">
<svg version="1.1" id="Layer_1" xmlns="http://www.w3.org/2000/svg" xmlns:xlink="http://www.w3.org/1999/xlink" x="0px" y="0px"
	 viewBox="0 0 196 242" enable-background="new 0 0 200 239.9" xml:space="preserve">
<g id="SChiLX.tif">
	<g>

		<path fill="#FFFFFF" d="M97.9,217.9C44.1,218,0.3,174.3,0,120.2C-0.3,65.9,43.3,22.1,97.8,22c54.2-0.1,97.6,43.2,98,97.5
			C196.1,173.6,152.2,217.7,97.9,217.9z M86.3,119.8c0-11.2-0.1-22.3,0-33.5c0-3.9-1.1-7.1-4.7-8.6c-3.7-1.6-7-0.6-9.9,2.4
			c-11,11.2-22.1,22.1-33.1,33.3c-4.5,4.5-4.5,8.4,0,13c11,11.1,22.1,22.2,33.1,33.3c2.7,2.7,5.8,4.1,9.5,2.5
			c3.8-1.6,5.1-4.8,5.1-8.8C86.3,142.2,86.3,131,86.3,119.8z M148.3,120.2c0-11.3,0-22.6,0-33.9c0-3.8-1.2-7-4.8-8.5
			c-3.8-1.6-7-0.4-9.9,2.5c-10.7,10.9-21.6,21.7-32.3,32.6c-4.8,4.9-4.9,9-0.1,13.8c10.7,10.9,21.6,21.7,32.3,32.6
			c2.9,2.9,6,4.3,9.8,2.8c3.8-1.5,5.1-4.8,5-8.9C148.3,142.2,148.3,131.2,148.3,120.2z"/>
		<path d="M86.3,119.8c0,11.2-0.1,22.3,0,33.5c0,4.1-1.3,7.3-5.1,8.8c-3.7,1.5-6.7,0.2-9.5-2.5c-11-11.1-22.1-22.1-33.1-33.3
			c-4.5-4.6-4.5-8.4,0-13c11-11.1,22.2-22.1,33.1-33.3c2.9-3,6.2-4,9.9-2.4c3.6,1.6,4.7,4.8,4.7,8.6
			C86.3,97.5,86.3,108.7,86.3,119.8z"/>
		<path d="M148.3,120.2c0,11-0.1,22,0,32.9c0,4.1-1.2,7.3-5,8.9c-3.8,1.5-7,0.1-9.8-2.8c-10.7-10.9-21.6-21.7-32.3-32.6
			c-4.7-4.8-4.7-8.9,0.1-13.8c10.8-10.9,21.6-21.7,32.3-32.6c2.9-2.9,6.1-4.1,9.9-2.5c3.6,1.5,4.8,4.7,4.8,8.5
			C148.3,97.6,148.3,108.9,148.3,120.2z"/>
	</g>
</g>
</svg>
