<?xml version="1.0" encoding="utf-8"?>
<!-- Generator: Adobe Illustrator 18.1.0, SVG Export Plug-In . SVG Version: 6.00 Build 0)  -->
<!DOCTYPE svg PUBLIC "-//W3C//DTD SVG 1.1//EN" "http://www.w3.org/Graphics/SVG/1.1/DTD/svg11.dtd">
<svg version="1.1" id="Layer_1" xmlns="http://www.w3.org/2000/svg" xmlns:xlink="http://www.w3.org/1999/xlink" x="0px" y="0px"
	 viewBox="0 0 235.6 417.2" enable-background="new 0 0 235.6 417.2" xml:space="preserve">
<g id="k3wTHh.tif">
	<g>
		<path fill="#FFFFFF" d="M235.3,210c0,59.5-0.3,119,0.2,178.5c0.2,18-14.3,28.7-28.9,28.7c-59.2-0.2-118.3-0.2-177.5,0
			c-16,0.1-29.2-11.9-29.1-29.1c0.4-119,0.2-238,0.2-357c0-14.3,7.3-22.5,20.7-27.6c10.2-3.9,20.5-4.2,30.3-2.6
			c25,4.1,50,1.2,75,1.9c25.1,0.7,50.3,0.1,75.5,0.1c1.5,0,3,0.1,4.5,0C221,1.8,235.8,13.6,235.6,32
			C234.9,91.3,235.3,150.7,235.3,210z M120,29.6c-27.7,0-55.3,0-83,0c-9.5,0-10.8,1.3-10.8,10.5c0,36.5,0,73,0,109.5
			c0,11.3,0.1,22.7,0,34c0,4.7,2.1,7.2,6.7,7.6c2,0.2,4,0.3,6,0.3c33.5,0,67,0,100.5,0c21.3,0,42.7,0.1,64,0c8.2,0,10-1.9,10-9.9
			c0-47.3,0-94.6,0-142c0-8.4-1.5-9.9-9.8-10C175.6,29.6,147.8,29.6,120,29.6z M118.6,219.6c-44.8,0-81.4,36.4-81.5,81.2
			c-0.1,44.9,36.3,81.4,81.1,81.4c45.3,0,81.8-36.3,81.7-81.3C200,256.2,163.3,219.6,118.6,219.6z"/>
		<path d="M120,29.6c27.8,0,55.7,0,83.5,0c8.3,0,9.8,1.6,9.8,10c0,47.3,0,94.6,0,142c0,8-1.8,9.9-10,9.9c-21.3,0.1-42.7,0-64,0
			c-33.5,0-67,0-100.5,0c-2,0-4-0.1-6-0.3c-4.6-0.4-6.7-2.9-6.7-7.6c0.1-11.3,0-22.7,0-34c0-36.5,0-73,0-109.5
			c0-9.2,1.3-10.5,10.8-10.5C64.6,29.6,92.3,29.6,120,29.6z"/>
		<path d="M118.6,219.6c44.7,0,81.4,36.6,81.4,81.3c0.1,45-36.5,81.3-81.7,81.3c-44.8,0-81.2-36.5-81.1-81.4
			C37.3,256.1,73.8,219.7,118.6,219.6z M86,300.1c0,18.9,14.5,33.5,33.4,33.7c18.2,0.1,33.8-15.4,33.7-33.7
			c-0.1-18.4-15.6-33.6-34-33.4C100.5,266.9,86.1,281.5,86,300.1z"/>
		<path fill="#FFFFFF" d="M86,300.1c0-18.6,14.5-33.2,33-33.5c18.4-0.2,33.9,15,34,33.4c0.1,18.3-15.4,33.9-33.7,33.7
			C100.5,333.6,86,319,86,300.1z"/>
	</g>
</g>
</svg>
