<?xml version="1.0" encoding="utf-8"?>
<!-- Generator: Adobe Illustrator 18.1.1, SVG Export Plug-In . SVG Version: 6.00 Build 0)  -->
<!DOCTYPE svg PUBLIC "-//W3C//DTD SVG 1.1 Basic//EN" "http://www.w3.org/Graphics/SVG/1.1/DTD/svg11-basic.dtd">
<svg version="1.1" baseProfile="basic" id="Layer_1"
	 xmlns="http://www.w3.org/2000/svg" xmlns:xlink="http://www.w3.org/1999/xlink" x="0px" y="0px" viewBox="0 180 612 612"
	 xml:space="preserve">
<circle fill="#FFFFFF" cx="306" cy="486" r="306"/>
<path d="M325.2,706.1c-7.6,0-13.5,0-19.4,0c-1.3-6.6-1.8-13.3-3.7-19.4c-6.6-23.2-21.9-40.2-40.4-54.6
	c-32.6-25.1-70.4-38.7-110.1-47.8c-29.9-6.8-60.3-9.6-90.9-10.3c-1.5,0-3.1-0.4-5-0.6c0-6.1,0-12,0-19.2c12.9,0.6,25.8,0.7,38.7,1.8
	c37.2,2.8,73.6,10,108.8,22.5c1.8,0.7,5,0,6.6-1.3c55.5-40.6,118.8-62.1,185.3-75.2c9.4-1.8,18.8-3.3,28.6-5c0-7.7,0-15.3,0-23.8
	c-10.5,0-20.7,0-30.8,0c-7,0-14.2,0-21.2,0c-11.6,0-15.5-6.6-10.1-17c5.7-11.1,11.6-22.1,17.5-33.2c1.1-2.2,2.2-4.4,3.7-7.4
	c-2.6-0.2-4.4-0.4-6.5-0.6c-9.6-0.7-13.5-8.5-7.7-16.4c9-12.5,18.4-24.9,27.7-37.4c0.7-1.1,1.5-2.2,3-4.4c-4.1,0-7,0-10.1,0
	c-9.2-0.4-13.5-7.7-8.7-15.7c5.2-8.3,10.7-16.4,16.2-24.5c9.4-14,18.6-28.2,28-42.2c6.3-9.4,13.5-9.2,19.7,0.2
	c14.6,21.9,29.3,43.9,43.7,66.2c1.8,2.8,2.4,7.9,1.1,10.5c-1.5,2.8-5.9,4.2-9.2,5.3c-3,0.9-6.3,0.2-10.7,0.2
	c10.1,13.8,19.5,26.6,29.1,39.3c3,3.9,6.3,7.4,3.9,12.9c-2.4,5.7-7.4,6.3-12.5,6.1c-1.1,0-2.2,0.4-4.1,0.6
	c7.2,13.5,14,26.6,20.8,39.6c6.1,11.6,2.4,17.9-10.7,17.9c-17.1,0-34.3,0-51.8,0c0,7,0,13.6,0,20.7c25.4-1.5,50.9-2.8,76.7-4.2
	c0,7.2,0,13.3,0,19.9c-103.8,1.8-203.4,19.9-292.1,77.8c15.7,10.1,31.3,19,45.7,29.7c22.9,17,40.2,38.4,47.4,66.6
	C323.5,690.8,324.1,698.2,325.2,706.1z M462.4,337.9c-9.8-14.8-18.8-28.4-28.2-42.6c-9.4,14.2-18.4,27.8-28,42.6
	c4.8,0,8.1-0.6,11.1,0.2c3.5,0.9,8.1,2.4,9.4,5c1.5,3,0.7,8.3-1.1,11.2c-4.8,7.7-10.7,14.8-16,22.1c-4.6,6.1-9,12.4-13.6,18.8
	c12.9,3,15.9,7.7,11.1,17.5c-0.7,1.5-1.5,2.8-2.2,4.2c-6.5,12.2-12.9,24.5-19.5,37.1c33,0,65.1,0,97.9,0c-1.3-3-2.4-5.2-3.5-7.2
	c-6.1-11.6-12.5-23.2-18.6-35c-3.9-7.4-0.9-13.6,6.5-15.3c1.5-0.4,3.1-0.4,5.3-0.7c-2-2.8-3.5-5-5.2-7.2
	c-8.1-11.1-16.6-21.8-24.3-33c-2-3.1-3.5-8.7-2-11.6c1.5-3,6.6-4.4,10.3-5.5C454.6,337.2,457.8,337.9,462.4,337.9z"/>
</svg>
