<?xml version="1.0" encoding="utf-8"?>
<!-- Generator: Adobe Illustrator 18.1.0, SVG Export Plug-In . SVG Version: 6.00 Build 0)  -->
<!DOCTYPE svg PUBLIC "-//W3C//DTD SVG 1.1//EN" "http://www.w3.org/Graphics/SVG/1.1/DTD/svg11.dtd">
<svg version="1.1" id="Layer_1" xmlns="http://www.w3.org/2000/svg" xmlns:xlink="http://www.w3.org/1999/xlink" x="0px" y="0px"
	 viewBox="0 0 440.1 468.2" enable-background="new 0 0 440.1 468.2" xml:space="preserve">
<g id="_x32_MXgMy.tif">
	<g>
		<path fill="#FFFFFF" d="M440.1,468.2c-146.9,0-293.2,0-440.1,0c2.5-6.4,4.9-12.5,7.3-18.6C49.2,345.4,91.1,241.2,132.9,137
			c1.5-3.8,3.3-4.8,7.2-4.8c59,0.1,118,0.1,177,0c3.3,0,5.1,0.5,6.4,4.2c38.4,109.2,76.9,218.3,115.4,327.5
			C439.4,465.1,439.6,466.4,440.1,468.2z M193.9,437.1c17.8,0,34.9,0,52,0c0.1-0.6,0.3-0.9,0.3-1.2c-4.4-24.9-8.8-49.7-13.4-74.6
			c-0.2-1.1-2.4-2.6-3.7-2.7c-5.1-0.3-10.3,0-15.5-0.2c-3.1-0.1-3.9,1.3-4.4,4c-2.4,12.4-5.1,24.7-7.6,37.1
			C199,411.8,196.5,424.2,193.9,437.1z M212.1,244.7c-4.2,20.5-8.4,40.9-12.6,61.5c14.1,0,27.5,0,41.3,0c-3.7-20.7-7.4-41-11.1-61.5
			C223.8,244.7,218.4,244.7,212.1,244.7z M236.6,203.1c-3-16.5-5.9-32.6-8.8-48.9c-4,0-7.5-0.3-10.9,0.2c-1.4,0.2-3.2,1.9-3.6,3.3
			c-1.9,7.6-3.4,15.2-5,22.8c-1.5,7.4-2.9,14.9-4.5,22.6C214.8,203.1,225.2,203.1,236.6,203.1z"/>
		<path d="M209.8,235.8c8.1,0,15.1,0,22.7,0c4.7,26.4,9.5,52.6,14.3,79.2c-17.8,0-35,0-53.2,0C199,288.5,204.4,262.2,209.8,235.8z"
			/>
	</g>
</g>
<g id="_x34_g8dlu.tif">
	<g>
		<path fill="#FFFFFF" d="M416.8,64.2c-0.1,35.5-28.9,64.1-64.4,64c-35.3-0.1-63.9-28.9-63.8-64.5c0.1-35.3,29-63.9,64.5-63.8
			C388.2,0.1,416.8,29,416.8,64.2z M352.8,12.1c-28.6,0-52.2,23.2-52.2,51.5c0,29.3,23,52.7,51.9,52.7c28.9,0,52.2-23.2,52.2-52.1
			C404.7,35.4,381.4,12.1,352.8,12.1z"/>
		<path fill="#FFFFFF" d="M312.6,64c0-22.2,18.1-40,40.5-39.9c21.8,0,39.7,18.2,39.7,40.1c0,22.2-18,40.1-40.1,40.1
			C330.4,104.2,312.5,86.2,312.6,64z M380.6,64.2c0-15.5-12.4-28-27.8-28c-15.6,0-28.2,12.4-28.2,27.8c0,15.6,12.4,28.2,27.8,28.2
			C368.1,92.2,380.6,79.8,380.6,64.2z"/>
		<path fill="#FFFFFF" d="M352.7,80.1c-9,0-16-7-16-16c0-9,7.1-16,16-16c9,0,16,7.1,16,16.1C368.6,73.1,361.6,80.1,352.7,80.1z"/>
	</g>
</g>
<path d="M208.4,348.4c9.6,0,18,0,27.1,0c5.7,31.4,11.3,62.6,17,94.4c-21.2,0-41.7,0-63.4,0C195.5,411.2,201.9,379.9,208.4,348.4z"/>
<path d="M212.9,151.5c6.1,0,11.3,0,17.1,0c3.6,19.8,7.1,39.5,10.7,59.5c-13.3,0-26.3,0-40,0C204.8,191.1,208.9,171.4,212.9,151.5z"
	/>
</svg>
