<?xml version="1.0" encoding="utf-8"?>
<!-- Generator: Adobe Illustrator 18.1.0, SVG Export Plug-In . SVG Version: 6.00 Build 0)  -->
<!DOCTYPE svg PUBLIC "-//W3C//DTD SVG 1.1//EN" "http://www.w3.org/Graphics/SVG/1.1/DTD/svg11.dtd">
<svg version="1.1" id="Layer_1" xmlns="http://www.w3.org/2000/svg" xmlns:xlink="http://www.w3.org/1999/xlink" x="0px" y="0px"
	 viewBox="0 0 650.4 650.4" enable-background="new 0 0 650.4 650.4" xml:space="preserve">
<circle fill="#FFFFFF" cx="325.2" cy="325.2" r="325.2"/>
<g id="KKSuJG.tif">
	<g>
		<path d="M111.4,325.3c-0.1-69,49.1-127.9,117.2-140.2c32.6-5.9,63.5-0.9,92.7,14.7c2.9,1.5,5,1.4,7.8-0.1
			c82.1-44.2,184.8,2,206.1,92.8c18.3,78.3-31.6,156.6-110.6,172.4c-32.9,6.6-64.6,2.2-94.4-13.6c-3.6-1.9-6.4-2-10-0.1
			c-54.4,29-123,18.8-166.5-24.6C126.5,399.4,111.5,363.5,111.4,325.3z M360.2,420.3c43.3,17.6,94,2,121.1-36.6
			c27.1-38.7,23.8-91.8-7.8-126.9c-32.6-36.2-82.1-40.5-113.1-26.5c23.5,27.3,36,58.8,35.9,94.9C396.3,361.1,384,392.7,360.2,420.3z
			 M290.5,229.7c-31.7-13.5-81.2-8.7-112.7,28.2c-32.7,38.3-33.8,91.9-3.3,130.5c31,39.2,81.3,46.4,116.1,32.2
			c-24.1-27.2-36.4-59-36.6-95.2C253.8,289,266.5,257.2,290.5,229.7z M326.1,398.2c42.2-39.8,40.6-108.6,0.1-145.9
			C286.7,288,282.8,357.1,326.1,398.2z"/>
	</g>
</g>
</svg>
