<?xml version="1.0" encoding="utf-8"?>
<!-- Generator: Adobe Illustrator 18.1.1, SVG Export Plug-In . SVG Version: 6.00 Build 0)  -->
<!DOCTYPE svg PUBLIC "-//W3C//DTD SVG 1.1 Basic//EN" "http://www.w3.org/Graphics/SVG/1.1/DTD/svg11-basic.dtd">
<svg version="1.1" baseProfile="basic" id="Layer_1"
	 xmlns="http://www.w3.org/2000/svg" xmlns:xlink="http://www.w3.org/1999/xlink" x="0px" y="0px" viewBox="0 0 34.8 67.5"
	 xml:space="preserve">
<path fill="#FFFFFF" d="M5,11v51.3h24.9V11H5z M11.7,0h11.5c2.4,0,4.3,2,4.3,4.4v1.3c0,0,0,0.1,0,0.1h4.9c1.4,0,2.5,1.2,2.5,2.6
	v56.5c0,1.4-1.1,2.6-2.5,2.6H2.5c-1.4,0-2.5-1.2-2.5-2.6V8.4C0,7,1.1,5.9,2.5,5.9h4.9c0,0,0-0.1,0-0.1V4.4C7.4,2,9.3,0,11.7,0z
	 M27.1,35.7v23.6H7.7V35.7H27.1z"/>
</svg>
