<?xml version="1.0" encoding="utf-8"?>
<!-- Generator: Adobe Illustrator 18.1.1, SVG Export Plug-In . SVG Version: 6.00 Build 0)  -->
<!DOCTYPE svg PUBLIC "-//W3C//DTD SVG 1.1//EN" "http://www.w3.org/Graphics/SVG/1.1/DTD/svg11.dtd">
<svg version="1.1" id="Layer_1" xmlns="http://www.w3.org/2000/svg" xmlns:xlink="http://www.w3.org/1999/xlink" x="0px" y="0px"
	 viewBox="52.3 3.6 151 140.5" enable-background="new 52.3 3.6 151 140.5" xml:space="preserve">
<g>
	<g>
		<path fill="#FFFFFF" d="M82.6,61c-3.8,4.2-6.3,8.8-8.3,13.7c-0.8,1.9-1.4,3.9-2.1,6c-1.7,4.6-5.9,6.8-10.2,5.4
			c-4.3-1.6-6.5-5.8-5-10.4c4.6-14.4,12.3-26.5,24.9-35.1c4.7-3.2,9.3-2.3,12.4,2.3c5.8,8.8,13,16.1,22.7,20.6
			c4.3,2,5.9,6.8,3.9,10.8s-6.8,5.8-11.1,3.9c-1.8-0.8-3.7-1.8-5.4-2.7c-1.7-1-3.3-2.1-5.2-3.3c-0.3,3.2-0.4,6.1-0.8,9.1
			C97,93.7,92.3,105,86,115.7c-5.4,9-11.8,17.2-19,24.8c-4.3,4.5-9.7,4.7-13,0.4c-2.6-3.3-2-7.5,1.1-11.1c5.3-6.2,10.5-12.4,15.2-19
			c6.4-9.2,11.2-19.2,12.5-30.4c0.7-6,0.2-12,0.3-18C82.9,62,82.7,61.6,82.6,61z"/>
		<path fill="#FFFFFF" d="M102.8,86.7c1.1,2.1,2.4,4.6,3.7,7.1c6.6,12.9,13.2,25.8,19.7,38.7c1.2,2.4,1.4,4.7,0.3,7.1
			c-1.2,2.6-3.4,4-6.4,4.1c-3.2,0.1-5.6-1.4-7-4.1c-3.1-5.9-6.1-11.8-9.1-17.8c-2.5-4.7-4.9-9.6-7.3-14.3c-0.4-0.6-0.5-1.6-0.4-2.2
			C98.4,99,100.6,92.8,102.8,86.7z"/>
		<path fill="#FFFFFF" d="M87.1,35.6c-6.9,0-12.5-5.4-12.5-12.3s5.6-12.6,12.5-12.5c6.8,0,12.4,5.6,12.3,12.5
			C99.3,30.1,93.9,35.5,87.1,35.6z"/>
	</g>
	<g>
		<g>
			<path fill="none" stroke="#FFFFFF" stroke-width="5" stroke-linecap="round" stroke-miterlimit="10" d="M148,136.5
				c0,0,3.4-0.6,8.6-1.9"/>
			
				<path fill="none" stroke="#FFFFFF" stroke-width="5" stroke-linecap="round" stroke-miterlimit="10" stroke-dasharray="20.5682,20.5682" d="
				M173.8,129.3c23.4-9,45.6-26.3-18.4-51.9c-34.5-13.8-20.3-22-5.3-26.2"/>
			<path fill="none" stroke="#FFFFFF" stroke-width="5" stroke-linecap="round" stroke-miterlimit="10" d="M158.9,49.1
				c4.9-1,8.7-1.4,8.7-1.4"/>
		</g>
	</g>
	<g>
		<g>
			<path fill="none" stroke="#FFFFFF" stroke-width="5" stroke-linecap="round" stroke-miterlimit="10" d="M156.6,134.6"/>
			<path fill="none" stroke="#FFFFFF" stroke-width="5" stroke-linecap="round" stroke-miterlimit="10" d="M148,136.5"/>
			<path fill="none" stroke="#FFFFFF" stroke-width="5" stroke-linecap="round" stroke-miterlimit="10" d="M167.6,47.6"/>
			<path fill="none" stroke="#FFFFFF" stroke-width="5" stroke-linecap="round" stroke-miterlimit="10" d="M158.9,49.1"/>
		</g>
	</g>
</g>
<g id="RdzH6Y.tif">
	<g>
		<path fill="#FFFFFF" d="M176.4,5.4c0.8-0.1,1.6-0.2,2.4-0.2c2.4,0,4.6,0.7,6.7,1.8c1.5,0.8,2.9,1.7,4.3,2.5
			c4.5,2.3,8.9,2.2,13.2-0.7c0.1,0,0.1-0.1,0.2-0.1c0,0.2,0,0.3,0,0.5c0,6.2,0,12.4,0,18.7c0,0.3-0.1,0.5-0.4,0.7
			c-3.9,2.6-7.9,2.9-12.1,1c-1.6-0.7-3-1.7-4.6-2.5c-2.1-1.1-4.3-2-6.7-2.2c-0.9,0-1.8,0.1-2.6,0.2c-0.4,0-0.5,0.3-0.5,0.7
			c0,7.4,0,14.7,0,22.1c0,0.2,0,0.3,0,0.5c0,0.5-0.3,0.8-0.8,0.8s-0.8-0.3-0.9-0.7c0-0.2,0-0.3,0-0.5c0-14.4,0-28.7,0-43.1
			c0-0.2,0-0.3,0-0.5c0.1-0.4,0.4-0.7,0.9-0.7c0.4,0,0.8,0.3,0.8,0.8C176.4,4.7,176.4,5,176.4,5.4z"/>
	</g>
</g>
</svg>
