<?xml version="1.0" encoding="utf-8"?>
<!-- Generator: Adobe Illustrator 18.1.0, SVG Export Plug-In . SVG Version: 6.00 Build 0)  -->
<!DOCTYPE svg PUBLIC "-//W3C//DTD SVG 1.1//EN" "http://www.w3.org/Graphics/SVG/1.1/DTD/svg11.dtd">
<svg version="1.1" id="Layer_1" xmlns="http://www.w3.org/2000/svg" xmlns:xlink="http://www.w3.org/1999/xlink" x="0px" y="0px"
	 viewBox="0 0 149.5 199.9" enable-background="new 0 0 149.5 199.9" xml:space="preserve">
<g id="qlJwqn.tif">
	<g>
		<path fill="#FFFFFF" d="M100.5,89.5C100.4,67.4,82.8,47.6,60.6,45c-25-3-46.7,13.1-51.2,38C9,85.3,9,87.7,8.8,90
			c-0.2,3.1-1.9,4.8-4.6,4.7c-2.5-0.1-4.3-2.1-4.2-4.9C0.3,77.2,4.2,65.8,12.2,56c11-13.3,25.3-20.1,42.5-20.3
			c24.3-0.2,46.1,16.6,52.6,39.9c3.9,13.9,1.9,27.3-3.5,40.2c-3.5,8.4-8.2,16.3-12.8,24.2c-5.9,10.1-10,20.6-9.2,32.6
			c0.2,3.2,0.8,6.5,0.4,9.6c-1.2,8.1-5.9,13.7-13.6,16.4c-7.6,2.7-14.6,1.2-20.7-4.1c-2.5-2.2-2.8-4.7-1-6.8c1.8-2.1,4.2-2,6.8,0.1
			c7.4,6.1,17.8,2.8,19.7-6.4c0.4-2,0-4.3-0.2-6.4c-1.3-13.2,2.1-25.4,8.7-36.8c4.3-7.5,8.8-14.9,12.6-22.7
			C98.5,107.5,100.1,98.6,100.5,89.5z"/>
		<path fill="#FFFFFF" d="M15.2,92.7c0.5-18.5,15.6-35,34.2-37.2c21.3-2.6,39.9,10.8,44.2,31.8c0.5,2.3,0.6,4.6,0.7,6.9
			c0.1,2.7-1.6,4.6-4,4.8c-2.5,0.2-4.3-1.4-4.7-4.1c-0.4-2.5-0.3-5-0.9-7.4c-3.7-15.1-17.2-24.6-33-23.4
			C37.3,65.1,25.4,77.4,24,92.2c-0.1,0.9-0.1,1.8-0.2,2.7c-0.3,2.6-2,4.2-4.4,4.1c-2.5-0.1-4.1-1.8-4.2-4.6
			C15.2,93.9,15.2,93.3,15.2,92.7z"/>
		<path fill="#FFFFFF" d="M149.5,65.5c-3,0.8-5.7,1.5-8.3,2.2C130.8,35.9,109.5,16.2,77,8.4C77.5,5.7,78,3,78.5,0
			C92,2.5,104.1,7.8,115,15.7C132.1,28.3,143.5,44.8,149.5,65.5z"/>
		<path fill="#FFFFFF" d="M131.5,71.8c-2.8,0.7-5.4,1.4-8.2,2.1c-7.8-25.7-24.8-41.4-51.4-47.3c0.4-2.7,0.9-5.6,1.4-8.4
			C101.2,22.2,125.3,44.8,131.5,71.8z"/>
		<path fill="#FFFFFF" d="M46.2,137.9c-0.9,5.1-1.8,10.1-2.6,15.2c-0.2,1.3-0.4,2.6-0.5,4c-0.1,1.6,0.3,2.9,2.1,3.6
			c1.5,0.6,2.2,2,1.3,3.2c-0.6,0.8-2.3,1.4-3.3,1.2c-2.9-0.7-4.9-2.8-4.9-5.9c0.1-3.9,0.8-7.7,1.2-11.6c0.4-4.7,1.3-9.4,0.8-14.1
			c-0.7-7.3-6-11.5-12.1-14.8c-0.8-0.4-1.9-0.6-2.4-1.3c-0.6-0.8-1.4-2.3-1.1-3c0.3-0.8,2.2-1.6,2.9-1.3c8.6,3.5,15.4,8.9,17.5,18.5
			c0.2,0.9,0.4,1.8,0.5,2.7c0.1,1.2,0,2.3,0,3.5C45.9,137.9,46,137.9,46.2,137.9z"/>
	</g>
</g>
</svg>
