<?xml version="1.0" encoding="utf-8"?>
<!-- Generator: Adobe Illustrator 18.1.1, SVG Export Plug-In . SVG Version: 6.00 Build 0)  -->
<!DOCTYPE svg PUBLIC "-//W3C//DTD SVG 1.1//EN" "http://www.w3.org/Graphics/SVG/1.1/DTD/svg11.dtd">
<svg version="1.1" id="Layer_1" xmlns="http://www.w3.org/2000/svg" xmlns:xlink="http://www.w3.org/1999/xlink" x="0px" y="0px"
	 viewBox="0 0 15.1 29.5" enable-background="new 0 0 15.1 29.5" xml:space="preserve">
<g>
	<g>
		<path fill="#FFFFFF" d="M7.6,28.8c-3.8,0-6.9-3.1-6.9-6.9S3.8,15,7.6,15s6.9,3.1,6.9,6.9S11.3,28.8,7.6,28.8z M7.6,14.3
			c-4.2,0-7.6,3.4-7.6,7.6s3.4,7.6,7.6,7.6s7.6-3.4,7.6-7.6S11.7,14.3,7.6,14.3z"/>
		<path fill="#FFFFFF" d="M11.4,23.6H9.3v2.1H5.8v-2.1H3.7v-3.5h2.1v-2.1h3.5v2.1h2.1V23.6z M7.6,15.8c-3.3,0-6.1,2.7-6.1,6.1
			S4.2,28,7.6,28c3.3,0,6.1-2.7,6.1-6.1S10.9,15.8,7.6,15.8z"/>
		<rect x="6.9" y="0" fill="#FFFFFF" width="1.2" height="3.1"/>
		
			<rect x="12" y="6.3" transform="matrix(-0.9802 0.1981 -0.1981 -0.9802 28.094 10.9356)" fill="#FFFFFF" width="3.1" height="1.2"/>
		
			<rect x="11.2" y="1.8" transform="matrix(0.7075 0.7067 -0.7067 0.7075 5.7775 -7.3342)" fill="#FFFFFF" width="1.2" height="3.1"/>
		
			<rect x="0.1" y="6.3" transform="matrix(0.9802 0.1981 -0.1981 0.9802 1.3932 -0.1839)" fill="#FFFFFF" width="3.1" height="1.2"/>
		<path fill="#FFFFFF" d="M7.6,10.7V4.9h1.1c0.6,0,1.1,0.4,1.2,0.8l0.8,4.4c0,0,0,0.1,0,0.6L7.6,10.7L7.6,10.7z M11.5,10.8l-1-5.6
			c-0.1-0.6-0.8-1.1-1.5-1.1H6.5c-0.7,0-1.4,0.5-1.5,1.1l-1,5.6c0,0,0,0.1,0,0.6H2.6v1.3h10.3v-1.3h-1.4
			C11.5,10.8,11.5,10.8,11.5,10.8z"/>
		
			<rect x="1.8" y="2.7" transform="matrix(0.7071 0.7071 -0.7071 0.7071 3.3285 -1.4098)" fill="#FFFFFF" width="3.1" height="1.2"/>
	</g>
</g>
</svg>
