<?xml version="1.0" encoding="utf-8"?>
<!-- Generator: Adobe Illustrator 18.1.0, SVG Export Plug-In . SVG Version: 6.00 Build 0)  -->
<!DOCTYPE svg PUBLIC "-//W3C//DTD SVG 1.1//EN" "http://www.w3.org/Graphics/SVG/1.1/DTD/svg11.dtd">
<svg version="1.1" id="Layer_1" xmlns="http://www.w3.org/2000/svg" xmlns:xlink="http://www.w3.org/1999/xlink" x="0px" y="0px"
	 viewBox="-180 218.9 792 354.1" enable-background="new -180 218.9 792 354.1" xml:space="preserve">
<g id="gdUtxf.tif">
	<g>
		<path fill="#58C1E2" d="M612,397.9c-0.7,62.8-23.1,119.9-68.1,168c-0.9,1-1.7,1.9-2.7,2.7c-5.5,5.4-11.4,5.8-15.8,1.2
			c-4.4-4.5-3.7-10.3,1.4-16c5.6-6,11.1-12,16.2-18.5c27.3-34.8,43.4-74.1,47.2-118.1c5.7-65.4-13.4-122.7-56.6-172
			c-2.1-2.3-4.3-4.5-6.3-6.8c-5.7-5.9-6.3-11.7-1.7-16.3c4.7-4.8,11-4.5,16.5,2.1c11,13.2,22.6,26.2,32,40.7
			C599.4,304.4,611.5,348.1,612,397.9z"/>
		<path fill="#58C1E2" d="M-180,396.1c0.9-64.3,22.2-120.4,66.2-167.8c1.3-1.4,2.6-3.1,4-4.5c5.7-5.7,11.6-6.2,16.2-1.5
			c4.5,4.5,3.6,10.1-1.3,16c-9.8,11.8-20.3,23.4-28.9,36.2c-24.8,37.6-36.4,79.3-35.7,124.4c1,60,22.6,111.5,63.9,154.9
			c2.6,2.7,4.7,7.4,4.3,10.9c-0.3,2.8-4.2,6.9-7.1,7.5c-3.2,0.7-8.4-0.8-10.5-3.3c-11.8-14-24.2-27.9-34.1-43.2
			c-21.7-33.4-33.4-70.6-36.3-110.5c-0.2-2.4-0.7-4.7-0.8-7C-180.1,404.1-180,400.1-180,396.1z"/>
		<path fill="#58C1E2" d="M-118.8,396.5c1-50.4,18.1-93.3,52.6-129.3c3.3-3.4,7.1-6.1,11.5-4c3.1,1.4,6.3,4.8,7,8
			c0.7,2.8-1.1,7.2-3.3,9.5c-15.7,17-29,35.7-36.5,57.7c-21.3,62-10.7,118,32,167.8c1.7,2.1,3.7,3.9,5.5,6
			c3.9,4.6,3.8,10.3-0.1,14.2c-4,4-10.2,4.2-14.6-0.2c-14.2-14-25.7-30.2-34.6-48C-112.5,452.2-118.4,424.6-118.8,396.5z"/>
		<path fill="#58C1E2" d="M550.6,398.8c-0.9,46.7-17.7,89.5-51.9,125.5c-3,3.2-6.3,6.4-10.7,4.9c-3.1-1-6.2-3.5-8.1-6.3
			c-2.4-3.7-0.5-7.5,2.2-10.9c8.9-11.5,18.9-22.3,26.2-34.8c36.2-61.4,26.6-141.1-22.5-192.9c-1.1-1.2-2.2-2.4-3.3-3.7
			c-4.6-5.2-4.7-10.8-0.3-15c4.4-4.3,10.8-4.2,15.3,1.3c9,10.7,18.3,21.3,25.8,33C541.8,329.1,550.1,361.5,550.6,398.8z"/>
		<path fill="#58C1E2" d="M-57.2,395.7c0.4-33.1,12.1-61.6,35-85.7c4.7-4.9,11.3-5.1,15.5-0.9c4,4,3.9,10.3-0.7,15.1
			c-18.1,18.9-28.2,41.4-29.2,67.4c-1.1,27.6,7.9,52.1,26.3,73c1.1,1.2,2.3,2.3,3.4,3.6c4.2,4.8,4,11.3-0.3,15.1
			c-4.2,3.7-10.5,3.3-14.8-1.1c-10.3-10.7-18.7-22.7-24.7-36.3C-53.7,430-57.2,413.2-57.2,395.7z"/>
		<path fill="#58C1E2" d="M489.1,395.7c-1.5,36-13,62.9-34.5,85.7c-5,5.2-11.3,6.1-15.7,1.9c-4.3-4-4.3-10.5,0.7-15.5
			c18.4-19.2,28.3-42.2,29.1-68.6c0.8-27.3-8.3-51.4-26.6-71.8c-1.2-1.3-2.6-2.6-3.7-4c-3.6-4.5-3.4-10.6,0.5-14.3
			c3.9-3.7,10.3-3.9,14.2,0.3c5.2,5.6,10.3,11.4,14.6,17.6C482.8,349,489.6,373.7,489.1,395.7z"/>
	</g>
</g>
</svg>
