<?xml version="1.0" encoding="utf-8"?>
<!-- Generator: Adobe Illustrator 18.1.0, SVG Export Plug-In . SVG Version: 6.00 Build 0)  -->
<!DOCTYPE svg PUBLIC "-//W3C//DTD SVG 1.1//EN" "http://www.w3.org/Graphics/SVG/1.1/DTD/svg11.dtd">
<svg version="1.1" id="Layer_1" xmlns="http://www.w3.org/2000/svg" xmlns:xlink="http://www.w3.org/1999/xlink" x="0px" y="0px"
	 viewBox="0 0 350 350" enable-background="new 0 0 350 350" xml:space="preserve">
<g id="X3peSN.tif">
	<g>
		<path fill="#FFFFFF" d="M174.8,350C78.4,350.1,0.1,271.7,0,174.9C-0.1,78.6,78.4,0.1,174.7,0C271.4-0.1,350.1,78.3,350,174.7
			C350,271.8,271.9,349.9,174.8,350z M149.6,92.7c-28-0.2-55.5,2.7-82.4,10.4c-9.4,2.7-14.8,11.2-12.7,19.7
			c2.4,9.4,11.1,14.8,20.8,12c30.2-8.4,60.8-10.9,92-9c39.1,2.4,76.8,9.6,111.4,29.2c8.1,4.6,17.8,1.9,22.3-5.6
			c4.7-7.8,2.3-17.5-5.8-22.6c-3.9-2.5-8.1-4.7-12.3-6.7C240.7,100,195.8,93,149.6,92.7z M145.7,152.8c-23.3-0.3-46.1,2.9-68.5,9.3
			c-8.7,2.5-13.1,9.9-10.7,17.4c2.4,7.6,9.7,11.3,18,8.9c41.4-11.7,82.8-10.9,124.2,0c17.3,4.6,33.6,11.5,49.1,20.5
			c9.2,5.3,19.1,0.6,20.9-9.7c1-5.8-2.1-11-9.2-15.1C231.1,162.2,189.5,153.2,145.7,152.8z M147.3,231.7
			c32.8-0.1,63.7,6.8,92.1,23.7c2.3,1.4,5.4,2.1,8,1.9c5-0.3,8.2-3.6,9.2-8.4c1.1-5.2-1-9.6-5.6-11.7c-13.3-6.3-26.5-13.2-40.4-18
			c-29.3-9.9-59.8-11-90.3-7.8c-12.4,1.3-24.7,3.6-36.9,6.1c-9.5,1.9-13.3,10.6-8,17.5c3.7,4.8,8.7,4.8,14,3.6
			C108.4,234.1,127.7,231.7,147.3,231.7z"/>
		<path d="M149.6,92.7c46.2,0.3,91.1,7.3,133.2,27.6c4.2,2,8.3,4.2,12.3,6.7c8.1,5.1,10.5,14.8,5.8,22.6
			c-4.5,7.5-14.2,10.2-22.3,5.6c-34.6-19.6-72.3-26.9-111.4-29.2c-31.2-1.9-61.8,0.6-92,9c-9.7,2.7-18.4-2.7-20.8-12
			c-2.1-8.4,3.3-17,12.7-19.7C94.1,95.4,121.6,92.5,149.6,92.7z"/>
		<path d="M145.7,152.8c43.8,0.3,85.4,9.4,123.8,31.4c7.1,4.1,10.2,9.3,9.2,15.1c-1.8,10.2-11.7,15-20.9,9.7
			c-15.5-8.9-31.8-15.9-49.1-20.5c-41.4-10.9-82.8-11.7-124.2,0c-8.3,2.3-15.6-1.3-18-8.9c-2.4-7.6,2-15,10.7-17.4
			C99.5,155.8,122.4,152.6,145.7,152.8z"/>
		<path d="M147.3,231.7c-19.6,0-38.8,2.4-57.9,6.8c-5.3,1.2-10.3,1.3-14-3.6c-5.2-6.9-1.5-15.6,8-17.5c12.2-2.4,24.5-4.7,36.9-6.1
			c30.6-3.3,61-2.2,90.3,7.8c13.9,4.7,27.1,11.7,40.4,18c4.6,2.2,6.7,6.6,5.6,11.7c-1,4.8-4.2,8.2-9.2,8.4c-2.6,0.1-5.7-0.6-8-1.9
			C211,238.4,180,231.6,147.3,231.7z"/>
	</g>
</g>
</svg>
