<?xml version="1.0" encoding="utf-8"?>
<!-- Generator: Adobe Illustrator 18.1.1, SVG Export Plug-In . SVG Version: 6.00 Build 0)  -->
<!DOCTYPE svg PUBLIC "-//W3C//DTD SVG 1.1 Basic//EN" "http://www.w3.org/Graphics/SVG/1.1/DTD/svg11-basic.dtd">
<svg version="1.1" baseProfile="basic" id="Layer_1"
	 xmlns="http://www.w3.org/2000/svg" xmlns:xlink="http://www.w3.org/1999/xlink" x="0px" y="0px" viewBox="0 29.1 612 733.9"
	 xml:space="preserve">
<g id="wDV64O.tif">
	<g>
		<path fill="#59C1E2" d="M3.3,29.6c20.8,0,39.9,0,58.8,0c99.5,0.2,199.1-1.7,298.6,1c134.2,3.7,229.2,85,247.9,206.8
			c19.9,129.9-46.8,239.6-174.3,276c-47,13.5-97.9,14.5-147.3,18.3c-35.7,2.7-71.9,0.6-111.6,0.6c0,45.5-0.8,86.9,0.6,128.4
			c0.2,7.7,7.3,16.2,13.1,22.6c26.4,30.1,27.4,32.4,22,79.8c-68.8,0-137.8,0-208,0c-6.4-30.6-4.4-55.9,19.7-78.6
			c10-9.4,16.4-27.4,16.6-41.4c1.2-164,1.2-328.1,0.2-492.1c0-13.1-6-29.9-15-38.7C1.3,89.7-4,64.7,3.3,29.6z M175,156.6
			c0,77.5-0.6,154.2,1,230.7c0.2,7.3,14.3,20.2,22,20.2c53,0.4,106.2,1.3,158.8-3.9c70.9-6.9,115.8-56.9,117-122
			c1.2-66.3-41.1-116.8-113.9-123.7C299.9,152,238.8,156.6,175,156.6z"/>
	</g>
</g>
</svg>
