<?xml version="1.0" encoding="utf-8"?>
<!-- Generator: Adobe Illustrator 15.0.0, SVG Export Plug-In . SVG Version: 6.00 Build 0)  -->
<!DOCTYPE svg PUBLIC "-//W3C//DTD SVG 1.1//EN" "http://www.w3.org/Graphics/SVG/1.1/DTD/svg11.dtd">
<svg version="1.1" id="Layer_1" xmlns="http://www.w3.org/2000/svg" xmlns:xlink="http://www.w3.org/1999/xlink" x="0px" y="0px"
	 width="595.279px" height="841.891px" viewBox="0 0 595.279 841.891" enable-background="new 0 0 595.279 841.891"
	 xml:space="preserve">
<rect x="-26.86" y="114.445" display="none" width="672" height="595"/>
<circle fill="none" stroke="#FFFFFF" stroke-width="13" stroke-miterlimit="10" cx="297.64" cy="420.945" r="278.894"/>
<g id="XMLID_2_" display="none">
	<g display="inline">
		<path fill="#FFFFFF" d="M533.3,366.445c-4.311-0.41-8.49-2.17-12.95-3.33c-12.89-3.36-27.76-5.85-43.65-7.03
			c-21.159-1.57-43.069,1.02-61.39,5.55c-35.97,8.89-64.14,27.27-84.71,50.3c-0.06,0.3-0.37,0.37-0.36,0.74
			c-0.54-0.16,0.03-0.32,0-0.74c15.811-32.11,44.44-55.66,83.221-65.83C457.83,334.455,506.31,347.055,533.3,366.445z"/>
		<path fill="#FFFFFF" d="M533.67,435.235c-4.34,13.34-13.5,22.84-23.311,30.7c-9.95,7.979-22.42,14.02-37.35,16.649
			c19.92-9.67,36.189-22.989,45.86-42.909c-12.921-9.271-28.82-15.561-48.82-17.75c1.1,4.689,3.35,11.439,2.59,19.229
			c-1.3-1.77-1.25-4-1.85-5.92c-1.641-5.16-4.53-10.32-8.141-14.05c-4.93,0-9.859,0-14.8,0c-0.17,1.16,0.93,1.04,1.48,1.479
			c-4.48,1.23-7.921,4.32-7.391,9.25c0.59,5.58,8.8,9.61,13.681,4.061c0.92-0.5,1.079-3.08,2.22-2.21
			c3.74,16.71-6.25,29.75-21.08,29.96c-19.28,0.26-29.98-22.391-17.39-37.73c-4.48,0.94-8.36,2.48-12.57,3.7
			c-9.19,25.97,13.109,49.74,39.21,42.9c13.86-3.631,23.34-15.16,25.89-30.33c1.23,2.38,0.91,4.91,0.74,7.399
			c-1.41,19.63-18.86,34.141-36.62,35.511c-28.07,2.159-48.77-20.25-46.6-47.721c-10.811,4.91-21.23,11.99-29.96,19.61
			c-0.53,0.46-1.24,1.37-1.851,1.85c0.07-0.06-1.279,1.75-1.479,0.37c20.92-28.5,52.04-51.04,99.859-53.26
			C490.17,404.436,515.25,417.945,533.67,435.235z"/>
		<path fill="#FFFFFF" d="M265.88,411.945c0.12,0.12,0.25,0.24,0.37,0.36C266.02,412.285,265.82,412.255,265.88,411.945z"/>
		<path fill="#FFFFFF" d="M265.88,411.936c-10.76-10.49-22.02-21.66-36.25-30.33c-26.84-16.35-65.24-28.33-109.11-25.52
			c-21,1.35-40.62,4.63-56.96,10.73c-1.57,0.06-0.01-0.58,0.37-0.74c14.13-10.29,32.08-17.22,52.89-21.45
			c21.04-4.29,45.69-3.43,66.21,1.85C221.93,356.475,249.98,380.005,265.88,411.936z"/>
		<path fill="#FFFFFF" d="M239.99,460.025c-9.74-8.76-20.49-16.5-32.92-22.57c1.15,26.84-18.05,49.76-46.61,47.721
			c-8.94-0.641-17.44-4.23-23.67-9.62c-8.11-7.011-14.18-17.591-13.31-33.66c3.65,16.5,16.11,32.859,36.98,31.81
			c20.34-1.02,37.04-21.08,28.85-44.01c-3.06-0.82-5.75-1.99-9.24-2.96c-2.77-0.771-7.41-2.79-9.99-2.22
			c-6.41,1.42-4.43,15.81,5.92,14.05c2.65-0.45,2.96-1.91,5.55-3.7c3.63,15.98-7.68,28.69-21.46,28.86
			c-13.23,0.149-22.91-10.57-22.93-22.57c-0.01-8.81,4.66-14.91,11.1-19.6c-4.83,0.199-10.61-1.581-14.43-0.37
			c-2.79,0.88-4.9,6.029-6.28,8.88c-1.84,3.77-3.17,7.67-3.7,11.09c-1.32-7.11,0.54-14.25,2.59-19.229
			c-20.29,1.899-35.72,8.659-49.2,17.38c9.32,20.149,25.52,33.42,45.5,42.909c-7.26-0.729-14.25-3.109-20.35-5.92
			c-17.77-8.21-32.47-21.779-39.94-40.68c16.88-17.26,39.16-28.15,70.27-29.59c25.72-1.2,48.52,6.57,65.1,15.9
			C216,432.155,230.8,444.665,239.99,460.025z"/>
	</g>
	<g display="inline">
	</g>
</g>
<path fill="#FFFFFF" stroke="#1A171B" stroke-width="0.5" stroke-linecap="round" stroke-linejoin="round" d="M485.57,321.557
	c-13.571-10.137-27.548-19.867-37.293-33.708c-14.173-0.889-21.991,4.383-29.823,9.639c-22.593-23-58.831-43.875-101.924-48.152
	c-59.645-5.919-111.428,19.581-144.188,45.743c-5.679-5.723-15.122-7.817-27.337-7.229c-9.716,11.461-17.517,24.777-34.808,28.889
	c2.982,27.157-2.215,49.689-9.941,72.222c6.718,15.107,16.297,22.247,19.881,36.12c1.507,5.798-0.602,14.233,0,19.249
	c3.796,31.84,18.256,61.331,34.808,81.845c30.578,37.927,89.319,73.368,166.555,65.008c81.245-8.811,144.762-73.216,151.645-166.102
	c8.584-10.153,14.068-23.287,19.881-36.12C489.545,366.412,480.449,345.611,485.57,321.557z M396.073,364.89
	c-5.213,15.771-23.754,2.485-22.368-9.624C381.537,342.825,401.372,358.263,396.073,364.89z M388.616,314.341
	c-59.707,6.116-11.477,60.104,0,74.617c-14.34,2.968-27.067,7.486-42.265,9.64c-7.546-9.64-18-22.683-34.793-26.494
	c-28.979-6.552-49.644,8.932-62.145,26.494c-16.976-1.22-29.448-6.793-44.75-9.64c13.3-17.697,61.754-74.963,0-72.222
	C242.004,273.057,347.919,275.151,388.616,314.341z M217.092,350.445c6.099,7.667-0.408,19.205-7.456,21.659
	c-6.192,0.376-7.697-3.78-12.427-4.805C197.209,355.266,203.881,349.692,217.092,350.445z M184.768,502.104
	c-17.714-15.74-25.11-41.481-29.824-69.812c2.863-11.673,19.1-10.391,22.368-21.657c22.231,6.551,46.315,11.326,69.616,16.854
	c-0.226,3.403,0.97,14.55,3.878,14.957c-5.312,8.029-20.296,18.735-31.231,28.361C207.888,481.107,194.619,490.008,184.768,502.104z
	 M202.179,523.777c21.704-20.709,45.517-39.37,67.115-60.185c11.644,4.773,39.042,8.839,49.722,0
	c25.847,18.299,51.059,37.215,69.601,62.579C347.588,566.795,240.677,566.284,202.179,523.777z M410.997,502.104
	c-25.123-17.411-43.694-41.133-69.616-57.776c1.944-5.349,5.227-9.384,4.971-16.839c21.192-5.965,45.111-9.292,64.646-16.854
	c10.665,4.91,18.391,12.684,27.338,19.249C434.599,459.163,424.342,482.146,410.997,502.104z"/>
<path fill="none" stroke="#1A171B" stroke-width="0.5" stroke-linecap="round" stroke-linejoin="round" d="M118.826,420.945
	c15.978,13.833,20.98,11.833,36.118,8.938"/>
<path fill="none" stroke="#1A171B" stroke-width="0.5" stroke-linecap="round" stroke-linejoin="round" d="M473.144,425.078
	c0,2.655-15.568,4.805-34.809,4.805"/>
<path fill="none" stroke="#1A171B" stroke-width="0.5" stroke-linecap="round" stroke-linejoin="round" d="M418.453,297.487
	c0,9.316-13.345,16.854-29.837,16.854"/>
<path fill="none" stroke="#1A171B" stroke-width="0.5" stroke-linecap="round" stroke-linejoin="round" d="M172.342,295.078
	c0,11.972,14.457,21.659,32.323,21.659"/>
<path fill="none" stroke="#1A171B" stroke-width="0.5" stroke-linecap="round" stroke-linejoin="round" d="M204.665,388.958
	c-5.525,1.82-18.858,19.487-27.353,21.675"/>
<path fill="none" stroke="#1A171B" stroke-width="0.5" stroke-linecap="round" stroke-linejoin="round" d="M410.997,410.634
	c-2.524-1.522-14.191-10.838-22.381-21.675"/>
</svg>
