<?xml version="1.0" encoding="utf-8"?>
<!-- Generator: Adobe Illustrator 18.1.0, SVG Export Plug-In . SVG Version: 6.00 Build 0)  -->
<!DOCTYPE svg PUBLIC "-//W3C//DTD SVG 1.1//EN" "http://www.w3.org/Graphics/SVG/1.1/DTD/svg11.dtd">
<svg version="1.1" id="Layer_1" xmlns="http://www.w3.org/2000/svg" xmlns:xlink="http://www.w3.org/1999/xlink" x="0px" y="0px"
	 viewBox="0 0 471.9 379.7" enable-background="new 0 0 471.9 379.7" xml:space="preserve">
<path fill="#FFFFFF" d="M304.4,353.2c-9.2,3.7-18.3,7.5-30,12.2c4.6-41.1,20.6-62.1,53.7-68.2c31.3-5.8,63.4-9.3,95.2-10.5
	c35.1-1.3,55,25.8,46.9,59.7c-3.8,16-19.5,21.2-32.5,11.2c-5-3.9-10.7-9.6-16.1-9.7c-35.8-0.8-71.5-0.6-107.3-0.1
	c-3.6,0-7.1,4-10.6,6.1L304.4,353.2z"/>
<path fill="#FFFFFF" d="M261.2,344.6c-16.7-57.4-33.3-114.4-50-171.4c-4.5-15.4,1.8-22.8,16.9-23.8c21.5-1.4,36.4,9,42.9,28.7
	c10.3,31.1,20,62.6,27.1,94.5c2.1,9.4-4,21.8-9.2,31.3C281.6,317.4,271.7,329.5,261.2,344.6z"/>
<path fill="#FFFFFF" d="M203.7,147.2c-5.6-17.2-10.3-33.6-16.3-49.5c-6-15.7,1.8-18.4,14.7-17.8c19,0.8,44.9,35.5,39.6,54.1
	c-0.9,3.2-5.6,6.5-9.2,7.6C224.1,143.9,215.2,145,203.7,147.2z"/>
<path fill="#FFFFFF" d="M459.8,379.7c-63.8,0-121.2,0-179.7,0C289.9,366.5,436.6,364.4,459.8,379.7z"/>
<path fill="#FFFFFF" d="M303.6,354c40.3,0.1,80.6,0.1,120.9,0.4c1.6,0,3.1,2.3,9.6,7.3c-45,0-84.7,0.1-124.3-0.4
	c-1.8,0-3.6-5.3-5.4-8.2C304.4,353.2,303.6,354,303.6,354z"/>
<g>
	<path fill="none" stroke="#FFFFFF" stroke-width="3" stroke-miterlimit="10" d="M263.9,341.9c-32-50.4-63.8-100.6-95.7-150.7
		c-8.6-13.5-4.6-22.4,9.6-27.6c20.3-7.4,37.5-1.5,49.2,15.6c18.5,27,36.6,54.5,52.3,83.2c4.6,8.4,2.2,22-0.1,32.6
		C275.9,310,269.8,324.4,263.9,341.9z"/>
	<path fill="none" stroke="#FFFFFF" stroke-width="3" stroke-miterlimit="10" d="M153.7,168.3c-10.2-14.9-19.2-29.4-29.5-43
		c-10.1-13.4-3.4-18.1,9.1-21.2c18.5-4.5,53,21.6,53.1,40.9c0,3.3-3.5,7.8-6.7,9.8C172.4,159.5,164.2,163,153.7,168.3z"/>
</g>
<g>
	<path fill="none" stroke="#FFFFFF" stroke-width="3" stroke-miterlimit="10" d="M265.4,344.1c-45.3-38.9-90.4-77.7-135.5-116.3
		c-12.2-10.4-10.9-20.1,1.2-29.2c17.3-12.9,35.4-12.3,51.6,0.6c25.6,20.5,50.9,41.5,74.3,64.4c6.9,6.7,8.5,20.4,9.4,31.2
		C267.6,310.2,265.9,325.7,265.4,344.1z"/>
	<path fill="none" stroke="#FFFFFF" stroke-width="3" stroke-miterlimit="10" d="M109.5,210.1c-14.1-11.3-26.9-22.6-40.7-32.6
		c-13.6-9.9-8.6-16.3,2.5-22.9c16.3-9.7,57,5.2,62.7,23.7c1,3.2-1.1,8.5-3.6,11.4C124.7,196.3,117.9,202,109.5,210.1z"/>
</g>
<g>
	<g>
		<path fill="none" stroke="#FFFFFF" stroke-width="11" stroke-miterlimit="10" d="M4.9,121.7c0,0,45.1-87.2,151.2-101.2"/>
		<g>
			<polygon fill="#FFFFFF" points="194.1,18.8 141.8,43.7 153.3,21.1 139.3,0 			"/>
		</g>
	</g>
</g>
</svg>
