<?xml version="1.0" encoding="utf-8"?>
<!-- Generator: Adobe Illustrator 18.1.1, SVG Export Plug-In . SVG Version: 6.00 Build 0)  -->
<!DOCTYPE svg PUBLIC "-//W3C//DTD SVG 1.1//EN" "http://www.w3.org/Graphics/SVG/1.1/DTD/svg11.dtd">
<svg version="1.1" id="Layer_1" xmlns="http://www.w3.org/2000/svg" xmlns:xlink="http://www.w3.org/1999/xlink" x="0px" y="0px"
	 viewBox="0 0 220.8 142.1" enable-background="new 0 0 220.8 142.1" xml:space="preserve">
<g id="_x32_RWk3m.tif">
	<g>
		<path fill="#FFFFFF" d="M125,0c22.3,0,40.2,17.7,40.2,39.8c0.1,22.2-17.7,40-40,40.1c-22.6,0.1-40.3-17.5-40.3-40
			C84.9,17.6,102.6,0,125,0z M125.1,50.2c5.6,0,10.4-4.8,10.3-10.3c0-5.5-4.8-10.2-10.4-10.3c-5.8,0-10.6,4.8-10.5,10.5
			C114.8,45.8,119.5,50.3,125.1,50.2z"/>
		<path fill="#FFFFFF" d="M0,117.2c0-9.3,7.2-16.6,16.5-16.6c9.2,0,16.6,7.5,16.5,16.7c-0.1,9.1-7.2,16.2-16.3,16.4
			C7.5,133.9,0,126.5,0,117.2z M26.6,117.1c0-5.6-4.8-10.3-10.3-10.2c-5.5,0.1-10.3,5-10.2,10.5c0.1,5.4,4.8,9.9,10.2,9.9
			C22.1,127.3,26.7,122.8,26.6,117.1z"/>
		<path fill="#FFFFFF" d="M43.8,111.5c4.4-2.7,9.2-2.7,13,0.5c3.8,3.2,5.1,9.4,3.2,14.5c-2.2,5.5-6.1,7.2-15.8,6.6
			c-0.1,2.9-0.3,5.9-0.4,9c-2.1,0-3.8,0-6.1,0c0-7.2,0-14.2,0-21.3c0-2.5-0.2-5,0.1-7.5c0.1-1.2,0.7-3,1.5-3.2
			C40.3,109.9,41.7,110.8,43.8,111.5z M43.9,121.9c0,5.1,0.6,6,4.4,6.1c3.5,0.1,6.2-2.7,6.2-6.4c0.1-3.5-2.5-6.5-5.6-6.6
			C45.6,114.9,43.9,117.2,43.9,121.9z"/>
		<path fill="#FFFFFF" d="M160.6,100.8c1.9,0,3.5,0,5.6,0c0,3.1,0,6.1,0,9.4c6.9-1.1,13-1.2,16,6.2c2,5,0.7,11.2-3,14.5
			c-3.7,3.3-8.3,3.3-13.5,0.4c-1.7,0.8-3.1,1.5-5.1,2.5C160.6,122.3,160.6,111.7,160.6,100.8z M170.8,115c-4,0.1-4.8,1.4-4.5,7.6
			c0.1,3.3,2.3,5.5,5.4,5.4c3.1-0.1,5.4-3,5.3-6.6C176.9,117.6,174.2,114.9,170.8,115z"/>
		<path fill="#FFFFFF" d="M107,133.2c0-4.6,0-8.4,0-12.3c0-3-0.5-5.9-4.2-5.8c-3.4,0.1-5.1,2.3-5,5.8c0.1,3.8,0,7.7,0,11.4
			c-5.8,1.5-6.2,1.2-6.2-3.9c0-5-0.1-9.9,0.1-14.9c0-1.2,0.7-3.2,1.3-3.3c1.2-0.3,2.7,0.6,4.6,1.1c1.5-0.4,3.8-1.4,6.1-1.6
			c5.6-0.3,8.6,2.2,9.2,7.8c0.4,4.4,0.4,8.8,0.1,13.2C112.7,134.8,109.6,132.4,107,133.2z"/>
		<path fill="#FFFFFF" d="M112.4,106.6c0-2.3,0-3.9,0-5.7c8.3,0,16.3,0,24.8,0c0,1.8,0,3.4,0,5.6c-2.9,0-5.7,0-9.1,0
			c0,9,0,17.6,0,26.1c-6.5,1.1-6.5,1-6.5-4.5c0-7,0-14,0-21.5C118.4,106.6,115.6,106.6,112.4,106.6z"/>
		<path fill="#FFFFFF" d="M82.4,126.3c3.4,3.2,3.3,4.2-0.6,6c-4.8,2.1-10.5,1.2-13.8-2.3c-3.4-3.5-4.3-9.4-2.2-13.9
			c2.2-4.7,6.4-7,11.9-6.5c6.1,0.6,9.3,5.1,8.7,12.8c-5,0-10.2,0-15.5,0C72.6,128.5,75.2,129.2,82.4,126.3z M80.2,118.4
			c0.2-0.6,0.4-1.2,0.6-1.7c-1.8-0.7-3.7-1.9-5.5-1.8c-1.4,0-2.8,1.7-4.1,2.6c0.2,0.3,0.4,0.7,0.7,1
			C74.6,118.4,77.4,118.4,80.2,118.4z"/>
		<path fill="#FFFFFF" d="M220.6,122.5c-4.9,0-10,0-15.1,0c1,5.9,4.3,6.9,12.1,3.4c0.2,0.4,0.5,1.2,0.9,1.9c0.3,0.6,0.7,1.2,1,1.7
			c-3.8,4.3-10.4,5.2-15.1,2.3c-4.9-3.1-6.8-9.9-4.3-15.4c2.4-5.4,8.1-8,13.8-6.4C219,111.4,221.6,115.9,220.6,122.5z M205.6,116.9
			c0.2,0.5,0.4,0.9,0.6,1.4c2.9,0,5.7,0,8.6,0c0.1-0.4,0.3-0.8,0.4-1.2c-1.5-0.8-3-2.3-4.5-2.3C209,114.8,207.3,116.1,205.6,116.9z"
			/>
		<path fill="#FFFFFF" d="M64.3,30.2c5.4,0.1,9.6,4.4,9.6,9.8c0,5.5-4.5,10-10,9.9c-5.2-0.1-9.6-4.6-9.7-9.8
			C54.2,34.5,58.8,30.1,64.3,30.2z"/>
		<path fill="#FFFFFF" d="M138.1,115.5c-0.4-1.6-0.7-2.9-1.2-5.3c4.5-0.1,8.5-0.7,12.5-0.3c3.3,0.3,4.7,3.3,4.9,6.4
			c0.3,4.8,0.2,9.7,0.2,14.5c0,2.6-2.3,2.9-3.3,1.9c-1.7-1.7-2.7-0.7-4.2-0.1c-6.1,2.4-11.4-0.3-11.8-6c-0.3-4.1,1.8-7,5.9-7.6
			c2.4-0.4,4.9-0.1,7.3-0.1C148,114.3,146.9,113.9,138.1,115.5z M145.4,120.8c-1.9,2.1-3.6,3.3-4,4.9c-0.2,0.8,1.8,2.9,3,3.1
			c2.3,0.3,4.5-1,4.2-3.7C148.5,123.8,147,122.8,145.4,120.8z"/>
		<path fill="#FFFFFF" d="M187.7,100.8c2.2,0,3.9,0,6,0c0,7.5,0,14.8,0,22c0,1.3,0.6,2.5,0.9,3.8c0.4,1.8,0.8,3.7,1.2,5.5
			c-1.6,0.3-3.4,1.2-4.6,0.6c-1.5-0.7-3.3-2.5-3.3-3.9c-0.4-6.2-0.2-12.4-0.2-18.7C187.7,107.2,187.7,104.2,187.7,100.8z"/>
	</g>
</g>
</svg>
