<?xml version="1.0" encoding="utf-8"?>
<!-- Generator: Adobe Illustrator 18.1.1, SVG Export Plug-In . SVG Version: 6.00 Build 0)  -->
<!DOCTYPE svg PUBLIC "-//W3C//DTD SVG 1.1//EN" "http://www.w3.org/Graphics/SVG/1.1/DTD/svg11.dtd">
<svg version="1.1" id="Layer_1" xmlns="http://www.w3.org/2000/svg" xmlns:xlink="http://www.w3.org/1999/xlink" x="0px" y="0px"
	 viewBox="0 15 252.1 113.9" enable-background="new 0 15 252.1 113.9" xml:space="preserve">
<g id="_x30_i5WcW.tif">
	<g>
		<path fill="#FFFFFF" d="M209.2,15c0.4,0.1,0.7,0.2,1.1,0.4c1.5,0.5,2.2,1.6,2.3,3c0.4,4.4,0.6,8.6,1,13c0.2,3,0.4,6.1,0.6,9.1
			c0.2,4.3,0.6,8.4,0.7,12.6c0.1,1.8,0.1,3.6-0.1,5.5c-0.5,3.4-3.9,4.6-6.4,2.3c-1.2-1-2.1-2.3-2.9-3.6c-6.6-10.2-13-20.5-19.5-30.8
			c-1.3-2.1-1-3.9,1.2-5.2c2.6-1.7,5.3-2.7,8.3-3.5c3.4-1,6.8-1.6,10.2-2.4c0.5-0.1,1-0.1,1.3-0.2C207.9,15,208.6,15,209.2,15z"/>
		<path fill="#FFFFFF" d="M252,89.9c-2.1,5.5-5.7,9.8-9.8,13.9c-1.1,1-2.2,1.9-3.6,2.1c-1.3,0.1-2.4-0.4-3.2-1.6
			c-2.7-4.4-5.5-8.6-8.1-13c-1.2-1.9-2.4-4-3.6-6c-1.1-1.7-0.9-3.6,0.5-5.2c1.2-1.5,2.9-1.8,4.7-1.2c6.7,2.2,13.4,4.5,20.1,6.7
			c1.6,0.5,2.8,1.2,3.3,2.9C252,88.9,252,89.4,252,89.9z"/>
		<path fill="#FFFFFF" d="M136.9,68.1c0.6-0.2,1.1-0.5,1.6-0.9c5.2-3.9,10.9-4.1,16.8-2.2c5.8,1.9,9,6.2,10.5,11.9
			c1.2,4.7,1.2,9.5,1.1,14.3c-0.1,4.1-0.5,8.3-2.1,12.2c-2.4,6.1-7.1,9.5-13.4,10.5c-3.2,0.5-6.2,0.2-9.1-1.1
			c-1.5-0.7-2.7-1.6-4.3-2.6c-0.2,1-0.5,1.8-0.5,2.8c0,3.4,0.1,6.7,0.1,10.1c0,0.9-0.2,1.8-0.5,2.7c-0.6,1.9-3,3.3-5.2,3
			c-3.5-0.4-5.3-2.3-5.3-6c0-18,0-35.9,0-53.9c0-0.7,0.1-1.5,0.2-2.2c0.5-1.9,1.9-2.7,3.8-3.2c2.9-0.7,5.7,0.7,6.3,3.8
			C136.8,67.9,136.8,67.9,136.9,68.1z M160.6,88.4c0-2.9-0.1-6.1-1.1-9.1c-1.3-4.1-3.9-5.8-8.1-5.5c-4,0.4-6.4,2.2-7.4,6.1
			c-1.5,5.7-1.6,11.7-0.4,17.5c0.6,3,2.4,6.2,7.2,6.6c4,0.4,7.2-1.1,8.6-5.1C160.5,95.5,160.6,92.1,160.6,88.4z"/>
		<path fill="#FFFFFF" d="M74,93.4c-3.8,0-7.7,0-11.4,0c-1.1,0-1.7,0.6-1.7,1.6c-0.2,5.7,4.1,10,9.8,9.5c3.2-0.2,5.7-1.7,8-3.6
			c0.6-0.6,1.3-1.1,2.1-1.6c2.6-1.8,6.1-0.4,6.8,2.9c0.5,2.3-0.4,4.3-1.8,6c-2.6,2.9-5.8,4.5-9.5,5.5c-4.4,1.1-8.8,1.5-13.3,0.2
			c-6.6-1.8-10.2-6.4-12.2-12.6c-1.3-4.6-1.6-9.5-1.3-14.3c0.2-3.3,0.5-6.6,1.6-9.7c2.3-6.8,6.9-10.9,14.1-12.2
			c3.8-0.6,7.5-0.7,11.3,0.2c5.8,1.7,9.6,5.6,11.2,11.4c0.7,2.4,1,5,1.2,7.5c0.2,1.9,0.1,4,0,6.1c-0.1,2.2-1.2,3.2-3.4,3.2
			C81.7,93.4,77.8,93.3,74,93.4L74,93.4z M67.8,85c2.9,0,5.8,0,8.9,0c0.5,0,0.9,0,0.9-0.6c0-2.8-0.5-5.5-2.6-7.7
			c-2.1-2.3-4.7-2.8-7.7-2.6c-4.4,0.2-8,3-9.2,7.3c-0.2,0.7-0.4,1.6-0.4,2.4c0,1,0.4,1.3,1.3,1.3C62,85,64.9,85,67.8,85z"/>
		<path fill="#FFFFFF" d="M24.7,94.6c0.7-2.4,1.3-4.7,2.1-6.9c1.7-5.8,3.4-11.8,5.2-17.6c0.5-1.8,1.3-3.5,2.8-4.7
			c2.2-1.8,7.5-0.5,8.1,3.3c0.2,2.1-0.4,3.9-0.9,5.7c-4.6,14.1-9.1,28.2-13.6,42.3c-0.6,1.9-1.6,3.8-2.6,5.6c-1.3,2.3-3.4,3.6-6,4.3
			c-3.2,0.7-6.3,1.1-9.5,0.1c-1.7-0.5-3.2-1.5-3.8-3.3c-1.2-3.3,1.5-6.8,4.9-6.7c1,0,1.8,0,2.8,0c3.2,0,5.2-2.6,4.3-5.7
			c-0.5-1.6-1.2-2.9-1.9-4.4C11.5,96.2,6.4,85.9,1.2,75.4c-0.7-1.6-1.3-3.2-1.2-5c0.1-2.2,1.2-3.8,3.2-4.9c1.9-1,4-1.1,5.8,0.4
			c0.6,0.5,1,1.1,1.3,1.7c4.6,8.6,9.1,17.3,13.7,25.9C24.2,93.9,24.4,94.1,24.7,94.6z"/>
		<path fill="#FFFFFF" d="M101.3,81.5c0-9.1,0-18.1,0-27.2c0-2.3,1-4,3.2-5c2.2-0.9,4.4-0.7,6.2,0.9c1.1,1,1.3,2.3,1.5,3.5
			c0.1,0.7,0.1,1.5,0.1,2.2c0,17.5,0,34.9,0,52.4c0,1.7-0.4,3.3-1.6,4.5c-1.7,1.6-3.6,2.1-5.8,1.3c-2.1-0.7-3.3-2.1-3.4-4.4
			c0-0.6-0.1-1.3-0.1-1.9C101.3,99,101.3,90.2,101.3,81.5z"/>
		<path fill="#FFFFFF" d="M226.4,70.3c-1.9,0-3.2-1-4-2.6c-0.9-1.6-0.7-3,0.4-4.5c4.3-5.7,8.4-11.4,12.6-17.1
			c0.6-0.9,1.3-1.8,2.6-2.1c1.5-0.2,2.7,0.1,3.6,1.1c1.6,1.6,3,3.2,4.4,5c2.1,2.7,3.9,5.6,5,8.8c0.4,0.9,0.6,1.7,0.5,2.6
			c0,1.8-0.9,2.8-2.8,3.3c-3.2,0.9-6.4,1.6-9.6,2.4c-3.9,1-7.8,1.9-11.7,2.9C227,70.3,226.6,70.3,226.4,70.3z"/>
		<path fill="#FFFFFF" d="M177.2,75.3c0.1-4.5,0.2-7.9,1.2-11.2c0.1-0.5,0.4-1,0.5-1.3c1-1.8,2.6-2.6,4.5-1.8
			c3.6,1.3,7.2,2.8,10.7,4.3c3.3,1.3,6.4,2.7,9.6,3.9c3,1.1,3.5,4.6,2.2,6.7c-0.5,0.6-1.2,1.3-1.9,1.6c-7.1,2.3-14.2,4.6-21.4,6.8
			c-2.3,0.7-4.1-0.2-4.7-2.6C177.6,79.1,177.4,76.6,177.2,75.3z"/>
		<path fill="#FFFFFF" d="M214.8,93c0,5.5,0,10.9,0,16.4c0,2.9-2.1,4-4.4,3.8c-5.5-0.6-10.6-2.6-15.3-5.3c-0.6-0.4-1.3-0.9-1.8-1.5
			c-1.3-1.3-1.5-3.2-0.2-4.7c2.6-3.2,5.2-6.3,7.9-9.5c2.1-2.6,4.3-5,6.3-7.5c1.2-1.5,3-1.9,4.9-1.3c1.8,0.6,2.9,2.1,2.9,4
			c0,1,0,1.8,0,2.8s0,1.8,0,2.8C214.8,93,214.8,93,214.8,93z"/>
	</g>
</g>
</svg>
