<?xml version="1.0" encoding="utf-8"?>
<!-- Generator: Adobe Illustrator 18.1.0, SVG Export Plug-In . SVG Version: 6.00 Build 0)  -->
<!DOCTYPE svg PUBLIC "-//W3C//DTD SVG 1.1//EN" "http://www.w3.org/Graphics/SVG/1.1/DTD/svg11.dtd">
<svg version="1.1" id="Layer_1" xmlns="http://www.w3.org/2000/svg" xmlns:xlink="http://www.w3.org/1999/xlink" x="0px" y="0px"
	 viewBox="0 0 230.6 124.7" enable-background="new 0 0 230.6 124.7" xml:space="preserve">
<g id="gdUtxf.tif">
	<g>
		<path fill="#59C1E2" d="M230.6,52.1c-0.2,18.3-6.7,34.9-19.8,48.9c-0.3,0.3-0.5,0.6-0.8,0.8c-1.6,1.6-3.3,1.7-4.6,0.3
			c-1.3-1.3-1.1-3,0.4-4.7c1.6-1.7,3.2-3.5,4.7-5.4c7.9-10.1,12.6-21.6,13.7-34.4c1.7-19-3.9-35.7-16.5-50.1c-0.6-0.7-1.3-1.3-1.8-2
			c-1.7-1.7-1.8-3.4-0.5-4.7c1.4-1.4,3.2-1.3,4.8,0.6c3.2,3.8,6.6,7.6,9.3,11.8C226.9,24.9,230.5,37.6,230.6,52.1z"/>
		<path fill="#59C1E2" d="M0,51.6C0.3,32.9,6.5,16.6,19.3,2.8c0.4-0.4,0.8-0.9,1.2-1.3c1.7-1.7,3.4-1.8,4.7-0.4
			c1.3,1.3,1,2.9-0.4,4.7c-2.9,3.4-5.9,6.8-8.4,10.5C9.2,27.2,5.8,39.3,6,52.4c0.3,17.5,6.6,32.5,18.6,45.1c0.8,0.8,1.4,2.2,1.3,3.2
			c-0.1,0.8-1.2,2-2.1,2.2c-0.9,0.2-2.4-0.2-3.1-1c-3.4-4.1-7-8.1-9.9-12.6C4.5,79.6,1.1,68.8,0.2,57.2c-0.1-0.7-0.2-1.4-0.2-2
			C0,53.9,0,52.8,0,51.6z"/>
		<path fill="#59C1E2" d="M17.8,51.7c0.3-14.7,5.3-27.2,15.3-37.6c1-1,2.1-1.8,3.3-1.2c0.9,0.4,1.8,1.4,2,2.3c0.2,0.8-0.3,2.1-1,2.8
			C33,23,29.1,28.4,27,34.8c-6.2,18.1-3.1,34.4,9.3,48.9c0.5,0.6,1.1,1.1,1.6,1.7c1.1,1.3,1.1,3,0,4.1c-1.2,1.2-3,1.2-4.3-0.1
			c-4.1-4.1-7.5-8.8-10.1-14C19.7,67.9,18,59.9,17.8,51.7z"/>
		<path fill="#59C1E2" d="M212.7,52.4c-0.3,13.6-5.2,26.1-15.1,36.5c-0.9,0.9-1.8,1.9-3.1,1.4c-0.9-0.3-1.8-1-2.4-1.8
			c-0.7-1.1-0.1-2.2,0.6-3.2c2.6-3.3,5.5-6.5,7.6-10.1c10.5-17.9,7.7-41.1-6.6-56.2c-0.3-0.3-0.6-0.7-1-1.1
			c-1.3-1.5-1.4-3.1-0.1-4.4c1.3-1.3,3.1-1.2,4.5,0.4c2.6,3.1,5.3,6.2,7.5,9.6C210.2,32.1,212.6,41.5,212.7,52.4z"/>
		<path fill="#59C1E2" d="M35.8,51.5c0.1-9.6,3.5-17.9,10.2-24.9c1.4-1.4,3.3-1.5,4.5-0.3c1.2,1.2,1.1,3-0.2,4.4
			c-5.3,5.5-8.2,12.1-8.5,19.6c-0.3,8,2.3,15.2,7.7,21.3c0.3,0.3,0.7,0.7,1,1c1.2,1.4,1.2,3.3-0.1,4.4c-1.2,1.1-3.1,1-4.3-0.3
			c-3-3.1-5.4-6.6-7.2-10.6C36.8,61.5,35.8,56.6,35.8,51.5z"/>
		<path fill="#59C1E2" d="M194.8,51.5c-0.4,10.5-3.8,18.3-10,24.9c-1.5,1.5-3.3,1.8-4.6,0.6c-1.3-1.2-1.3-3.1,0.2-4.5
			c5.4-5.6,8.2-12.3,8.5-20c0.2-7.9-2.4-15-7.7-20.9c-0.3-0.4-0.8-0.8-1.1-1.2c-1-1.3-1-3.1,0.1-4.2c1.1-1.1,3-1.1,4.1,0.1
			c1.5,1.6,3,3.3,4.3,5.1C193,37.9,195,45.1,194.8,51.5z"/>
	</g>
</g>
<g id="HNlAxV.tif">
	<g>
		<path fill="#FFFFFF" d="M130.2,87.1c0,10,0,20,0,29.9c0,3.7-2.1,6.5-5.6,7.5c-1.1,0.3-2,0.2-2.9-0.5
			c-16.4-12.1-32.9-24.2-49.3-36.3c-1.6-1.2-3.3-2.3-5.1-3.3c-2-1.2-2.8-3-2.8-5.3c0.1-7.4,0-14.9,0-22.3c0-12.3,0-24.5,0-36.8
			c0-2,0.2-3.9,1.5-5.6c1.2-1.5,2.7-2.5,4.6-2.9c0.8-0.2,1.5-0.1,2.3,0.5c16.3,12.1,32.7,24.1,49,36.1c2.3,1.7,4.6,3.6,6.8,5.5
			c1.1,0.9,1.5,2.1,1.5,3.6C130.2,67.2,130.2,77.2,130.2,87.1z"/>
		<path fill="#FFFFFF" d="M136.2,91.1c0-0.6,0-1,0-1.5c0-11.5,0-23,0-34.4c0-1.8-0.5-3.3-1.9-4.5c-1.6-1.4-3.4-2.7-5.2-4
			c-0.4-0.3-0.8-0.5-1.1-1.1c0.4,0,0.8,0,1.2,0c6.3,0,12.7,0,19,0c2.2,0,3.6-1.5,3.5-3.5c0-1.4-1-2.7-2.4-3c-0.6-0.2-1.3-0.2-2-0.2
			c-9.1,0-18.3,0-27.5,0c-0.7,0-1.5-0.3-2-0.7c-3.2-2.4-6.4-4.8-9.9-7.4c0.7,0,1.1,0,1.5,0c12.7,0,25.4,0,38,0c0.6,0,1.2,0,1.8-0.1
			c1.7-0.4,2.7-1.8,2.6-3.6c-0.1-1.5-1.4-2.8-3-3c-0.4,0-0.9,0-1.3,0c-15.8,0-31.6,0-47.4,0c-0.6,0-1.2-0.1-1.6-0.5
			c-5.2-3.8-10.3-7.7-15.5-11.6c-0.1-0.1-0.3-0.1-0.4-0.2c0-0.1,0.1-0.2,0.1-0.3c0.4,0,0.7,0,1.1,0c24.9,0,49.7,0,74.6,0
			c4.6,0,7.7,3.1,7.7,7.7c0,21.6,0,43.1,0,64.7c0,4.1-3.2,7.3-7.3,7.3c-7.1,0-14.3,0-21.4,0C137,91.2,136.7,91.1,136.2,91.1z"/>
	</g>
</g>
</svg>
