<?xml version="1.0" encoding="utf-8"?>
<!-- Generator: Adobe Illustrator 18.1.0, SVG Export Plug-In . SVG Version: 6.00 Build 0)  -->
<!DOCTYPE svg PUBLIC "-//W3C//DTD SVG 1.1//EN" "http://www.w3.org/Graphics/SVG/1.1/DTD/svg11.dtd">
<svg version="1.1" id="Layer_1" xmlns="http://www.w3.org/2000/svg" xmlns:xlink="http://www.w3.org/1999/xlink" x="0px" y="0px"
	 viewBox="0 101.6 612 588.7" enable-background="new 0 101.6 612 588.7" xml:space="preserve">
<g id="OUi4ui.tif">
	<g>
		<path fill="#FFFFFF" d="M79.7,584.2c-18,0-35.1,0-52.2,0c-7.6,0-14-2.4-19.3-7.8c-7.8-7.9-10.3-18.6-6-28.7
			c4.4-10.4,12.5-16.7,24.2-16.7c34.7-0.1,69.4,0.1,104.1-0.3c6.1-0.1,12.9-1.9,18.2-5.1c8.2-4.9,11.4-15.5,9-24.4
			c-2.6-9.9-10.4-17.1-20.7-17.5c-15.7-0.7-31.5-0.3-47.2-0.4c-2.9,0-6,0-9.9,0c0-15.7,0-30.8,0-46.5c-18.3,0-35.5,0-52.9,0
			c-13.7,0-24.4-9.4-26.7-23.3c-1.9-11.9,6.1-24.7,18.5-28.5c4.6-1.4,9.6-1.7,14.3-1.7c33.3-0.1,66.6,0,99.9-0.1
			c19.7-0.1,31.4-18.5,22.3-34.8c-5.1-9.3-13.6-12.6-23.7-12.6c-16.9,0-33.7,0-51.6,0c0-15.3,0-30.1,0-45.8c-11.1,0-21.2,0-31.4,0
			c-6.9,0-13.9,0-20.8,0C12.2,289.8,0.3,278.7,0,264c-0.3-14.9,11.7-26.9,27.3-27.1c35-0.1,69.8,0,104.8-0.1c15.3,0,26-10,26-23.9
			c0-12.1-8.3-22.5-20.4-23c-16.4-1-32.8-0.6-49.3-0.7c-2.6,0-5.4,0-8.1,0c-1.9-39,28-76.8,67.5-85.4c6.5-1.4,13.3-2.2,19.8-2.2
			c119,0,237.9,0,356.7,0c48.6,0,87.6,39,87.6,87.7c0,137.1,0,274.4,0,411.6c0,50.2-37.9,89.1-88.1,89.3
			c-118.3,0.3-236.4,0.3-354.7,0c-45.3-0.1-79.8-29-88.1-72.9c-1.4-7.6-1.1-15.7-1.5-23.5C79.5,590.9,79.7,588,79.7,584.2z
			 M407.5,337c-1.1-0.7-1.8-1-2.2-1.4c-26.1-31.4-76.8-27.3-103.8-1.4c-24.8,24-30.8,53.4-25.1,85.9c9.3,52.6,68.3,77.5,111,47.2
			c4.3-3.1,8.2-6.5,12.8-10.1c1.1,2.1,1.9,3.9,3.1,5.7c5.1,8.9,12.6,14.6,22.9,16c22.1,3.2,39.1-6.1,53.3-21.8
			c17.5-19.3,26.5-42.3,29-68.2c5-50.8-13.3-90.9-54.8-120.2c-36.2-25.5-77.2-31.2-119.7-24.2c-86.3,14.4-141,91.5-125.5,177
			c10.4,57,43.6,96.3,98.7,115.6c35.8,12.5,72.6,11.9,109.4,4.6c20.1-4,39.4-10.8,58.2-20.3c-3.3-9.2-6.5-17.9-9.9-27.1
			c-3.7,1.7-6.9,3.1-10,4.3c-28.9,12.5-58.9,20-90.6,19.6c-63.2-0.8-110.1-37.5-121.9-96.2c-10.4-51.8,3.9-95.6,46.1-128.7
			c29.4-23.2,63.6-28.6,99.7-22.9c74.7,11.7,111.6,82.2,83.8,149.6c-4.6,11.1-10.8,21.7-21.7,28.2c-5.8,3.5-12.4,6-19,2.1
			c-6-3.5-5.1-9.9-5.1-15.5c0-1.1,0-2.4,0.1-3.5c3.1-27.1,6.1-54.1,9.2-81.2c1.2-10.7,2.4-21.2,3.7-32.5c-7.6,0-14.2,0.4-20.5-0.1
			c-6.2-0.4-9.6,1-9.2,8.1C409.3,329,408.2,332.6,407.5,337z"/>
		<path d="M407.5,337c0.7-4.4,1.8-8.1,1.7-11.7c-0.4-7.1,2.9-8.5,9.2-8.1c6.4,0.6,12.9,0.1,20.5,0.1c-1.2,11.2-2.5,21.8-3.7,32.5
			c-3.1,27.1-6.1,54.1-9.2,81.2c-0.1,1.1-0.1,2.4-0.1,3.5c0.1,5.7-0.8,12.1,5.1,15.5c6.7,3.9,13,1.5,19-2.1
			c10.8-6.5,17.1-16.9,21.7-28.2c27.8-67.5-9.2-138-83.8-149.6c-36.1-5.7-70.1-0.1-99.7,22.9c-42.2,33.2-56.6,77-46.1,128.7
			C254,480.5,300.8,517.2,364,518c31.8,0.4,61.8-7.1,90.6-19.6c3.2-1.4,6.2-2.8,10-4.3c3.3,9,6.5,17.9,9.9,27.1
			c-18.7,9.4-38,16.2-58.2,20.3c-36.8,7.4-73.6,7.9-109.4-4.6c-55.2-19.3-88.4-58.4-98.7-115.6c-15.5-85.5,39.3-162.5,125.5-177
			c42.5-7.1,83.4-1.5,119.7,24.2c41.5,29.3,59.8,69.4,54.8,120.2c-2.5,25.8-11.5,48.9-29,68.2c-14.2,15.7-31.2,25-53.3,21.8
			c-10.4-1.5-17.8-7.1-22.9-16c-1-1.7-1.9-3.5-3.1-5.7c-4.4,3.6-8.5,7.1-12.8,10.1c-42.8,30.4-101.7,5.6-111-47.2
			c-5.7-32.5,0.3-61.9,25.1-85.9c26.9-26.1,77.6-30.1,103.8,1.4C405.7,336,406.4,336.3,407.5,337z M399.9,398.9
			c0-26.8-10.4-41.8-28-47.5c-18.5-6-36.6-0.1-47.7,15.7c-11.4,16.2-13.2,34.3-7.8,52.9c7.4,25,31,34.7,53.7,21.9
			C389.5,431,399.3,413.9,399.9,398.9z"/>
		<path fill="#FFFFFF" d="M399.9,398.9c-0.4,15-10.4,32.1-29.8,43c-22.8,12.9-46.4,3.2-53.7-21.9c-5.4-18.6-3.7-36.6,7.8-52.9
			c11.1-15.8,29.4-21.5,47.7-15.7C389.5,357.1,399.9,372.1,399.9,398.9z"/>
	</g>
</g>
</svg>
