<?xml version="1.0" encoding="utf-8"?>
<!-- Generator: Adobe Illustrator 18.1.0, SVG Export Plug-In . SVG Version: 6.00 Build 0)  -->
<!DOCTYPE svg PUBLIC "-//W3C//DTD SVG 1.1//EN" "http://www.w3.org/Graphics/SVG/1.1/DTD/svg11.dtd">
<svg version="1.1" id="Layer_1" xmlns="http://www.w3.org/2000/svg" xmlns:xlink="http://www.w3.org/1999/xlink" x="0px" y="0px"
	 viewBox="0 0 336.8 352.5" enable-background="new 0 0 336.8 352.5" xml:space="preserve">
<g>
	<path fill="#FFFFFF" d="M139.9,321.4c-10.8,4.4-21.5,8.8-35.3,14.4c5.5-48.3,24.2-73,63.1-80.2c36.8-6.8,74.5-11,111.9-12.4
		c41.2-1.6,64.7,30.3,55.2,70.2c-4.5,18.8-23,25-38.2,13.2c-5.9-4.5-12.5-11.3-19-11.4c-42-1-84.1-0.7-126.1-0.1
		c-4.2,0.1-8.3,4.7-12.4,7.2L139.9,321.4z"/>
	<path fill="#FFFFFF" d="M89.1,311.3c-19.6-67.4-39.1-134.5-58.7-201.5c-5.3-18.1,2.1-26.8,19.9-28c25.3-1.7,42.8,10.6,50.4,33.7
		c12.1,36.6,23.5,73.5,31.8,111.1c2.4,11-4.8,25.6-10.8,36.7C113.1,279.3,101.5,293.5,89.1,311.3z"/>
	<path fill="#FFFFFF" d="M21.6,79.2C15,59,9.6,39.7,2.4,21c-7-18.5,2.1-21.6,17.2-21C42,1,72.4,41.8,66.2,63.6
		c-1.1,3.8-6.6,7.7-10.8,8.9C45.5,75.4,35.1,76.7,21.6,79.2z"/>
	<path fill="#FFFFFF" d="M322.6,352.5c-75,0-142.5,0-211.2,0C122.9,337,295.3,334.5,322.6,352.5z"/>
	<path fill="#FFFFFF" d="M139,322.3c47.4,0.1,94.8,0.2,142.1,0.5c1.8,0,3.6,2.7,11.2,8.6c-52.9,0-99.5,0.1-146.1-0.4
		c-2.1,0-4.2-6.3-6.4-9.6C139.9,321.4,139,322.3,139,322.3z"/>
</g>
</svg>
