<?xml version="1.0" encoding="utf-8"?>
<!-- Generator: Adobe Illustrator 18.1.0, SVG Export Plug-In . SVG Version: 6.00 Build 0)  -->
<!DOCTYPE svg PUBLIC "-//W3C//DTD SVG 1.1//EN" "http://www.w3.org/Graphics/SVG/1.1/DTD/svg11.dtd">
<svg version="1.1" id="Layer_1" xmlns="http://www.w3.org/2000/svg" xmlns:xlink="http://www.w3.org/1999/xlink" x="0px" y="0px"
	 viewBox="0 0 439.2 490.3" enable-background="new 0 0 439.2 490.3" xml:space="preserve">
<g id="HNlAxV.tif">
	<g>
		<path fill="#FFFFFF" d="M284.3,327.8c0,43.2,0,86.4,0,129.5c0,16.1-9.3,28.2-24.3,32.3c-4.6,1.2-8.5,0.7-12.6-2.3
			c-71.1-52.5-142.3-104.8-213.5-157.1c-7-5.2-14.5-9.8-21.9-14.4C3.4,310.4-0.1,303,0,292.9c0.3-32.1,0.1-64.3,0.1-96.4
			c0-53.1,0-106.2,0-159.2c0-8.7,1-17.1,6.6-24.4C11.7,6.3,18.3,2.2,26.4,0.4c3.6-0.8,6.7-0.3,10,2.1
			c70.7,52.2,141.6,104.2,212.3,156.4c10.1,7.5,19.9,15.6,29.5,23.7c4.7,3.9,6.3,9.3,6.3,15.6C284.2,241.4,284.3,284.6,284.3,327.8z
			"/>
		<path fill="#FFFFFF" d="M310.3,345c0-2.5,0-4.4,0-6.3c0-49.7-0.1-99.4,0.1-149.1c0-7.9-2.3-14.5-8.1-19.5
			c-7.1-6.1-14.8-11.5-22.3-17.2c-1.6-1.2-3.4-2.3-4.8-4.6c1.7,0,3.4,0,5,0c27.4,0,54.9,0,82.3,0c9.4,0,15.5-6.3,15.2-15.2
			c-0.2-6.2-4.4-11.6-10.5-13.1c-2.8-0.7-5.8-0.8-8.7-0.9c-39.6-0.1-79.2,0-118.9-0.2c-2.9,0-6.4-1.2-8.8-2.9
			c-14-10.2-27.8-20.7-43-32.2c3,0,4.7,0,6.3,0c54.9,0,109.8,0,164.7,0c2.6,0,5.2-0.1,7.7-0.6c7.5-1.8,11.6-7.7,11.1-15.5
			c-0.5-6.7-5.9-12.2-13-12.9c-1.9-0.2-3.9-0.2-5.8-0.2c-68.4,0-136.7,0-205.1-0.1c-2.4,0-5.3-0.6-7.1-2
			C124.1,35.9,101.8,19,79.3,2.1c-0.5-0.4-1.2-0.5-1.7-0.8C77.8,1,78,0.6,78.2,0.2C79.8,0.2,81.3,0,82.8,0c107.7,0,215.3,0,323,0
			c19.7,0,33.4,13.4,33.4,33.3c0.1,93.4,0.1,186.7,0,280.1c0,17.9-14,31.7-31.8,31.8c-30.9,0.1-61.7,0-92.6,0
			C313.5,345.2,312.3,345.1,310.3,345z"/>
	</g>
</g>
</svg>
