<?xml version="1.0" encoding="utf-8"?>
<!-- Generator: Adobe Illustrator 18.1.0, SVG Export Plug-In . SVG Version: 6.00 Build 0)  -->
<!DOCTYPE svg PUBLIC "-//W3C//DTD SVG 1.1//EN" "http://www.w3.org/Graphics/SVG/1.1/DTD/svg11.dtd">
<svg version="1.1" id="Layer_1" xmlns="http://www.w3.org/2000/svg" xmlns:xlink="http://www.w3.org/1999/xlink" x="0px" y="0px"
	 viewBox="0 90 612 612" enable-background="new 0 90 612 612" xml:space="preserve">
<circle fill="#FFFFFF" cx="306" cy="396" r="306"/>
<g id="V3JEUD.tif">
	<g>
		<path d="M305.5,301.9c7-7.7,13.4-15.6,20.7-22.5c19.9-19,43.9-26.7,71-24.3c39.5,3.4,83.9,34,91.4,83.7
			c4.2,27.9-3.6,52.9-19.4,75.9c-13.6,19.6-28.9,37.8-45.3,55.1c-22.4,23.4-45.1,46.5-68,69.4c-16.2,16.1-33.1,31.5-49.9,47.5
			c-7.6-7.1-15.2-14.1-22.5-21.2c-25-24.4-50.2-48.7-74.7-73.6c-23.8-24.2-46.6-49.2-66-77c-12-17.2-19.7-36-20.4-57.1
			c-1.2-37.8,15.5-66.3,46.9-86.7c19-12.3,40.1-17.8,62.8-15.8c25.8,2.2,46.2,14.7,63,33.8C298.7,293,302.2,297.6,305.5,301.9z"/>
	</g>
</g>
</svg>
