<?xml version="1.0" encoding="utf-8"?>
<!-- Generator: Adobe Illustrator 18.1.1, SVG Export Plug-In . SVG Version: 6.00 Build 0)  -->
<!DOCTYPE svg PUBLIC "-//W3C//DTD SVG 1.1//EN" "http://www.w3.org/Graphics/SVG/1.1/DTD/svg11.dtd">
<svg version="1.1" id="Layer_1" xmlns="http://www.w3.org/2000/svg" xmlns:xlink="http://www.w3.org/1999/xlink" x="0px" y="0px"
	 viewBox="117.6 0 134.4 144" enable-background="new 117.6 0 134.4 144" xml:space="preserve">
<path opacity="0.1" fill="#FFFFFF" d="M143.4,24c-15.5,12.3-25.8,31.5-25.8,52.8c0,36.9,30.3,67.2,67.2,67.2S252,113.7,252,76.8
	c0-21.3-10.2-40.6-25.8-52.8l-11.7,15.4c11.3,8.8,18.2,22.3,18.2,37.5c0,26.4-21.5,47.9-47.9,47.9s-47.9-21.5-47.9-47.9
	c0-15.2,7-28.7,18.2-37.5L143.4,24L143.4,24z M175.2,0v67.2h19.3V0H175.2z"/>
<text transform="matrix(1 0 0 1 145.666 55.5)"><tspan x="0" y="0" fill="#FFFFFF" font-family="'Helvetica'" font-size="24">START</tspan><tspan x="6.7" y="28.8" fill="#FFFFFF" font-family="'Helvetica'" font-size="24">STOP</tspan><tspan x="-6.7" y="57.6" fill="#FFFFFF" font-family="'Helvetica'" font-size="24">ENGINE</tspan></text>
</svg>
