<?xml version="1.0" encoding="utf-8"?>
<!-- Generator: Adobe Illustrator 18.1.1, SVG Export Plug-In . SVG Version: 6.00 Build 0)  -->
<!DOCTYPE svg PUBLIC "-//W3C//DTD SVG 1.1//EN" "http://www.w3.org/Graphics/SVG/1.1/DTD/svg11.dtd">
<svg version="1.1" id="Layer_1" xmlns="http://www.w3.org/2000/svg" xmlns:xlink="http://www.w3.org/1999/xlink" x="0px" y="0px"
	 viewBox="83.5 0 85.2 144" enable-background="new 83.5 0 85.2 144" xml:space="preserve">
<g id="_x35_37Rdo.tif">
	<g>
		<path fill="#FFFFFF" d="M83.5,72c0-18.8,0.1-37.5,0-56.3c-0.1-8,4.9-13.3,10-14.8c1.7-0.5,3.5-0.8,5.3-0.8C117,0,135.2,0,153.4,0
			c8.9,0,15.3,6.5,15.3,15.3c0,37.8,0,75.6,0,113.4c0,8.8-6.3,15.2-15.1,15.2c-18.1,0-36.3-0.2-54.5,0.1
			c-8.4,0.1-15.7-6.4-15.6-15.7C83.7,109.5,83.5,90.7,83.5,72z M95.4,19.3c0,32.3,0,64.5,0,96.7c20.5,0,41,0,61.5,0
			c0-32.3,0-64.4,0-96.7C136.3,19.3,115.9,19.3,95.4,19.3z M125.7,136.1c4.1,0,7.4-3.2,7.3-7.3c0-4.1-3.2-7.3-7.4-7.3
			c-4,0-7.2,3.2-7.3,7.2C118.3,132.8,121.6,136.1,125.7,136.1z"/>
		<path d="M95.4,19.3c20.6,0,41,0,61.5,0c0,32.2,0,64.4,0,96.7c-20.5,0-41,0-61.5,0C95.4,83.7,95.4,51.6,95.4,19.3z"/>
		<path d="M125.7,136.1c-4.1,0-7.3-3.3-7.3-7.3c0-4,3.3-7.2,7.3-7.2c4.1,0,7.3,3.1,7.4,7.3C133,132.9,129.7,136.1,125.7,136.1z"/>
	</g>
</g>
<g id="yVk292.tif">
	<g>
		<path fill="#58C1E2" d="M118.8,90.6c-5.3-5.3-10.6-10.6-15.8-15.8c2-2,4.1-4.1,6.1-6.1c3.1,3.1,6.2,6.2,9.4,9.4
			c8.1-8.6,16.2-17.1,24.2-25.7c2.1,2,4.3,4,6.4,6.1C139,69.1,128.9,79.9,118.8,90.6z"/>
	</g>
</g>
</svg>
