<?xml version="1.0" encoding="utf-8"?>
<!-- Generator: Adobe Illustrator 18.1.1, SVG Export Plug-In . SVG Version: 6.00 Build 0)  -->
<!DOCTYPE svg PUBLIC "-//W3C//DTD SVG 1.1//EN" "http://www.w3.org/Graphics/SVG/1.1/DTD/svg11.dtd">
<svg version="1.1" id="Layer_1" xmlns="http://www.w3.org/2000/svg" xmlns:xlink="http://www.w3.org/1999/xlink" x="0px" y="0px"
	 viewBox="0 0 792 612" enable-background="new 0 0 792 612" xml:space="preserve">
<g>
	<path fill="none" stroke="#FFFFFF" stroke-width="2" stroke-linecap="round" stroke-miterlimit="10" d="M250.9,179
		c26.5,12.8,61.4,39,61.4,90.4v182.1c0,29.3,25.3,53.2,56.3,53.2h57.2c31,0,56.3-23.9,56.3-53.2V275.4c0-2.6,0.3-5.1,0.6-7.7
		c3.1-19.6,20.2-101.8,91.3-101.8c80.8,0,202,0,202,0"/>
	<path fill="none" stroke="#FFFFFF" stroke-miterlimit="10" d="M201.4,165.9"/>
	<ellipse fill="none" stroke="#FFFFFF" stroke-width="3" stroke-miterlimit="10" cx="157" cy="156.2" rx="94" ry="46.7"/>
	
		<polyline fill="none" stroke="#FFFFFF" stroke-width="3" stroke-linecap="round" stroke-linejoin="round" stroke-miterlimit="10" points="
		309.4,139.6 349.2,250 453.7,250 482,139.6 309.4,139.6 	"/>
	<path fill="#31F756" d="M377.1,403.1h40c7.4,0,13.3-5.8,13.3-13.3v-85.4c0-7.4-5.8-13.3-13.3-13.3h-40.3c-7.4,0-13.3,5.8-13.3,13.3
		v85.4C363.9,397.2,369.7,403.1,377.1,403.1z"/>
	<path d="M400.6,368.7c0,2-1.6,3.6-3.6,3.6s-3.6-1.6-3.6-3.6s1.6-3.6,3.6-3.6S400.6,366.7,400.6,368.7z M411.7,374.2h-29.4
		c-0.3,0-0.7-0.3-0.7-0.3v-10.1h30.7v9.8C412.7,373.9,412.7,374.2,411.7,374.2z M382.6,320H412c0.3,0,0.3,0.3,0.3,0.3v38.6h-30.7
		v-38.2C381.9,320.3,382.3,320,382.6,320z M412,315.4h-29.4c-2.9,0-5.6,2.3-5.6,5.2v53c0,2.9,2.3,5.2,5.6,5.2H412
		c2.9,0,5.6-2.3,5.6-5.2v-53.3C417.2,317.4,414.9,315.4,412,315.4z"/>
	<g>
		<path fill="none" stroke="#FFFFFF" stroke-width="3" stroke-miterlimit="10" d="M81.5,239.1h155.3c25.7,0,46.4,21,46.4,46.4
			l-12.6,178.5c0,25.7-21,46.4-46.4,46.4h-130c-25.7,0-46.4-21-46.4-46.4L35.1,285.7C35.1,260,56.1,239.1,81.5,239.1z"/>
		<path fill="none" stroke="#FFFFFF" stroke-width="3" stroke-miterlimit="10" d="M44,400.1c0,0,36.3,2.8,41.4,32.3h147.4
			c5.1-29.5,41.4-32.3,41.4-32.3"/>
		<path fill="none" stroke="#FFFFFF" stroke-width="3" stroke-miterlimit="10" d="M198.6,495.4h-79c-9.6,0-17.5-7.9-17.5-17.5v-17.2
			c0-9.6,7.9-17.5,17.5-17.5h79c9.6,0,17.5,7.9,17.5,17.5v17.2C216.1,487.5,208.2,495.4,198.6,495.4z"/>
		<g>
			<path fill="none" stroke="#FFFFFF" stroke-width="3" stroke-miterlimit="10" d="M48,255.7c0,0,45-5.8,42,178.8"/>
			<g>
				<path fill="none" stroke="#FFFFFF" stroke-width="3" stroke-miterlimit="10" d="M272,254.7c0,0-45-5.8-42,178.8"/>
			</g>
			<path fill="none" stroke="#FFFFFF" stroke-width="3" stroke-miterlimit="10" d="M85.4,432.4"/>
		</g>
	</g>
	<g>
		<path fill="none" stroke="#FFFFFF" stroke-width="3" stroke-miterlimit="10" d="M559.9,231h155.3c25.7,0,46.4,21,46.4,46.4
			L749,455.9c0,25.7-21,46.4-46.4,46.4h-130c-25.7,0-46.4-21-46.4-46.4l-12.6-178.2C513.5,252,534.5,231,559.9,231z"/>
		<path fill="none" stroke="#FFFFFF" stroke-width="3" stroke-miterlimit="10" d="M522.4,392c0,0,36.3,2.8,41.4,32.3h147.4
			c5.1-29.5,41.4-32.3,41.4-32.3"/>
		<path fill="none" stroke="#FFFFFF" stroke-width="3" stroke-miterlimit="10" d="M677,487.4h-79c-9.6,0-17.5-7.9-17.5-17.5v-17.2
			c0-9.6,7.9-17.5,17.5-17.5h79c9.6,0,17.5,7.9,17.5,17.5v17.2C694.5,479.5,686.7,487.4,677,487.4z"/>
		<g>
			<path fill="none" stroke="#FFFFFF" stroke-width="3" stroke-miterlimit="10" d="M526.4,247.6c0,0,45-5.8,42,178.8"/>
			<g>
				<path fill="none" stroke="#FFFFFF" stroke-width="3" stroke-miterlimit="10" d="M750.4,246.6c0,0-45-5.8-42,178.8"/>
			</g>
			<path fill="none" stroke="#FFFFFF" stroke-width="3" stroke-miterlimit="10" d="M563.8,424.4"/>
		</g>
	</g>
</g>
</svg>
