<?xml version="1.0" encoding="utf-8"?>
<!-- Generator: Adobe Illustrator 18.1.1, SVG Export Plug-In . SVG Version: 6.00 Build 0)  -->
<!DOCTYPE svg PUBLIC "-//W3C//DTD SVG 1.1//EN" "http://www.w3.org/Graphics/SVG/1.1/DTD/svg11.dtd">
<svg version="1.1" id="Layer_1" xmlns="http://www.w3.org/2000/svg" xmlns:xlink="http://www.w3.org/1999/xlink" x="0px" y="0px"
	 viewBox="0 0 267.4 267.4" enable-background="new 0 0 267.4 267.4" xml:space="preserve">
<g>
	<defs>
		<circle id="SVGID_1_" cx="133.7" cy="133.7" r="133.7"/>
	</defs>
	<clipPath id="SVGID_2_">
		<use xlink:href="#SVGID_1_"  overflow="visible"/>
	</clipPath>
	<g clip-path="url(#SVGID_2_)">
		<path fill="#FFFFFF" d="M158.2,279.2c-4.1,0-7.3,0-10.5,0c-0.7-3.6-1-7.2-2-10.5c-3.6-12.6-11.9-21.8-21.9-29.6
			c-17.7-13.6-38.2-21-59.7-25.9c-16.2-3.7-32.7-5.2-49.3-5.6c-0.8,0-1.7-0.2-2.7-0.3c0-3.3,0-6.5,0-10.4c7,0.3,14,0.4,21,1
			c20.2,1.5,39.9,5.4,59,12.2c1,0.4,2.7,0,3.6-0.7c30.1-22,64.4-33.7,100.5-40.8c5.1-1,10.2-1.8,15.5-2.7c0-4.2,0-8.3,0-12.9
			c-5.7,0-11.2,0-16.7,0c-3.8,0-7.7,0-11.5,0c-6.3,0-8.4-3.6-5.5-9.2c3.1-6,6.3-12,9.5-18c0.6-1.2,1.2-2.4,2-4
			c-1.4-0.1-2.4-0.2-3.5-0.3c-5.2-0.4-7.3-4.6-4.2-8.9c4.9-6.8,10-13.5,15-20.3c0.4-0.6,0.8-1.2,1.6-2.4c-2.2,0-3.8,0-5.5,0
			c-5-0.2-7.3-4.2-4.7-8.5c2.8-4.5,5.8-8.9,8.8-13.3c5.1-7.6,10.1-15.3,15.2-22.9c3.4-5.1,7.3-5,10.7,0.1
			c7.9,11.9,15.9,23.8,23.7,35.9c1,1.5,1.3,4.3,0.6,5.7c-0.8,1.5-3.2,2.3-5,2.9c-1.6,0.5-3.4,0.1-5.8,0.1
			c5.5,7.5,10.6,14.4,15.8,21.3c1.6,2.1,3.4,4,2.1,7c-1.3,3.1-4,3.4-6.8,3.3c-0.6,0-1.2,0.2-2.2,0.3c3.9,7.3,7.6,14.4,11.3,21.5
			c3.3,6.3,1.3,9.7-5.8,9.7c-9.3,0-18.6,0-28.1,0c0,3.8,0,7.4,0,11.2c13.8-0.8,27.6-1.5,41.6-2.3c0,3.9,0,7.2,0,10.8
			c-56.3,1-110.3,10.8-158.4,42.2c8.5,5.5,17,10.3,24.8,16.1c12.4,9.2,21.8,20.8,25.7,36.1C157.3,270.9,157.6,274.9,158.2,279.2z
			 M232.6,79.5c-5.3-8-10.2-15.4-15.3-23.1c-5.1,7.7-10,15.1-15.2,23.1c2.6,0,4.4-0.3,6,0.1c1.9,0.5,4.4,1.3,5.1,2.7
			c0.8,1.6,0.4,4.5-0.6,6.1c-2.6,4.2-5.8,8-8.7,12c-2.5,3.3-4.9,6.7-7.4,10.2c7,1.6,8.6,4.2,6,9.5c-0.4,0.8-0.8,1.5-1.2,2.3
			c-3.5,6.6-7,13.3-10.6,20.1c17.9,0,35.3,0,53.1,0c-0.7-1.6-1.3-2.8-1.9-3.9c-3.3-6.3-6.8-12.6-10.1-19c-2.1-4-0.5-7.4,3.5-8.3
			c0.8-0.2,1.7-0.2,2.9-0.4c-1.1-1.5-1.9-2.7-2.8-3.9c-4.4-6-9-11.8-13.2-17.9c-1.1-1.7-1.9-4.7-1.1-6.3c0.8-1.6,3.6-2.4,5.6-3
			C228.4,79.1,230.1,79.5,232.6,79.5z"/>
		<path fill="#FFFFFF" d="M28.1,101.4C28.1,86.8,40,74.9,54.5,75c14.3,0.1,26.2,11.9,26.3,26.3c0.1,14.4-12,26.4-26.5,26.4
			C39.9,127.6,28.1,115.8,28.1,101.4z M54.5,85.6c-8.6-0.1-15.9,7.1-15.9,15.7c0,8.6,7.2,15.9,15.8,15.9c8.4,0,15.6-7.1,15.7-15.6
			C70.2,92.9,63.2,85.7,54.5,85.6z"/>
	</g>
</g>
</svg>
