<?xml version="1.0" encoding="utf-8"?>
<!-- Generator: Adobe Illustrator 18.1.0, SVG Export Plug-In . SVG Version: 6.00 Build 0)  -->
<!DOCTYPE svg PUBLIC "-//W3C//DTD SVG 1.1//EN" "http://www.w3.org/Graphics/SVG/1.1/DTD/svg11.dtd">
<svg version="1.1" id="Layer_1" xmlns="http://www.w3.org/2000/svg" xmlns:xlink="http://www.w3.org/1999/xlink" x="0px" y="0px"
	 viewBox="0 0 450.5 450" enable-background="new 0 0 450.5 450" xml:space="preserve">
<g id="uPzltD.tif">
	<g>
		<path fill="#FFFFFF" d="M450.4,94.9C408,138.1,365.9,181,323.5,224.2c42.4,43.2,84.5,86.1,126.9,129.3
			c-31.5,32.1-62.8,64-94.6,96.4c-42.4-43.2-84.5-86-127-129.4c-42.3,43.1-84.4,86-127,129.3c-33.8-32.2-67.4-64.1-101.3-96.4
			c41.3-43.1,82.4-86.1,123.8-129.4C82.9,181,41.5,138,0,94.9C14.9,80.7,29.5,66.8,44.2,53C61.7,36.4,79.3,19.8,96.9,3.3
			c4.6-4.4,5.6-4.4,10.1,0.3c39.5,40.2,78.9,80.3,118.4,120.5c1,1.1,2,2.2,3.8,4.3c4-4.3,7.5-8.4,11.3-12.3
			c17-17.4,34-34.8,51.1-52.1c19.8-20.2,39.7-40.4,59.6-60.6c4.4-4.5,5.1-4.5,9.6,0.1c29.2,29.7,58.4,59.4,87.5,89.1
			C448.8,93.2,449.4,93.8,450.4,94.9z"/>
	</g>
</g>
</svg>
