<?xml version="1.0" encoding="utf-8"?>
<!-- Generator: Adobe Illustrator 18.1.1, SVG Export Plug-In . SVG Version: 6.00 Build 0)  -->
<!DOCTYPE svg PUBLIC "-//W3C//DTD SVG 1.1//EN" "http://www.w3.org/Graphics/SVG/1.1/DTD/svg11.dtd">
<svg version="1.1" id="Layer_1" xmlns="http://www.w3.org/2000/svg" xmlns:xlink="http://www.w3.org/1999/xlink" x="0px" y="0px"
	 viewBox="0 0 52.1 33.5" enable-background="new 0 0 52.1 33.5" xml:space="preserve">
<g>
	<g>
		<path fill="#FFFFFF" d="M29.5,0C34.7,0,39,4.2,39,9.4c0,5.2-4.2,9.4-9.4,9.4c-5.3,0-9.5-4.1-9.5-9.4C20,4.2,24.2,0,29.5,0
			 M29.5,11.8c1.3,0,2.4-1.1,2.4-2.4c0-1.3-1.1-2.4-2.5-2.4C28.1,7,27,8.1,27,9.5C27.1,10.8,28.2,11.9,29.5,11.8"/>
		<path fill="#FFFFFF" d="M0,27.6c0-2.2,1.7-3.9,3.9-3.9c2.2,0,3.9,1.8,3.9,3.9c0,2.1-1.7,3.8-3.9,3.9C1.8,31.6,0,29.8,0,27.6
			 M6.3,27.6c0-1.3-1.1-2.4-2.4-2.4c-1.3,0-2.4,1.2-2.4,2.5c0,1.3,1.1,2.3,2.4,2.3C5.2,30,6.3,29,6.3,27.6"/>
		<path fill="#FFFFFF" d="M10.3,26.3c1-0.6,2.2-0.6,3.1,0.1c0.9,0.8,1.2,2.2,0.7,3.4c-0.5,1.3-1.4,1.7-3.7,1.6
			c0,0.7-0.1,1.4-0.1,2.1H8.9c0-1.7,0-3.4,0-5c0-0.6,0-1.2,0-1.8c0-0.3,0.2-0.7,0.3-0.8C9.5,25.9,9.8,26.1,10.3,26.3 M10.4,28.7
			c0,1.2,0.2,1.4,1,1.4c0.8,0,1.5-0.6,1.5-1.5c0-0.8-0.6-1.5-1.3-1.6C10.7,27.1,10.4,27.6,10.4,28.7"/>
		<path fill="#FFFFFF" d="M37.9,23.8h1.3V26c1.6-0.3,3.1-0.3,3.8,1.5c0.5,1.2,0.2,2.6-0.7,3.4c-0.9,0.8-1.9,0.8-3.2,0.1
			c-0.4,0.2-0.7,0.4-1.2,0.6V23.8z M40.3,27.1c-1,0-1.1,0.3-1.1,1.8c0,0.8,0.5,1.3,1.3,1.3c0.7,0,1.3-0.7,1.3-1.6
			C41.7,27.7,41.1,27.1,40.3,27.1"/>
		<path fill="#FFFFFF" d="M25.2,31.4c0-1.1,0-2,0-2.9c0-0.7-0.1-1.4-1-1.4c-0.8,0-1.2,0.5-1.2,1.4c0,0.9,0,1.8,0,2.7
			c-1.4,0.4-1.5,0.3-1.5-0.9c0-1.2,0-2.3,0-3.5c0-0.3,0.2-0.7,0.3-0.8c0.3-0.1,0.6,0.1,1.1,0.3c0.3-0.1,0.9-0.3,1.4-0.4
			c1.3-0.1,2,0.5,2.2,1.8c0.1,1,0.1,2.1,0,3.1C26.6,31.8,25.8,31.2,25.2,31.4"/>
		<path fill="#FFFFFF" d="M26.5,25.1v-1.4h5.8v1.3h-2.1v6.2c-1.5,0.3-1.5,0.2-1.5-1.1c0-1.7,0-3.3,0-5.1H26.5z"/>
		<path fill="#FFFFFF" d="M19.4,29.8c0.8,0.7,0.8,1-0.2,1.4c-1.1,0.5-2.5,0.3-3.3-0.5c-0.8-0.8-1-2.2-0.5-3.3
			c0.5-1.1,1.5-1.6,2.8-1.5c1.4,0.1,2.2,1.2,2.1,3h-3.6C17.1,30.3,17.7,30.5,19.4,29.8 M18.9,27.9c0-0.1,0.1-0.3,0.1-0.4
			c-0.4-0.2-0.9-0.4-1.3-0.4c-0.3,0-0.7,0.4-1,0.6c0.1,0.1,0.1,0.2,0.2,0.2H18.9z"/>
		<path fill="#FFFFFF" d="M52,28.9h-3.6c0.2,1.4,1,1.6,2.9,0.8c0,0.1,0.1,0.3,0.2,0.5c0.1,0.1,0.2,0.3,0.2,0.4
			c-0.9,1-2.5,1.2-3.5,0.5c-1.1-0.7-1.6-2.3-1-3.6c0.6-1.3,1.9-1.9,3.3-1.5C51.6,26.3,52.3,27.3,52,28.9 M48.5,27.6
			c0,0.1,0.1,0.2,0.1,0.3h2c0-0.1,0.1-0.2,0.1-0.3c-0.4-0.2-0.7-0.5-1.1-0.5C49.3,27.1,48.9,27.4,48.5,27.6"/>
		<path fill="#FFFFFF" d="M15.2,7.1c1.3,0,2.3,1,2.3,2.3c0,1.3-1.1,2.4-2.4,2.3c-1.2,0-2.3-1.1-2.3-2.3C12.8,8.1,13.9,7.1,15.2,7.1"
			/>
		<path fill="#FFFFFF" d="M32.6,27.2c-0.1-0.4-0.2-0.7-0.3-1.2c1.1,0,2-0.2,3-0.1c0.8,0.1,1.1,0.8,1.2,1.5c0.1,1.1,0,2.3,0,3.4
			c0,0.6-0.6,0.7-0.8,0.4c-0.4-0.4-0.6-0.2-1,0c-1.4,0.6-2.7-0.1-2.8-1.4c-0.1-1,0.4-1.7,1.4-1.8c0.6-0.1,1.2,0,1.7,0
			C34.9,26.9,34.6,26.9,32.6,27.2 M34.3,28.5c-0.4,0.5-0.8,0.8-0.9,1.1c0,0.2,0.4,0.7,0.7,0.7c0.5,0.1,1.1-0.2,1-0.9
			C35,29.2,34.7,29,34.3,28.5"/>
		<path fill="#FFFFFF" d="M44.3,23.8h1.4c0,1.8,0,3.5,0,5.2c0,0.3,0.1,0.6,0.2,0.9c0.1,0.4,0.2,0.9,0.3,1.3
			c-0.4,0.1-0.8,0.3-1.1,0.1c-0.3-0.2-0.8-0.6-0.8-0.9c-0.1-1.5,0-2.9,0-4.4C44.3,25.3,44.3,24.6,44.3,23.8"/>
	</g>
</g>
</svg>
