<?xml version="1.0" encoding="utf-8"?>
<!-- Generator: Adobe Illustrator 18.1.0, SVG Export Plug-In . SVG Version: 6.00 Build 0)  -->
<!DOCTYPE svg PUBLIC "-//W3C//DTD SVG 1.1//EN" "http://www.w3.org/Graphics/SVG/1.1/DTD/svg11.dtd">
<svg version="1.1" id="Layer_1" xmlns="http://www.w3.org/2000/svg" xmlns:xlink="http://www.w3.org/1999/xlink" x="0px" y="0px"
	 viewBox="0 0 393.8 449.7" enable-background="new 0 0 393.8 449.7" xml:space="preserve">
<g id="C6LJBc.tif">
	<g>
		<path fill="#FFFFFF" d="M168.7,58.1c0-9.9,0-19.8,0-30.2c-9.2,0-18.1,0-27.5,0c0-9.5,0-18.5,0-27.9c37,0,74.1,0,111.5,0
			c0,9,0,18,0,27.5c-9,0-17.9,0-27.2,0c0,10.5,0,20.6,0,31c30.9,4.8,59.6,15.5,85.6,34.3c-11,8.6-21.7,16.9-32.4,25.3
			c-3.8,3-7.8,5.8-11.4,8.9c-2.4,2.1-4.2,2.5-7.4,0.8c-81.9-42.4-181.8,5.4-200.7,96C43,301.8,93.7,377.3,172.6,391.2
			c78.2,13.8,149.1-38.4,162.6-112.6c5.6-30.6,1.5-59.9-12.4-87.8c-1.5-3-1.3-4.8,0.8-7.4c11.4-14.3,22.5-28.9,33.8-43.3
			c34.1,42.3,53,123.5,17.4,197.3c-39.5,81.9-127.5,125.2-213.9,108.9C71.7,429.5,4,353.5,0.2,260.1
			C-3.9,160.1,70.6,71.1,168.7,58.1z"/>
		<path fill="#FFFFFF" d="M362.2,88.4c-5.6,7.1-11.2,14.2-16.8,21.3C305.9,159.4,266.5,209,227,258.7c-3.2,4-6.2,8.2-9.7,12.1
			c-7,7.9-15.8,11.8-26.4,9c-11.2-3-18.5-10.3-21.1-21.7c-2.5-10.9,1.5-19.6,10-26.4c59.1-47,118.3-94,177.4-141c1.3-1,2.6-2,3.9-3
			C361.6,87.9,361.9,88.2,362.2,88.4z"/>
	</g>
</g>
</svg>
