<?xml version="1.0" encoding="utf-8"?>
<!-- Generator: Adobe Illustrator 18.1.0, SVG Export Plug-In . SVG Version: 6.00 Build 0)  -->
<!DOCTYPE svg PUBLIC "-//W3C//DTD SVG 1.1//EN" "http://www.w3.org/Graphics/SVG/1.1/DTD/svg11.dtd">
<svg version="1.1" id="Layer_1" xmlns="http://www.w3.org/2000/svg" xmlns:xlink="http://www.w3.org/1999/xlink" x="0px" y="0px"
	 viewBox="0 230.1 332 274" enable-background="new 0 230.1 332 274" xml:space="preserve">
<g id="gdUtxf.tif">
	<g>
		<path fill="#59C1E2" d="M332,368.8c-0.5,48.6-17.8,92.6-52.5,129.8c-0.8,0.8-1.3,1.6-2.1,2.1c-4.2,4.2-8.8,4.5-12.2,0.8
			c-3.5-3.5-2.9-8,1.1-12.5c4.2-4.5,8.5-9.3,12.5-14.3c21-26.8,33.4-57.3,36.4-91.3c4.5-50.4-10.4-94.7-43.8-133
			c-1.6-1.9-3.5-3.5-4.8-5.3c-4.5-4.5-4.8-9-1.3-12.5c3.7-3.7,8.5-3.5,12.7,1.6c8.5,10.1,17.5,20.2,24.7,31.3
			C322.2,296.6,331.7,330.3,332,368.8z"/>
		<path fill="#59C1E2" d="M0,367.5c0.8-49.6,17.3-92.9,51.2-129.5c1.1-1.1,2.1-2.4,3.2-3.5c4.5-4.5,9-4.8,12.5-1.1
			c3.5,3.5,2.7,7.7-1.1,12.5c-7.7,9-15.7,18-22.3,27.9c-19.1,28.9-28.1,61-27.6,95.8c0.8,46.4,17.5,86.3,49.4,119.7
			c2.1,2.1,3.7,5.8,3.5,8.5c-0.3,2.1-3.2,5.3-5.6,5.8c-2.4,0.5-6.4-0.5-8.2-2.7c-9-10.9-18.6-21.5-26.3-33.4
			c-16.7-25.7-25.7-54.4-28.1-85.2C0.3,380.5,0,378.6,0,377C0,373.6,0,370.7,0,367.5z"/>
		<path fill="#59C1E2" d="M47.2,367.7c0.8-39,14.1-72.2,40.6-99.8c2.7-2.7,5.6-4.8,8.8-3.2c2.4,1.1,4.8,3.7,5.3,6.1
			c0.5,2.1-0.8,5.6-2.7,7.4c-11.7,13.3-22,27.6-27.6,44.6c-16.5,48-8.2,91.3,24.7,129.8c1.3,1.6,2.9,2.9,4.2,4.5
			c2.9,3.5,2.9,8,0,10.9c-3.2,3.2-8,3.2-11.4-0.3c-10.9-10.9-19.9-23.4-26.8-37.2C52.3,410.7,47.8,389.5,47.2,367.7z"/>
		<path fill="#59C1E2" d="M284.5,369.6c-0.8,36.1-13.8,69.3-40.1,96.9c-2.4,2.4-4.8,5-8.2,3.7c-2.4-0.8-4.8-2.7-6.4-4.8
			c-1.9-2.9-0.3-5.8,1.6-8.5c6.9-8.8,14.6-17.3,20.2-26.8C279.5,382.6,272,321,234.1,281c-0.8-0.8-1.6-1.9-2.7-2.9
			c-3.5-4-3.7-8.2-0.3-11.7c3.5-3.5,8.2-3.2,11.9,1.1c6.9,8.2,14.1,16.5,19.9,25.5C277.9,315.7,284.2,340.7,284.5,369.6z"/>
		<path fill="#59C1E2" d="M95,367.2c0.3-25.5,9.3-47.5,27.1-66.1c3.7-3.7,8.8-4,11.9-0.8c3.2,3.2,2.9,8-0.5,11.7
			c-14.1,14.6-21.8,32.1-22.6,52c-0.8,21.2,6.1,40.3,20.4,56.5c0.8,0.8,1.9,1.9,2.7,2.7c3.2,3.7,3.2,8.8-0.3,11.7
			c-3.2,2.9-8.2,2.7-11.4-0.8c-8-8.2-14.3-17.5-19.1-28.1C97.7,393.7,95,380.7,95,367.2z"/>
		<path fill="#59C1E2" d="M237,367.2c-1.1,27.9-10.1,48.6-26.5,66.1c-4,4-8.8,4.8-12.2,1.6c-3.5-3.2-3.5-8.2,0.5-11.9
			c14.3-14.9,21.8-32.6,22.6-53.1c0.5-21-6.4-39.8-20.4-55.5c-0.8-1.1-2.1-2.1-2.9-3.2c-2.7-3.5-2.7-8.2,0.3-11.1s8-2.9,10.9,0.3
			c4,4.2,8,8.8,11.4,13.5C232.2,331.1,237.5,350.2,237,367.2z"/>
	</g>
</g>
</svg>
