<?xml version="1.0" encoding="utf-8"?>
<!-- Generator: Adobe Illustrator 18.1.0, SVG Export Plug-In . SVG Version: 6.00 Build 0)  -->
<!DOCTYPE svg PUBLIC "-//W3C//DTD SVG 1.1//EN" "http://www.w3.org/Graphics/SVG/1.1/DTD/svg11.dtd">
<svg version="1.1" id="Layer_1" xmlns="http://www.w3.org/2000/svg" xmlns:xlink="http://www.w3.org/1999/xlink" x="0px" y="0px"
	 viewBox="480 0 196 239.9" enable-background="new 0 0 675.7 239.9" xml:space="preserve">
<g id="SChiLX.tif">
	<g>


		<path fill="#FFFFFF" d="M577.9,217.9c-53.9,0.1-97.7-43.6-97.9-97.7c-0.3-54.3,43.3-98.1,97.8-98.1c54.2-0.1,97.6,43.2,98,97.5
			C676.1,173.6,632.1,217.7,577.9,217.9z M589.3,119.9c0,11.2,0.1,22.3,0,33.5c0,4.1,1.3,7.2,5.2,8.8c3.7,1.5,6.8,0,9.4-2.6
			c11-11.1,22.2-22.1,33.2-33.3c4.5-4.6,4.4-8.4-0.1-13c-10.9-11-21.9-21.9-32.8-32.9c-2.9-2.9-6.1-4.3-9.9-2.8
			c-3.9,1.5-5.1,4.8-5,8.9C589.4,97.6,589.3,108.8,589.3,119.9z M527.3,119.5c0,11,0.1,22,0,33c-0.1,4.2,0.8,7.8,4.9,9.5
			c4,1.7,7.3,0.1,10.2-3c10.6-10.8,21.3-21.5,32-32.3c4.9-4.9,4.9-8.9,0.1-13.8c-10.8-10.9-21.6-21.7-32.4-32.6
			c-2.9-2.9-6.1-4.3-9.9-2.7c-3.9,1.5-5,4.9-5,8.9C527.4,97.6,527.3,108.6,527.3,119.5z"/>

		<path d="M589.3,119.9c0-11.2,0.1-22.3,0-33.5c0-4.1,1.2-7.4,5-8.9c3.8-1.5,7-0.1,9.9,2.8c10.9,11.1,21.9,21.9,32.8,32.9
			c4.5,4.6,4.6,8.4,0.1,13c-11,11.1-22.1,22.2-33.2,33.3c-2.7,2.7-5.7,4.2-9.4,2.6c-3.9-1.6-5.2-4.7-5.2-8.8
			C589.4,142.3,589.3,131.1,589.3,119.9z"/>
		<path d="M527.3,119.5c0-11,0.1-22,0-33c0-4,1.1-7.4,5-8.9c3.8-1.5,7-0.2,9.9,2.7c10.7,10.9,21.6,21.7,32.4,32.6
			c4.8,4.9,4.7,8.8-0.1,13.8c-10.6,10.8-21.4,21.5-32,32.3c-3,3-6.2,4.7-10.2,3c-4-1.7-4.9-5.3-4.9-9.5
			C527.4,141.5,527.3,130.5,527.3,119.5z"/>
	</g>
</g>
</svg>
