<?xml version="1.0" encoding="utf-8"?>
<!-- Generator: Adobe Illustrator 18.1.0, SVG Export Plug-In . SVG Version: 6.00 Build 0)  -->
<!DOCTYPE svg PUBLIC "-//W3C//DTD SVG 1.1//EN" "http://www.w3.org/Graphics/SVG/1.1/DTD/svg11.dtd">
<svg version="1.1" id="Layer_1" xmlns="http://www.w3.org/2000/svg" xmlns:xlink="http://www.w3.org/1999/xlink" x="0px" y="0px"
	 viewBox="218 0 240 239.9" enable-background="new 0 0 675.7 239.9" xml:space="preserve">
<g id="SChiLX.tif">
	<g>
		<path fill="#FFFFFF" d="M337.9,239.9c-66.1,0.1-120-53.9-120-120.2C218,53.3,271.6-0.1,338.1,0c66.3,0.1,119.5,53.4,119.8,119.7
			C458,185.8,404.1,239.8,337.9,239.9z M304.3,119.6c0,13.3,0,26.7,0,40c0,9.1,6.1,12.6,13.9,8c22.1-13.2,44.3-26.5,66.3-39.8
			c7.6-4.6,7.6-11.2,0-15.8c-22.1-13.3-44.2-26.6-66.3-39.8c-7.9-4.7-13.9-1.3-13.9,7.8C304.3,93.3,304.3,106.4,304.3,119.6z"/>

		<path d="M304.3,119.6c0-13.2,0-26.3,0-39.5c0-9.1,6-12.5,13.9-7.8c22.1,13.2,44.3,26.5,66.3,39.8c7.6,4.6,7.6,11.2,0,15.8
			c-22.1,13.3-44.2,26.6-66.3,39.8c-7.8,4.6-13.9,1.1-13.9-8C304.3,146.3,304.3,132.9,304.3,119.6z"/>

	</g>
</g>
</svg>
