<?xml version="1.0" encoding="utf-8"?>
<!-- Generator: Adobe Illustrator 18.1.0, SVG Export Plug-In . SVG Version: 6.00 Build 0)  -->
<!DOCTYPE svg PUBLIC "-//W3C//DTD SVG 1.1//EN" "http://www.w3.org/Graphics/SVG/1.1/DTD/svg11.dtd">
<svg version="1.1" id="Layer_1" xmlns="http://www.w3.org/2000/svg" xmlns:xlink="http://www.w3.org/1999/xlink" x="0px" y="0px"
	 viewBox="0 0 384.3 401.9" enable-background="new 0 0 384.3 401.9" xml:space="preserve">
<g id="eFqsuA.tif">
	<g>
		<path fill="#FFFFFF" d="M314.7,125.3c38.9-3.9,70.2,24.5,69.6,62.8c-0.5,31.8-27.8,59.3-59.7,59.4c-66.6,0.2-133.3,0.3-199.9,0
			c-62.4-0.3-113.1-44-123.1-105.4C-9.2,76.6,37.8,11.5,103.1,1.7c49.9-7.4,90.2,9.4,121,49.2c1.9,2.5,3.6,3,6.7,2.3
			c38.7-8.8,77,17.7,82.6,57C314,115.1,314.2,120.1,314.7,125.3z"/>
		<path fill="#FFFFFF" d="M310.7,315.7c-7.4-0.9-12-7.2-9.3-13.7c4.5-10.9,9.6-21.5,14.7-32.1c2.2-4.6,7.4-5.9,12-3.9
			c4.3,1.9,7,6.6,5.1,11.2c-4.8,11.5-10,22.8-15.6,33.9C316.6,313.2,313.1,314.1,310.7,315.7z"/>
		<path fill="#FFFFFF" d="M86.8,315.7c-7.4-0.8-12.1-7-9.4-13.6c4.5-10.9,9.6-21.5,14.7-32.1c2.3-4.6,7.3-6,12-4.1
			c4.3,1.8,7,6.5,5.1,11.1c-4.8,11.5-10,22.8-15.6,33.9C92.6,313.1,89.2,314.1,86.8,315.7z"/>
		<path fill="#FFFFFF" d="M256.7,315.9c-7.4-1.1-12-7.3-9.4-13.4c4.5-10.9,9.5-21.6,14.6-32.2c2.3-4.8,7.7-6.4,12.4-4.3
			c4.3,1.9,6.9,7.1,4.9,11.7c-4.7,11-9.6,21.9-15,32.6C262.8,312.7,259.2,314,256.7,315.9z"/>
		<path fill="#FFFFFF" d="M166.4,275.6c-0.2,0.7-0.6,2.6-1.3,4.2c-4.5,9.4-9,18.9-13.6,28.2c-3.1,6.2-8.3,8.4-13.3,5.8
			c-5.2-2.7-6.7-7.9-3.7-14.1c4.6-9.6,9.1-19.2,13.9-28.7c2.5-4.9,6.5-6.7,11-5.5C163.5,266.5,166.3,270.1,166.4,275.6z"/>
		<path fill="#FFFFFF" d="M200.5,316c-8-1.1-12.5-7.5-9.6-14.3c4.5-10.6,9.3-20.9,14.3-31.2c2.5-5.2,7.9-6.7,12.7-4.3
			c4.5,2.2,6.5,7.3,4.3,12.3c-4.6,10.5-9.2,21-14.4,31.2C206.4,312.3,203,313.9,200.5,316z"/>
		<path fill="#FFFFFF" d="M178.9,364.5c-8.4,0.3-13.5-6.3-11-12.6c2.6-6.8,5.7-13.4,9-19.9c2.5-4.9,7.7-6.4,12.3-4.2
			c4.6,2.2,6.8,7.2,4.8,12.2c-2.7,6.6-5.5,13.2-9,19.3C183.5,361.9,180.3,363.4,178.9,364.5z"/>
		<path fill="#FFFFFF" d="M224.1,354.2c0.1-0.6,0.2-2.1,0.8-3.4c2.7-6.1,5.3-12.1,8.3-18.1c2.7-5.5,7.8-7.3,12.8-4.9
			c4.8,2.3,6.7,7.3,4.4,12.7c-2.6,6.3-5.4,12.5-8.5,18.5c-2,4.1-5.6,6.2-10.3,5.3C227,363.4,224.2,359.9,224.1,354.2z"/>
		<path fill="#FFFFFF" d="M81.5,337c-0.3,0.9-0.5,2.6-1.2,4c-2.5,5.8-5.1,11.5-7.9,17.2c-2.8,5.8-7.9,7.8-13.1,5.3
			c-4.8-2.3-6.5-7.5-4.1-13.2c2.6-6.1,5.3-12.1,8.3-18.1c2.2-4.3,6.7-6.3,10.8-5C78.8,328.6,81.3,331.5,81.5,337z"/>
		<path fill="#FFFFFF" d="M278.2,353.8c0.1-0.5,0.4-1.8,0.9-3c2.7-6.1,5.3-12.1,8.3-18.1c2.6-5.2,7.6-7.1,12.4-5
			c5.1,2.2,7.1,7.3,4.7,12.9c-2.6,6.3-5.4,12.5-8.4,18.5c-2.2,4.4-6.6,6.2-10.8,5C280.6,362.8,278,359.3,278.2,353.8z"/>
		<path fill="#FFFFFF" d="M126.6,325.7c7.5,0.8,12.2,7,9.6,13.4c-2.8,6.9-6.2,13.5-9.7,20.1c-2.4,4.5-7.6,5.7-12.1,3.6
			c-4.4-2.1-6.7-7-4.7-11.7c2.9-6.8,6.1-13.6,9.8-20C120.9,328.6,124.2,327.4,126.6,325.7z"/>
		<path fill="#FFFFFF" d="M114.3,385.7c-2.7,4.6-5,9.6-8.3,13.8c-2.5,3.1-6.6,3-10.1,1c-3.6-2-6-5.4-4.7-9.5
			c1.3-4.4,3.4-8.6,5.9-12.4c2.4-3.6,6.5-3.8,10.4-2.4C111.3,377.7,113.2,380.9,114.3,385.7z"/>
	</g>
</g>
</svg>
