<?xml version="1.0" encoding="utf-8"?>
<!-- Generator: Adobe Illustrator 18.1.1, SVG Export Plug-In . SVG Version: 6.00 Build 0)  -->
<!DOCTYPE svg PUBLIC "-//W3C//DTD SVG 1.1//EN" "http://www.w3.org/Graphics/SVG/1.1/DTD/svg11.dtd">
<svg version="1.1" id="Layer_1" xmlns="http://www.w3.org/2000/svg" xmlns:xlink="http://www.w3.org/1999/xlink" x="0px" y="0px"
	 viewBox="0 0 46 75" enable-background="new 0 0 46 75" xml:space="preserve">
<path fill="#FFFFFF" d="M38.5,53.4c0,1.2-1,2.1-2.1,2.1H9.6c-1.2,0-2.1-1-2.1-2.1V30.7c0-1.2,1-2.1,2.1-2.1h26.8
	c1.2,0,2.1,1,2.1,2.1L38.5,53.4L38.5,53.4z M30.9,16.9h2.5v-2.5H36v2.5h2.5v2.7H36v2.5h-2.7v-2.5h-2.5V16.9z M38.2,6.3
	c0.9-0.1,1.6-0.9,1.6-1.9V1.9c0-1-0.8-1.9-1.9-1.9H8.1c-1,0-1.9,0.8-1.9,1.9v2.6c0,0.9,0.7,1.7,1.6,1.9C3.9,9,0,13.9,0,17.1v49.8
	C0,71.6,3.8,75,8.5,75h29c4.7,0,8.5-3.4,8.5-8.1V17.1C46,13.9,42.1,9,38.2,6.3z"/>
<path fill="#FFFFFF" d="M33.6,33.3H12.4c-0.8,0-1.5,0.7-1.5,1.5c0,0.8,0.7,1.5,1.5,1.5h21.1c0.8,0,1.5-0.7,1.5-1.5
	C35.1,34,34.4,33.3,33.6,33.3z"/>
<path fill="#FFFFFF" d="M33.6,40.7H12.4c-0.8,0-1.5,0.7-1.5,1.5c0,0.8,0.7,1.5,1.5,1.5h21.1c0.8,0,1.5-0.7,1.5-1.5
	C35.1,41.4,34.4,40.7,33.6,40.7z"/>
<path fill="#FFFFFF" d="M33.6,47.6H21c-0.8,0-1.5,0.7-1.5,1.5c0,0.8,0.7,1.5,1.5,1.5h12.6c0.8,0,1.5-0.7,1.5-1.5
	C35.1,48.3,34.4,47.6,33.6,47.6z"/>
</svg>
