<?xml version="1.0" encoding="utf-8"?>
<!-- Generator: Adobe Illustrator 18.1.1, SVG Export Plug-In . SVG Version: 6.00 Build 0)  -->
<!DOCTYPE svg PUBLIC "-//W3C//DTD SVG 1.1//EN" "http://www.w3.org/Graphics/SVG/1.1/DTD/svg11.dtd">
<svg version="1.1" id="Layer_1" xmlns="http://www.w3.org/2000/svg" xmlns:xlink="http://www.w3.org/1999/xlink" x="0px" y="0px"
	 viewBox="250.3 0 85.2 144" enable-background="new 250.3 0 85.2 144" xml:space="preserve">
<g id="_x35_37Rdo.tif">
	<g>
		<path fill="#FFFFFF" d="M250.3,72c0-18.8,0.1-37.5,0-56.3c-0.1-8,4.9-13.3,10-14.8c1.7-0.5,3.5-0.8,5.3-0.8C283.8,0,302,0,320.2,0
			c8.9,0,15.3,6.5,15.3,15.3c0,37.8,0,75.6,0,113.4c0,8.8-6.3,15.2-15.1,15.2c-18.1,0-36.3-0.2-54.5,0.1
			c-8.4,0.1-15.7-6.4-15.6-15.7C250.5,109.5,250.3,90.7,250.3,72z M262.2,19.3c0,32.3,0,64.5,0,96.7c20.5,0,41,0,61.5,0
			c0-32.3,0-64.4,0-96.7C303.1,19.3,282.7,19.3,262.2,19.3z M292.5,136.1c4.1,0,7.4-3.2,7.3-7.3c0-4.1-3.2-7.3-7.4-7.3
			c-4,0-7.2,3.2-7.3,7.2C285.1,132.8,288.4,136.1,292.5,136.1z"/>
		<path d="M262.2,19.3c20.6,0,41,0,61.5,0c0,32.2,0,64.4,0,96.7c-20.5,0-41,0-61.5,0C262.2,83.7,262.2,51.6,262.2,19.3z"/>
		<path d="M292.5,136.1c-4.1,0-7.3-3.3-7.3-7.3s3.3-7.2,7.3-7.2c4.1,0,7.3,3.1,7.4,7.3C299.8,132.9,296.5,136.1,292.5,136.1z"/>
	</g>
</g>
<path fill="#E05A5A" d="M281.6,46.9v46.8h22.7V46.9C304.3,46.9,281.6,46.9,281.6,46.9z M287.7,36.9h10.5c2.2,0,3.9,1.8,3.9,4v1.2
	v0.1h4.5c1.3,0,2.3,1.1,2.3,2.4V96c0,1.3-1,2.4-2.3,2.4h-27.3c-1.3,0-2.3-1.1-2.3-2.4V44.6c0-1.3,1-2.3,2.3-2.3h4.5v-0.1v-1.3
	C283.8,38.7,285.5,36.9,287.7,36.9z M301.8,86.4v4.5h-17.7v-4.5H301.8z"/>
</svg>
