<?xml version="1.0" encoding="utf-8"?>
<!-- Generator: Adobe Illustrator 18.1.1, SVG Export Plug-In . SVG Version: 6.00 Build 0)  -->
<!DOCTYPE svg PUBLIC "-//W3C//DTD SVG 1.1 Basic//EN" "http://www.w3.org/Graphics/SVG/1.1/DTD/svg11-basic.dtd">
<svg version="1.1" baseProfile="basic" id="Layer_1"
	 xmlns="http://www.w3.org/2000/svg" xmlns:xlink="http://www.w3.org/1999/xlink" x="0px" y="0px" viewBox="71.6 0 468.8 791.8"
	 xml:space="preserve">
<g id="_x35_37Rdo.tif">
	<g>
		<path fill="#FFFFFF" d="M72,395.9c0-103.2,0.5-206.4-0.2-309.4c-0.4-43.8,26.7-73,54.9-81.5c9.3-2.9,19.2-4.7,28.9-4.7
			C255.9,0,356.1,0,456.2,0c48.8,0,84.2,35.5,84.2,84.2c0,207.8,0,415.7,0,623.5c0,48.6-34.8,83.8-83.3,83.8
			c-99.8,0-199.7-0.9-299.5,0.4c-46.1,0.7-86.5-35.4-86-86.3C72.7,602.3,72,499.1,72,395.9z M137.1,106.1c0,177.7,0,354.6,0,531.8
			c112.9,0,225.4,0,338.1,0c0-177.5,0-354.5,0-531.8C362.4,106.1,250.2,106.1,137.1,106.1z M303.7,748.6c22.6,0,40.6-17.8,40.4-40.2
			c-0.2-22.6-17.8-40-40.6-40c-22.1,0.2-39.7,17.8-40,39.7C263.3,730.4,281.1,748.6,303.7,748.6z"/>
		<path d="M137.1,106.1c113.1,0,225.2,0,338.1,0c0,177.3,0,354.3,0,531.8c-112.7,0-225.2,0-338.1,0
			C137.1,460.5,137.1,283.7,137.1,106.1z"/>
		<path d="M303.7,748.6c-22.4,0-40.4-18.1-40.2-40.4c0.2-22.1,17.9-39.7,40-39.7c22.8-0.2,40.4,17.2,40.6,40
			C344,730.8,326.1,748.6,303.7,748.6z"/>
	</g>
</g>
<g>
	<g>
		<g>
			<path fill="#FFFFFF" d="M403.1,421c0,20.2-27.4,27.5-43,27.5s-44.4-7.3-44.4-27.5s30-27.5,45.6-27.5c9.5,0,19.9,1.7,27.3,5.6
				v-76.9l-109.7,34v101.6c0,20.2-29.4,27.5-45.1,27.5s-45.4-7.3-45.4-27.5c0-20.2,27.9-27.5,43.5-27.5c9.5,0,17.8,1.7,25.1,5.6
				V297.2c0-6,6.6-11.3,12.3-13.2l120.4-36.7c1.3-0.4,0.4-0.6,1.9-0.6c7.6,0,11.6,6.2,11.6,13.8V421L403.1,421L403.1,421z"/>
		</g>
	</g>
</g>
</svg>
