<?xml version="1.0" encoding="utf-8"?>
<!-- Generator: Adobe Illustrator 18.1.1, SVG Export Plug-In . SVG Version: 6.00 Build 0)  -->
<!DOCTYPE svg PUBLIC "-//W3C//DTD SVG 1.1//EN" "http://www.w3.org/Graphics/SVG/1.1/DTD/svg11.dtd">
<svg version="1.1" id="Layer_1" xmlns="http://www.w3.org/2000/svg" xmlns:xlink="http://www.w3.org/1999/xlink" x="0px" y="0px"
	 viewBox="0 0 55.3 56.8" enable-background="new 0 0 55.3 56.8" xml:space="preserve">
<g>
	<path fill="#FFFFFF" d="M37.1,16.5c0-0.1,0-0.1,0-0.2c0,0,0-0.1,0-0.1c0,0,0,0,0-0.1c-0.1-0.5-0.3-1-0.7-1.4
		c-0.4-0.4-0.9-0.6-1.4-0.7c0,0,0,0-0.1,0c0,0-0.1,0-0.1,0c-0.1,0-0.1,0-0.2,0h-16c-1.4,0-2.5,1.1-2.6,2.5c0,1.4,1.1,2.6,2.6,2.6
		h9.9L14.7,32.7c-1,1-1,2.6,0,3.6c1,1,2.6,1,3.6,0L32,22.6v9.9c0,1.4,1.1,2.6,2.6,2.6s2.5-1.1,2.5-2.6V16.5
		C37.1,16.5,37.1,16.5,37.1,16.5z"/>
	<path fill="#FFFFFF" d="M39.9,11.1c8,8,8,20.9,0,28.9c-8,8-20.9,8-28.9,0c-8-8-8-20.9,0-28.9C19,3.1,32,3.1,39.9,11.1z M7.5,43.5
		c10,10,26.1,10,36.1,0s10-26.1,0-36.1s-26.1-10-36.1,0S-2.5,33.6,7.5,43.5z"/>
</g>
<g>
	<path fill="#FFFFFF" d="M51.9,36.9c4.5,4.5,4.5,11.9,0,16.4c-4.5,4.5-11.9,4.5-16.4,0c-4.5-4.5-4.5-11.9,0-16.4
		C40,32.4,47.3,32.4,51.9,36.9"/>
	<g>
		<defs>
			<rect id="SVGID_1_" x="35.3" y="37.3" width="16.7" height="15.7"/>
		</defs>
		<clipPath id="SVGID_2_">
			<use xlink:href="#SVGID_1_"  overflow="visible"/>
		</clipPath>
		<g clip-path="url(#SVGID_2_)">
			<defs>
				<rect id="SVGID_3_" x="35.3" y="37.3" width="16.7" height="15.7"/>
			</defs>
			<clipPath id="SVGID_4_">
				<use xlink:href="#SVGID_3_"  overflow="visible"/>
			</clipPath>
			<g clip-path="url(#SVGID_4_)">
				<defs>
					<rect id="SVGID_5_" x="35.3" y="37.3" width="16.7" height="15.7"/>
				</defs>
				<clipPath id="SVGID_6_">
					<use xlink:href="#SVGID_5_"  overflow="visible"/>
				</clipPath>
				<path clip-path="url(#SVGID_6_)" d="M45,53h-0.7c0-0.2-0.1-0.5-0.1-0.7c-0.2-0.8-0.8-1.4-1.4-2c-1.2-0.9-2.5-1.4-3.9-1.7
					c-1.1-0.2-2.2-0.3-3.3-0.4c-0.1,0-0.1,0-0.2,0v-0.7c0.5,0,0.9,0,1.4,0.1c1.3,0.1,2.6,0.4,3.9,0.8c0.1,0,0.2,0,0.2,0
					c2-1.5,4.3-2.2,6.6-2.7c0.3-0.1,0.7-0.1,1-0.2v-0.8c-0.4,0-0.7,0-1.1,0c-0.3,0-0.5,0-0.8,0c-0.4,0-0.6-0.2-0.4-0.6
					c0.2-0.4,0.4-0.8,0.6-1.2c0-0.1,0.1-0.2,0.1-0.3c-0.1,0-0.2,0-0.2,0c-0.3,0-0.5-0.3-0.3-0.6c0.3-0.5,0.7-0.9,1-1.3
					c0,0,0.1-0.1,0.1-0.2c-0.1,0-0.3,0-0.4,0c-0.3,0-0.5-0.3-0.3-0.6c0.2-0.3,0.4-0.6,0.6-0.9c0.3-0.5,0.7-1,1-1.5
					c0.2-0.3,0.5-0.3,0.7,0c0.5,0.8,1.1,1.6,1.6,2.4c0.1,0.1,0.1,0.3,0,0.4c-0.1,0.1-0.2,0.2-0.3,0.2c-0.1,0-0.2,0-0.4,0
					c0.4,0.5,0.7,1,1,1.4c0.1,0.1,0.2,0.3,0.1,0.5c-0.1,0.2-0.3,0.2-0.4,0.2c0,0-0.1,0-0.1,0c0.3,0.5,0.5,1,0.7,1.4
					c0.2,0.4,0.1,0.6-0.4,0.6c-0.6,0-1.2,0-1.9,0v0.7c0.9-0.1,1.8-0.1,2.8-0.2V46c-3.7,0.1-7.3,0.7-10.5,2.8
					c0.6,0.4,1.1,0.7,1.6,1.1c0.8,0.6,1.4,1.4,1.7,2.4C44.9,52.5,44.9,52.7,45,53 M49.9,39.8c-0.4-0.5-0.7-1-1-1.5
					c-0.3,0.5-0.7,1-1,1.5c0.2,0,0.3,0,0.4,0c0.1,0,0.3,0.1,0.3,0.2c0.1,0.1,0,0.3,0,0.4c-0.2,0.3-0.4,0.5-0.6,0.8
					c-0.2,0.2-0.3,0.4-0.5,0.7c0.5,0.1,0.6,0.3,0.4,0.6c0,0.1-0.1,0.1-0.1,0.2c-0.2,0.4-0.5,0.9-0.7,1.3h3.5c0-0.1-0.1-0.2-0.1-0.3
					c-0.2-0.4-0.4-0.8-0.7-1.3c-0.1-0.3,0-0.5,0.2-0.5c0.1,0,0.1,0,0.2,0c-0.1-0.1-0.1-0.2-0.2-0.3c-0.3-0.4-0.6-0.8-0.9-1.2
					c-0.1-0.1-0.1-0.3-0.1-0.4c0.1-0.1,0.2-0.2,0.4-0.2C49.6,39.8,49.7,39.8,49.9,39.8"/>
				<path clip-path="url(#SVGID_6_)" d="M36.4,41.3c0-1,0.8-1.7,1.7-1.7c0.9,0,1.7,0.8,1.7,1.7c0,1-0.8,1.7-1.8,1.7
					C37.2,43,36.4,42.2,36.4,41.3 M38.1,40.2c-0.6,0-1,0.5-1,1c0,0.6,0.5,1.1,1,1c0.6,0,1-0.5,1-1C39.2,40.7,38.7,40.2,38.1,40.2"/>
			</g>
		</g>
	</g>
</g>
</svg>
