<?xml version="1.0" encoding="utf-8"?>
<!-- Generator: Adobe Illustrator 18.1.0, SVG Export Plug-In . SVG Version: 6.00 Build 0)  -->
<!DOCTYPE svg PUBLIC "-//W3C//DTD SVG 1.1//EN" "http://www.w3.org/Graphics/SVG/1.1/DTD/svg11.dtd">
<svg version="1.1" id="Layer_1" xmlns="http://www.w3.org/2000/svg" xmlns:xlink="http://www.w3.org/1999/xlink" x="0px" y="0px"
	 viewBox="1.5 149.8 610.7 492.4" enable-background="new 1.5 149.8 610.7 492.4" xml:space="preserve">
<path fill="#FFFFFF" d="M394.8,607.8c-11.9,4.8-23.7,9.7-38.9,15.8c6-53.3,26.7-80.5,69.6-88.4c40.6-7.5,82.2-12.1,123.5-13.6
	c45.5-1.7,71.3,33.5,60.8,77.4c-4.9,20.8-25.3,27.5-42.1,14.5c-6.5-5.1-13.9-12.5-20.9-12.6c-46.4-1-92.7-0.8-139.2-0.1
	c-4.7,0-9.2,5.2-13.7,7.9L394.8,607.8z"/>
<path fill="none" stroke="#FFFFFF" stroke-width="3" stroke-miterlimit="10" d="M338.7,596.7c-21.7-74.4-43.2-148.4-64.8-222.3
	c-5.8-20,2.3-29.6,21.9-30.9c27.9-1.8,47.2,11.7,55.6,37.2c13.4,40.3,25.9,81.2,35.1,122.6c2.7,12.2-5.2,28.3-11.9,40.6
	C365.2,561.4,352.4,577.1,338.7,596.7z"/>
<path fill="none" stroke="#FFFFFF" stroke-width="3" stroke-miterlimit="10" d="M264.2,340.7c-7.3-22.3-13.4-43.6-21.1-64.2
	c-7.8-20.4,2.3-23.9,19.1-23.1c24.6,1,58.2,46,51.4,70.2c-1.2,4.2-7.3,8.4-11.9,9.9C290.6,336.4,279.1,337.8,264.2,340.7z"/>
<path fill="#FFFFFF" d="M596.3,642.2c-82.7,0-157.2,0-233.1,0C376,625.1,566.2,622.4,596.3,642.2z"/>
<path fill="#FFFFFF" d="M393.7,608.9c52.3,0.1,104.5,0.1,156.8,0.5c2.1,0,4,3,12.5,9.5c-58.4,0-109.8,0.1-161.2-0.5
	c-2.3,0-4.7-6.9-7-10.6C394.8,607.8,393.7,608.9,393.7,608.9z"/>
<g>
	<path fill="#FFFFFF" d="M342.2,593.2c-41.5-65.4-82.7-130.5-124.1-195.4c-11.2-17.5-6-29.1,12.5-35.8c26.3-9.6,48.6-1.9,63.8,20.2
		c24,35,47.5,70.7,67.8,107.9c6,10.9,2.9,28.5-0.1,42.3C357.8,551.8,349.9,570.5,342.2,593.2z"/>
	<path fill="#FFFFFF" d="M199.3,368.1c-13.2-19.3-24.9-38.1-38.3-55.8c-13.1-17.4-4.4-23.5,11.8-27.5c24-5.8,68.7,28,68.9,53
		c0,4.3-4.5,10.1-8.7,12.7C223.6,356.6,212.9,361.2,199.3,368.1z"/>
</g>
<g>
	<path fill="none" stroke="#FFFFFF" stroke-width="3" stroke-miterlimit="10" d="M344.2,596C285.4,545.6,227,495.3,168.5,445.2
		c-15.8-13.5-14.1-26.1,1.6-37.9c22.4-16.7,45.9-16,66.9,0.8c33.2,26.6,66,53.8,96.4,83.5c8.9,8.7,11,26.5,12.2,40.5
		C347,552.1,344.8,572.2,344.2,596z"/>
	<path fill="none" stroke="#FFFFFF" stroke-width="3" stroke-miterlimit="10" d="M142,422.3c-18.3-14.7-34.9-29.3-52.8-42.3
		c-17.6-12.8-11.2-21.1,3.2-29.7c21.1-12.6,73.9,6.7,81.3,30.7c1.3,4.2-1.4,11-4.7,14.8C161.7,404.4,152.9,411.8,142,422.3z"/>
</g>
<g>
	<g>
		<path fill="none" stroke="#FFFFFF" stroke-width="11" stroke-miterlimit="10" d="M6.4,307.6c0,0,58.5-113.1,196.1-131.2"/>
		<g>
			<polygon fill="#FFFFFF" points="251.7,174.2 183.9,206.5 198.8,177.2 180.7,149.8 			"/>
		</g>
	</g>
</g>
</svg>
