<?xml version="1.0" encoding="utf-8"?>
<!-- Generator: Adobe Illustrator 18.1.1, SVG Export Plug-In . SVG Version: 6.00 Build 0)  -->
<!DOCTYPE svg PUBLIC "-//W3C//DTD SVG 1.1//EN" "http://www.w3.org/Graphics/SVG/1.1/DTD/svg11.dtd">
<svg version="1.1" id="Layer_1" xmlns="http://www.w3.org/2000/svg" xmlns:xlink="http://www.w3.org/1999/xlink" x="0px" y="0px"
	 viewBox="0 0 206.4 206.4" enable-background="new 0 0 206.4 206.4" xml:space="preserve">
<g>
	<path fill="#FFFFFF" d="M179,99c-3.5-3.5-8.7-6.3-21.6-6.3c0,0,0,0-0.2,0c-4,0-11,1.6-20.4,4.5c-16.4,5.1-41.1,12.4-71.3,14.6
		c-26.1,1.9-34.8-3-37.8-7.5v-0.2l-0.2-0.2c0,0,0,0,0.2,0.2c8.4,5.6,31.2,4.5,44.3,3.5h0.2c21.8-1.7,43.7-6.1,53.5-10.5
		c1.4-0.7,3-1.2,4.5-1.9c3-1.2,6.1-2.3,9.4-3.1c15.5-4.5,29.8-5.1,36.1-1c2.6,1.6,4,3.7,4.2,5.2C180,97.5,179.5,98.5,179,99z
		 M157.4,125c-0.3-1.2-1-3-2.8-4.5c-4.4-3.8-15.5-7-42.9-0.2c-22.1,5.4-31,8.9-36.4,11.2c-5.9,2.4-7.8,3.1-18.5,3.1
		c-0.3-0.2-0.5-0.3-0.9-0.3c-10.5-5.4-19.3-16.7-24-23.7c5.1,2.6,12.7,4,22.8,4c3.5,0,7.3-0.2,11.3-0.5c30.3-2.3,55.2-9.6,71.8-14.6
		c9.1-3.1,15.9-4.9,19.5-4.9c0,0,0,0,0.2,0c12.4,0,17.1,2.8,20.2,6.1C176.6,103.4,170.8,114.9,157.4,125z M156.4,125.7
		c-0.9,0.7-1.7,1.2-2.6,1.7c0-2.6-1.6-4.9-4.4-6.1c-2.3-1-5.8-1.7-9.9-1.7c-15.7-0.2-40.4,6.4-57.2,12.7c-2.8,1-5.2,2.1-7.5,3
		c-0.5,0.2-0.9,0.3-1.4,0.5c-4.5,1.6-9.4,1.6-14.5-0.3c8.7-0.2,11-1,16.6-3.1c5.2-2.1,14.3-5.8,36.2-11c26.8-6.6,37.6-3.7,41.8,0
		C155.8,122.9,156.4,124.7,156.4,125.7C156.5,125.7,156.5,125.7,156.4,125.7z M123.1,134.1L123.1,134.1c-0.5-2.3,3.3-3.5,7-4.4
		c3.3-0.7,7.1-5.8,8.7-8c0.2,0,0.5,0,0.7,0c3.1,0,5.8,0.3,7.8,1C145,125.2,137.7,131.4,123.1,134.1z M151.7,128.8
		c-19.5,11.9-44.4,14.5-74.2,7.7c1.6-0.7,3.5-1.4,5.4-2.1c9.4,1.9,18.1,3,26.1,3c5.1,0,9.9-0.3,14.5-1.2c16.6-3,24-10.3,25.8-12.4
		c1.9,1,2.6,2.6,2.3,4.9C151.7,128.7,151.7,128.7,151.7,128.8z M27.1,97.6L27.1,97.6c2.6-9.1,37.6-10.5,52.1-10.1
		c-0.2,0.3-0.3,0.9-0.5,1.2c-0.3,0.9-0.7,1.9-1,2.8c-7,0-44.4,0.2-48.4,11c-1-0.7-1.7-1.6-2.1-2.6C26.9,99,26.9,98.3,27.1,97.6z
		 M71.7,105.7c-19.3,1.6-33.8,0.7-40.6-2.3c2.1-8.2,32.2-9.8,45.6-9.8C75.2,97.6,73.4,101.6,71.7,105.7z M80.6,89.5
		c1-3,2.3-5.9,3.3-8.9l0.7-2.3c0.2-0.7,0.5-1.4,0.9-2.3c0.5-1.4,1.2-2.8,1.9-4.2c0.7-1.2,1.7-2.6,2.8-3.5s2.4-1.4,3.8-0.9
		c1.4,0.3,2.4,1.4,3.3,2.4c0.3,0.5,0.7,1.2,1,1.9c0.3,0.7,0.5,1.4,0.7,2.3c0.5,1.6,0.9,3.1,1.2,4.5c0.2,0.7,0.5,1.6,1,2.3
		c0.2,0.3,0.5,0.7,0.9,1c0.3,0.3,0.7,0.5,1.2,0.7c0.9,0.2,1.6,0.3,2.4,0.2c0.3,0,0.9-0.2,1.2-0.3c0.3-0.2,0.7-0.5,0.9-1
		c0.3-0.9,0.2-1.7,0-2.4c-0.2-0.9-0.5-1.6-0.9-2.3c0,0-0.2-0.2-0.2,0c0,0-0.2,0.2,0,0.2c0.3,0.7,0.5,1.6,0.7,2.3
		c0.2,0.7,0.2,1.6,0,2.3c-0.2,0.7-0.9,0.9-1.7,0.9c-0.7,0-1.6-0.2-2.3-0.3c-0.7-0.2-1-0.7-1.4-1.4c-0.3-0.7-0.5-1.4-0.9-2.1
		c-0.3-1.6-0.7-3.1-1.2-4.5c-0.2-0.7-0.3-1.6-0.7-2.3c-0.2-0.9-0.7-1.6-1-2.3c-0.5-0.7-1-1.4-1.9-2.1c13.6-5.4,25.6,14.3,30.1,23
		c0.9,1.6,1.4,2.8,1.7,3.7c-1.2,0.5-2.4,1-3.5,1.6c-9.1,4-30.3,8.2-51.1,10.1c1.7-4,3.5-8.2,5.1-12.4c0.2-0.2,0.2-0.3,0.2-0.5
		C79.7,91.6,80.2,90.5,80.6,89.5z M134.9,91.6c-1.4,0.5-2.8,1-4.2,1.6c-0.2-0.5-0.5-1.2-1-2.1C131.4,91.2,133.4,91.4,134.9,91.6z
		 M176.9,89.3c-6.8-4.2-21.4-3.8-37.5,0.9c-1.2-0.2-6.6-1.2-11-1.4c-5.2-9.8-18.3-30.3-33.6-23.2c-0.2,0.2-0.3,0.2-0.5,0.3l0,0
		c-0.9-0.2-1.9-0.3-2.8,0c-0.9,0.2-1.7,0.7-2.4,1.2c-1.4,1-2.4,2.4-3.3,3.8c-0.9,1.4-1.6,3-2.3,4.4c-0.3,0.7-0.5,1.6-0.9,2.3
		l-0.5,2.3c-0.7,1.9-1.4,3.7-2.1,5.6c-1.4,0-13.4-0.2-25.8,0.9C36.5,87.9,26.7,91.5,25,96.9h-0.2h-0.2c0,0.3-1.2,4.4,1.4,8.4h0.2
		c0.9,1.4,12.9,22.3,28.7,30.5c4.2,2.1,8.2,3.3,12.2,3.3c2.4,0,4.7-0.3,7-1.2c12,3,23.2,4.4,33.6,4.4c17.4,0,32.8-4,45.8-12.2
		c1.4-0.9,2.8-1.7,4-2.8c15.5-11.2,21.4-24.6,22.3-26.7c0.7-0.5,2.3-2.3,2.1-4.7C182,93.6,180.2,91.4,176.9,89.3z"/>
	<circle fill="none" stroke="#FFFFFF" stroke-width="13" stroke-miterlimit="10" cx="103.2" cy="103.2" r="96.7"/>
</g>
</svg>
