<?xml version="1.0" encoding="utf-8"?>
<!-- Generator: Adobe Illustrator 18.1.0, SVG Export Plug-In . SVG Version: 6.00 Build 0)  -->
<!DOCTYPE svg PUBLIC "-//W3C//DTD SVG 1.1//EN" "http://www.w3.org/Graphics/SVG/1.1/DTD/svg11.dtd">
<svg version="1.1" id="Layer_1" xmlns="http://www.w3.org/2000/svg" xmlns:xlink="http://www.w3.org/1999/xlink" x="0px" y="0px"
	 viewBox="0 0 261.2 441.3" enable-background="new 0 0 261.2 441.3" xml:space="preserve">
<g id="_x35_37Rdo.tif">
	<g>
		<path fill="#FFFFFF" d="M0.2,220.6c0-57.5,0.3-115-0.1-172.4C-0.1,23.8,15,7.5,30.7,2.8c5.2-1.6,10.7-2.6,16.1-2.6
			C102.7,0,158.5,0,214.3,0c27.2,0,46.9,19.8,46.9,46.9c0,115.8,0,231.6,0,347.4c0,27.1-19.4,46.7-46.4,46.7
			c-55.6,0-111.3-0.5-166.9,0.2C22.2,441.6-0.3,421.5,0,393.1C0.6,335.6,0.2,278.1,0.2,220.6z M36.5,59.1c0,99,0,197.6,0,296.3
			c62.9,0,125.6,0,188.4,0c0-98.9,0-197.5,0-296.3C162,59.1,99.5,59.1,36.5,59.1z M129.3,417.1c12.6,0,22.6-9.9,22.5-22.4
			c-0.1-12.6-9.9-22.3-22.6-22.3c-12.3,0.1-22.1,9.9-22.3,22.1C106.8,407,116.7,417.1,129.3,417.1z"/>
		<path d="M36.5,59.1c63,0,125.5,0,188.4,0c0,98.8,0,197.4,0,296.3c-62.8,0-125.5,0-188.4,0C36.5,256.6,36.5,158.1,36.5,59.1z"/>
		<path d="M129.3,417.1c-12.5,0-22.5-10.1-22.4-22.5c0.1-12.3,10-22.1,22.3-22.1c12.7-0.1,22.5,9.6,22.6,22.3
			C151.8,407.2,141.8,417.1,129.3,417.1z"/>
	</g>
</g>
</svg>
