<?xml version="1.0" encoding="utf-8"?>
<!-- Generator: Adobe Illustrator 18.1.0, SVG Export Plug-In . SVG Version: 6.00 Build 0)  -->
<!DOCTYPE svg PUBLIC "-//W3C//DTD SVG 1.1//EN" "http://www.w3.org/Graphics/SVG/1.1/DTD/svg11.dtd">
<svg version="1.1" id="Layer_1" xmlns="http://www.w3.org/2000/svg" xmlns:xlink="http://www.w3.org/1999/xlink" x="0px" y="0px"
	 viewBox="0 0 429.3 449.9" enable-background="new 0 0 429.3 449.9" xml:space="preserve">
<g id="jopc5N.tif">
	<g>
		<path fill="#FFFFFF" d="M201.3,12.7C204,3.8,207.8,0.1,214.5,0c6.8-0.1,10.7,3.5,13.6,12.7c116.4,8.4,192.8,100.8,201.2,192.7
			c-13.8-19-32-29-55.1-27.1c-22.8,1.9-39.3,14.1-49.8,34.8c-8.2-16.2-20.2-27.4-37.2-32.4c-20.9-6.2-39.7-1.6-56.5,12
			c-2.7,2.2-3.2,4.6-3.1,7.8c0.1,59.5,0.1,119,0,178.5c0,35.4-25.7,65-60.8,70.1c-42,6.1-79.9-26.1-80.7-68.4
			c-0.1-8,4.9-13.9,12.3-14.2c7.7-0.4,13,5.2,13.4,14.1c1,22.2,17.8,40.9,39,43.4c22.6,2.7,43-10.8,49.1-32.6
			c1.3-4.7,1.7-9.8,1.8-14.8c0.1-59.3,0-118.6,0.2-178c0-4-2-6-4.7-8.1c-30-22.6-71.6-13.3-89.3,19.9c-0.4,0.7-0.8,1.4-1.5,2.7
			c-11.1-21.2-28-33.6-51.6-34.8c-23.5-1.2-41.5,9.5-54.9,29.5C7.7,113.8,85.5,20.7,201.3,12.7z"/>
	</g>
</g>
</svg>
