<?xml version="1.0" encoding="utf-8"?>
<!-- Generator: Adobe Illustrator 18.1.0, SVG Export Plug-In . SVG Version: 6.00 Build 0)  -->
<!DOCTYPE svg PUBLIC "-//W3C//DTD SVG 1.1//EN" "http://www.w3.org/Graphics/SVG/1.1/DTD/svg11.dtd">
<svg version="1.1" id="Layer_1" xmlns="http://www.w3.org/2000/svg" xmlns:xlink="http://www.w3.org/1999/xlink" x="0px" y="0px"
	 viewBox="0 90 612 612" enable-background="new 0 90 612 612" xml:space="preserve">
<circle fill="#FFFFFF" cx="306" cy="396" r="306"/>
<g id="p3X7Wl.tif">
	<g>
		<path d="M276.5,556.9c-9.5-1.1-18.3-1.9-27-3.3c-19.1-3-37.6-8.1-54.9-17c-2.6-1.3-3.2-2.6-2.4-5.4c4.7-17.9,9.1-35.8,13.6-53.8
			c0.2-0.7,0.5-1.4,0.9-2.2c13.8,7.8,28.3,13.7,43.5,17.5c20.1,5,40.4,7.4,60.9,2.5c6.3-1.5,12.6-4.1,18.1-7.4
			c16.2-9.7,18-29.4,4.3-42.4c-8.8-8.4-19.6-13.5-30.7-17.9c-13.3-5.3-26.8-9.8-40-15.2c-14.7-6-28.1-14.3-40.3-24.4
			c-15.4-12.8-24.2-29.1-27-48.7c-3.2-23.1,0.9-44.8,14.7-64.1c13-18.3,31.3-29.1,52.3-35.8c5.1-1.6,10.3-2.8,15.5-3.9
			c2.5-0.6,3.7-1.5,3.6-4.4c-0.2-13.4-0.1-26.9-0.1-40.3c0-1.4,0-2.7,0-4.3c16.8,0,33.2,0,50,0c0,14.8,0,29.4,0,44.5
			c25.8,1,50.5,5.6,73.8,17c-5,19.3-9.9,38.3-14.7,57.2c-9.8-3.7-19.2-8-29-10.9c-22-6.4-44.3-8.8-67-4.1
			c-8.7,1.8-15.9,6.3-20.6,14.1c-5.6,9.2-4.9,20.4,2.9,27.8c5.4,5.1,11.7,9.9,18.4,13c15.8,7.2,32.1,13.3,48.2,19.7
			c16.5,6.6,32.3,14.2,45.9,25.8c21.2,18,29.7,41.5,29.3,68.9c-0.6,39.7-23.5,71.2-62.3,85.4c-4.8,1.7-9.7,3.2-14.6,4.5
			c-4.8,1.3-9.7,2.2-15,3.4c0,17,0,34.2,0,51.7c-16.9,0-33.5,0-50.4,0C276.5,588.5,276.5,572.8,276.5,556.9z"/>
	</g>
</g>
</svg>
