<?xml version="1.0" encoding="utf-8"?>
<!-- Generator: Adobe Illustrator 18.1.0, SVG Export Plug-In . SVG Version: 6.00 Build 0)  -->
<!DOCTYPE svg PUBLIC "-//W3C//DTD SVG 1.1//EN" "http://www.w3.org/Graphics/SVG/1.1/DTD/svg11.dtd">
<svg version="1.1" id="Layer_1" xmlns="http://www.w3.org/2000/svg" xmlns:xlink="http://www.w3.org/1999/xlink" x="0px" y="0px"
	 viewBox="0 0 184.5 412.3" enable-background="new 0 0 184.5 412.3" xml:space="preserve">
<g id="vzXyuu.tif">
	<g>
		<path fill="#FFFFFF" d="M0,205.8c0-63.7,0-127.3,0-191C0,3.2,3.2,0,14.9,0c51.8,0,103.7,0,155.5,0c10.6,0,14.2,3.5,14.2,14
			c0,128.2,0,256.3,0,384.5c0,10.2-3.7,13.8-13.8,13.8c-52.3,0-104.7,0-157,0c-10.1,0-13.7-3.6-13.7-14C0,334.1,0,270,0,205.8z
			 M141.1,206.5c0.1-27.2-21.9-49.3-49-49.3c-26.6,0-48.5,21.9-48.7,48.6c-0.2,26.9,21.7,49.2,48.5,49.3
			C118.8,255.2,141,233.3,141.1,206.5z M141.1,332.4c0-27.1-22-49.1-49.3-49.1c-26.2,0-48.4,22.4-48.4,49
			c0,26.9,21.9,48.8,48.8,48.8C119.3,381.2,141.1,359.4,141.1,332.4z M141.1,80.1c0.1-26.8-21.6-48.9-48.1-49
			c-27.4-0.1-49.4,21.5-49.6,48.6C43.2,106.3,65,128.6,91.6,129C118.5,129.4,141,107.2,141.1,80.1z"/>
		<path d="M141.1,206.5c-0.1,26.8-22.2,48.7-49.2,48.6c-26.7-0.1-48.7-22.4-48.5-49.3c0.2-26.7,22.1-48.6,48.7-48.6
			C119.2,157.2,141.2,179.3,141.1,206.5z"/>
		<path d="M141.1,332.4c0,27-21.8,48.7-48.9,48.7c-26.9,0-48.9-21.9-48.8-48.8c0-26.6,22.2-49,48.4-49
			C119.1,283.4,141.1,305.3,141.1,332.4z"/>
		<path d="M141.1,80.1c-0.1,27.1-22.6,49.3-49.5,48.9c-26.6-0.4-48.4-22.7-48.2-49.2c0.2-27.2,22.1-48.7,49.6-48.6
			C119.4,31.2,141.1,53.3,141.1,80.1z"/>
	</g>
</g>
</svg>
