<?xml version="1.0" encoding="utf-8"?>
<!-- Generator: Adobe Illustrator 18.1.0, SVG Export Plug-In . SVG Version: 6.00 Build 0)  -->
<!DOCTYPE svg PUBLIC "-//W3C//DTD SVG 1.1//EN" "http://www.w3.org/Graphics/SVG/1.1/DTD/svg11.dtd">
<svg version="1.1" id="Layer_1" xmlns="http://www.w3.org/2000/svg" xmlns:xlink="http://www.w3.org/1999/xlink" x="0px" y="0px"
	 viewBox="0 0 297.9 475.5" enable-background="new 0 0 297.9 475.5" xml:space="preserve">
<g id="RdzH6Y.tif">
	<g>
		<path fill="#FFFFFF" d="M17.3,18.7c8.8-0.9,17.1-2.4,25.4-2.4c24.9,0.2,47.9,7.7,69.7,19.2c15.3,8.1,29.8,17.8,45.2,25.7
			c47,24.1,93.1,23.3,137.6-6.8c0.6-0.4,1.2-0.6,2.4-1.2c0.1,1.9,0.3,3.4,0.3,4.9c0,65.1,0,130.1,0.1,195.2c0,3.4-0.9,5.5-3.8,7.5
			c-40.3,26.8-82.8,30-126.5,10.6c-16.6-7.4-31.7-17.9-47.8-26.6c-21.9-11.9-44.8-21-69.9-22.5c-9.2-0.5-18.5,1-27.7,1.7
			c-4.5,0.3-4.9,3.2-4.9,7.1c0.1,76.9,0.1,153.8,0.1,230.7c0,1.8,0.1,3.6,0,5.4c-0.3,4.8-3.6,8.1-8.1,8.3c-4.5,0.2-8.3-2.9-9-7.5
			c-0.2-1.6-0.1-3.2-0.1-4.8C0,312.9,0,162.7,0,12.4c0-1.6-0.1-3.3,0.1-4.8C0.8,3,4.6-0.2,9.1,0c4.5,0.2,7.9,3.5,8.2,8.3
			C17.4,11.9,17.3,15.4,17.3,18.7z"/>
	</g>
</g>
</svg>
