<?xml version="1.0" encoding="utf-8"?>
<!-- Generator: Adobe Illustrator 18.1.1, SVG Export Plug-In . SVG Version: 6.00 Build 0)  -->
<!DOCTYPE svg PUBLIC "-//W3C//DTD SVG 1.1//EN" "http://www.w3.org/Graphics/SVG/1.1/DTD/svg11.dtd">
<svg version="1.1" id="Layer_1" xmlns="http://www.w3.org/2000/svg" xmlns:xlink="http://www.w3.org/1999/xlink" x="0px" y="0px"
	 viewBox="0 0 97.6 97.6" enable-background="new 0 0 97.6 97.6" xml:space="preserve">
<circle fill="#EC008C" cx="48.8" cy="48.8" r="48.8"/>
<g>
	<path fill="#FFFFFF" d="M24.2,38.6h-0.1l-7.3,3.5l-1.5-6.8l10.3-4.7H33v38.5h-8.7V38.6z"/>
	<path fill="#FFFFFF" d="M45.7,69.1v-5.5l4.9-4.4c8.5-7.6,12.6-11.9,12.6-16.4c0-3.1-1.8-5.6-6.3-5.6c-3.3,0-6.2,1.7-8.2,3.1
		l-2.5-6.4c2.8-2.2,7.4-4,12.6-4c8.8,0,13.5,5.1,13.5,12c0,6.5-4.6,11.7-10.3,16.6l-3.6,3v0.1H73v7.4H45.7z"/>
</g>
</svg>
