<?xml version="1.0" encoding="utf-8"?>
<!-- Generator: Adobe Illustrator 18.1.0, SVG Export Plug-In . SVG Version: 6.00 Build 0)  -->
<!DOCTYPE svg PUBLIC "-//W3C//DTD SVG 1.1//EN" "http://www.w3.org/Graphics/SVG/1.1/DTD/svg11.dtd">
<svg version="1.1" id="Layer_1" xmlns="http://www.w3.org/2000/svg" xmlns:xlink="http://www.w3.org/1999/xlink" x="0px" y="0px"
	 viewBox="0 0 416.8 71.9" enable-background="new 0 0 416.8 71.9" xml:space="preserve">
<g id="PdZzpU.tif">
	<g>
		<path fill="#FFFFFF" d="M183.8,63.8c0.7-4.4,1.7-9,1.9-13.6c0.1-2-0.8-4.5-2.1-6c-2.8-3.3-6.2-6-9.2-9.2c-4.8-5.2-2.9-12.3,4-12.5
			c12.6-0.3,19.9-5.7,23.8-17.6c2.1-6.3,10-5.9,13.2,0c1.6,2.9,3.3,5.8,4.3,9c1.5,5.2,5.1,6.7,10,7.1c3.3,0.2,6.6,0.7,9.9,1.4
			c6.6,1.3,8.7,7.4,4.1,12.4c-3,3.3-6.6,6.1-9.5,9.5c-1.3,1.5-2.2,4-2,6c0.3,4.5,1.3,8.8,2,13.3c0.9,5.9-4.3,10-9.7,7.6
			c-4.2-1.9-8.4-4.1-12.3-6.5c-2.5-1.5-4.4-1.4-6.8,0.1c-3.7,2.2-7.5,4.2-11.4,6.1C188.4,73.6,183.4,70.2,183.8,63.8z"/>
		<path fill="#FFFFFF" d="M100.3,47.9c-0.7-1-1.4-2.5-2.4-3.6c-3-3.1-6.3-6-9.2-9.1c-5.1-5.4-3.1-11.5,4.1-13
			c4.2-0.9,8.6-1.1,12.8-2.2c1.9-0.5,4-2.1,5-3.8c2.2-3.5,3.2-7.8,5.6-11.1c1.5-2.1,4.6-4.2,7.1-4.3c2.1,0,4.8,2.5,6.4,4.5
			c1.8,2.3,3.2,5.2,3.9,8c1.6,6,5.8,7.3,11.1,7.7c3.1,0.3,6.3,0.8,9.3,1.5c6.1,1.5,8,7.6,3.7,12.3c-3,3.3-6.6,6.1-9.5,9.6
			c-1.3,1.5-2.1,4.1-2,6.1c0.3,4.5,1.4,8.9,2,13.3c0.9,5.8-4.4,9.9-9.9,7.4c-4.2-1.9-8.2-4.5-12.4-6.3c-1.8-0.8-4.4-0.8-6.2,0
			c-3.8,1.6-7.2,4.2-11.1,5.6c-2.3,0.9-6,1.3-7.7,0.1c-1.9-1.5-3-5-2.9-7.6C98.1,58.1,99.4,53.3,100.3,47.9z"/>
		<path fill="#FFFFFF" d="M11.8,62.8c0.6-3.4,1.1-7.5,1.9-11.5c0.7-3.6,0.1-6.4-2.9-8.8c-3-2.4-5.6-5.2-8.2-8
			c-4.7-5.1-2.7-11.2,4.1-12.6c3.2-0.7,6.5-1.6,9.8-1.6c4.9-0.1,7.6-2.2,9.2-6.7c1-3,2.3-6,4.2-8.4c1.7-2.1,4.4-4.9,6.6-4.8
			c2.5,0.1,5.5,2.6,7.2,4.8c2.3,3,3.1,7,5.2,10.1c1.4,2,3.9,3.8,6.2,4.5c3.9,1.2,8.3,1,12.2,2.3c2.4,0.8,5.4,2.8,6.1,5
			c0.7,2.1-1.1,5.1-1.9,7.6c-0.1,0.4-0.6,0.8-1,1.1C60,42.2,58.4,51.4,62,62.2c1.1,3.3,0.3,6.4-2.7,7.6c-2.4,1-6.4,1.4-8.2,0
			c-9.8-7.4-18.7-7.2-28.6,0C17.1,73.8,11.4,69.9,11.8,62.8z"/>
		<path fill="#FFFFFF" d="M416.8,30.7c-0.6,0.9-1.5,3.8-3.5,5.1c-9.3,6.6-11.5,14.9-7.9,25.4c1,3,1,6.3-2.2,8.6
			c-3.1,2.2-6.5,2.1-9.3-0.1c-9.1-7.1-17.8-7.6-27.2-0.3c-1.9,1.5-6.1,1.3-8.7,0.3c-3.3-1.3-3.6-4.8-2.5-8.2
			c3.8-10.8,1.2-19.5-8.6-25.9c-3.2-2.1-4.6-5.9-2.8-9.2c1.2-2.2,4.5-4.4,6.9-4.4c11.8-0.1,18.9-5.5,22.3-16.8
			c0.7-2.2,4.3-4.9,6.5-4.9c2.5,0.1,5.3,2.6,7.4,4.7c1.4,1.4,2.3,3.7,2.8,5.8c1.9,7.6,7.3,9.9,14.4,10.2c2.5,0.1,5,0.5,7.4,1.1
			C415.2,23,417,25.4,416.8,30.7z M360.8,61.5c-0.7,5.4,1.5,6.1,4.1,4c10.7-8.6,21.1-8.4,31.9,0.1c3,2.4,4.6,0.6,4.1-2.9
			c-0.6-4.1-1.2-8.2-2-12.3c-0.7-4-0.2-7.5,3.2-10.3c3-2.4,5.6-5.3,8.3-8c2.8-2.8,1.7-4.4-1.7-5c-4.1-0.7-8.2-1.5-12.3-1.9
			c-4.2-0.4-6.6-2.8-8.2-6.3c-1.8-3.8-3.5-7.6-5.4-11.2c-1.5-2.9-3.5-2.9-5,0.1c-1.8,3.7-3.5,7.5-5.1,11.4c-1.5,3.5-3.9,5.6-7.8,6
			c-4.3,0.5-8.6,1.2-12.8,2c-1.1,0.2-2.5,1-3,2c-0.3,0.5,0.7,2,1.4,2.8c2.3,2.4,4.6,4.9,7.2,6.9c4.7,3.8,6.2,8.2,4.5,14.1
			C361.1,56.1,361,59.5,360.8,61.5z"/>
		<path fill="#FFFFFF" d="M331.7,30.1c-0.5,0.9-1.2,2.8-2.5,4.2c-2.4,2.7-5,5.4-7.9,7.6c-3.7,2.9-4.3,6.3-3.3,10.5
			c0.7,3.1,1.6,6.2,1.5,9.3c-0.1,2.7-0.6,6.6-2.4,7.8c-2.1,1.4-5.9,1.2-8.6,0.3c-3.7-1.2-6.9-4-10.6-5.3c-2.1-0.8-5-0.7-7.2,0.1
			c-3.5,1.3-6.6,3.9-10.2,5.1c-2.5,0.8-5.9,1-8.3,0.1c-3-1.2-3.5-4.4-2.6-7.7c0.8-2.9,0.5-6,1.4-8.8c1.9-5.5-0.3-9.1-4.4-12.4
			c-2.5-2-4.7-4.2-6.8-6.6c-4.3-5-2.2-11,4.3-12.3c1.1-0.2,2.3-0.7,3.4-0.7c10.8,0.9,16.2-5.2,19.1-14.6c1.1-3.6,3.2-6.7,7.7-6.6
			c4.4,0,6.7,3,7.8,6.6c3,9.9,9,14.7,19.7,14.9C328.6,21.7,331.6,24.9,331.7,30.1z M274.5,63c-0.3,3.5,1.1,4.3,4.1,2.8
			c3.7-1.9,7.4-3.8,10.9-5.9c3.5-2.1,6.7-2.2,10.3-0.1c3.4,2.1,7,3.9,10.5,5.7c3.9,2,4.9,1.4,4.5-2.8c-0.4-3.8-1-7.6-1.7-11.3
			c-0.9-4.3-0.1-7.8,3.3-10.8c2.6-2.3,5.2-4.7,7.5-7.3c1.1-1.2,1.6-3,2.4-4.5c-1.4-0.6-2.8-1.6-4.2-1.9c-3.7-0.7-7.5-1.4-11.3-1.6
			c-4.2-0.3-6.7-2.5-8.4-6.1c-1.8-3.8-3.5-7.5-5.4-11.2c-1.7-3.2-3.6-3.2-5.2,0.1c-1.9,3.7-3,7.9-5.3,11.2c-1.7,2.5-4.5,4.7-7.3,5.7
			c-3.8,1.4-8.1,1.4-12.2,2.2c-1.4,0.3-2.6,1.1-3.9,1.7c0.6,1.2,1.1,2.7,2,3.7c2.5,2.7,5.1,5.3,7.9,7.7c3.8,3.2,4.6,6.9,3.6,11.6
			C275.5,55.4,275.1,59.2,274.5,63z"/>
		<path d="M360.8,61.5c0.3-1.9,0.4-5.3,1.3-8.5c1.7-5.8,0.3-10.3-4.5-14.1c-2.6-2.1-4.9-4.5-7.2-6.9c-0.7-0.8-1.7-2.3-1.4-2.8
			c0.6-0.9,1.9-1.7,3-2c4.2-0.8,8.5-1.6,12.8-2c3.9-0.4,6.3-2.5,7.8-6c1.6-3.8,3.3-7.6,5.1-11.4c1.5-3,3.5-3,5-0.1
			c2,3.7,3.6,7.5,5.4,11.2c1.7,3.5,4,5.9,8.2,6.3c4.1,0.4,8.2,1.2,12.3,1.9c3.4,0.6,4.5,2.2,1.7,5c-2.7,2.7-5.3,5.5-8.3,8
			c-3.5,2.8-4,6.2-3.2,10.3c0.7,4.1,1.4,8.2,2,12.3c0.5,3.6-1.1,5.3-4.1,2.9c-10.7-8.4-21.1-8.6-31.9-0.1
			C362.3,67.6,360.1,66.9,360.8,61.5z"/>
		<path d="M274.5,63c0.6-3.8,1-7.6,1.8-11.3c1.1-4.7,0.3-8.4-3.6-11.6c-2.8-2.3-5.4-5-7.9-7.7c-0.9-1-1.3-2.4-2-3.7
			c1.3-0.6,2.6-1.4,3.9-1.7c4.1-0.8,8.4-0.8,12.2-2.2c2.8-1,5.6-3.2,7.3-5.7c2.3-3.4,3.4-7.5,5.3-11.2c1.6-3.2,3.5-3.2,5.2-0.1
			c1.9,3.7,3.7,7.4,5.4,11.2c1.7,3.6,4.1,5.8,8.4,6.1c3.8,0.2,7.6,0.9,11.3,1.6c1.5,0.3,2.8,1.2,4.2,1.9c-0.8,1.5-1.3,3.2-2.4,4.5
			c-2.3,2.6-4.8,5-7.5,7.3c-3.4,3-4.2,6.5-3.3,10.8c0.8,3.7,1.4,7.5,1.7,11.3c0.4,4.3-0.6,4.8-4.5,2.8c-3.6-1.8-7.1-3.6-10.5-5.7
			c-3.5-2.2-6.8-2-10.3,0.1c-3.5,2.1-7.3,4-10.9,5.9C275.6,67.3,274.2,66.5,274.5,63z"/>
	</g>
</g>
</svg>
