<?xml version="1.0" encoding="utf-8"?>
<!-- Generator: Adobe Illustrator 18.1.0, SVG Export Plug-In . SVG Version: 6.00 Build 0)  -->
<!DOCTYPE svg PUBLIC "-//W3C//DTD SVG 1.1//EN" "http://www.w3.org/Graphics/SVG/1.1/DTD/svg11.dtd">
<svg version="1.1" id="Layer_1" xmlns="http://www.w3.org/2000/svg" xmlns:xlink="http://www.w3.org/1999/xlink" x="0px" y="0px"
	 viewBox="0 0 675.7 239.9" enable-background="new 0 0 675.7 239.9" xml:space="preserve">
<g id="SChiLX.tif">
	<g>
		<path fill="#FFFFFF" d="M337.9,239.9c-66.1,0.1-120-53.9-120-120.2C218,53.3,271.6-0.1,338.1,0c66.3,0.1,119.5,53.4,119.8,119.7
			C458,185.8,404.1,239.8,337.9,239.9z M304.3,119.6c0,13.3,0,26.7,0,40c0,9.1,6.1,12.6,13.9,8c22.1-13.2,44.3-26.5,66.3-39.8
			c7.6-4.6,7.6-11.2,0-15.8c-22.1-13.3-44.2-26.6-66.3-39.8c-7.9-4.7-13.9-1.3-13.9,7.8C304.3,93.3,304.3,106.4,304.3,119.6z"/>
		<path fill="#FFFFFF" d="M97.9,217.9C44.1,218,0.3,174.3,0,120.2C-0.3,65.9,43.3,22.1,97.8,22c54.2-0.1,97.6,43.2,98,97.5
			C196.1,173.6,152.2,217.7,97.9,217.9z M86.3,119.8c0-11.2-0.1-22.3,0-33.5c0-3.9-1.1-7.1-4.7-8.6c-3.7-1.6-7-0.6-9.9,2.4
			c-11,11.2-22.1,22.1-33.1,33.3c-4.5,4.5-4.5,8.4,0,13c11,11.1,22.1,22.2,33.1,33.3c2.7,2.7,5.8,4.1,9.5,2.5
			c3.8-1.6,5.1-4.8,5.1-8.8C86.3,142.2,86.3,131,86.3,119.8z M148.3,120.2c0-11.3,0-22.6,0-33.9c0-3.8-1.2-7-4.8-8.5
			c-3.8-1.6-7-0.4-9.9,2.5c-10.7,10.9-21.6,21.7-32.3,32.6c-4.8,4.9-4.9,9-0.1,13.8c10.7,10.9,21.6,21.7,32.3,32.6
			c2.9,2.9,6,4.3,9.8,2.8c3.8-1.5,5.1-4.8,5-8.9C148.3,142.2,148.3,131.2,148.3,120.2z"/>
		<path fill="#FFFFFF" d="M577.9,217.9c-53.9,0.1-97.7-43.6-97.9-97.7c-0.3-54.3,43.3-98.1,97.8-98.1c54.2-0.1,97.6,43.2,98,97.5
			C676.1,173.6,632.1,217.7,577.9,217.9z M589.3,119.9c0,11.2,0.1,22.3,0,33.5c0,4.1,1.3,7.2,5.2,8.8c3.7,1.5,6.8,0,9.4-2.6
			c11-11.1,22.2-22.1,33.2-33.3c4.5-4.6,4.4-8.4-0.1-13c-10.9-11-21.9-21.9-32.8-32.9c-2.9-2.9-6.1-4.3-9.9-2.8
			c-3.9,1.5-5.1,4.8-5,8.9C589.4,97.6,589.3,108.8,589.3,119.9z M527.3,119.5c0,11,0.1,22,0,33c-0.1,4.2,0.8,7.8,4.9,9.5
			c4,1.7,7.3,0.1,10.2-3c10.6-10.8,21.3-21.5,32-32.3c4.9-4.9,4.9-8.9,0.1-13.8c-10.8-10.9-21.6-21.7-32.4-32.6
			c-2.9-2.9-6.1-4.3-9.9-2.7c-3.9,1.5-5,4.9-5,8.9C527.4,97.6,527.3,108.6,527.3,119.5z"/>
		<path d="M304.3,119.6c0-13.2,0-26.3,0-39.5c0-9.1,6-12.5,13.9-7.8c22.1,13.2,44.3,26.5,66.3,39.8c7.6,4.6,7.6,11.2,0,15.8
			c-22.1,13.3-44.2,26.6-66.3,39.8c-7.8,4.6-13.9,1.1-13.9-8C304.3,146.3,304.3,132.9,304.3,119.6z"/>
		<path d="M86.3,119.8c0,11.2-0.1,22.3,0,33.5c0,4.1-1.3,7.3-5.1,8.8c-3.7,1.5-6.7,0.2-9.5-2.5c-11-11.1-22.1-22.1-33.1-33.3
			c-4.5-4.6-4.5-8.4,0-13c11-11.1,22.2-22.1,33.1-33.3c2.9-3,6.2-4,9.9-2.4c3.6,1.6,4.7,4.8,4.7,8.6
			C86.3,97.5,86.3,108.7,86.3,119.8z"/>
		<path d="M148.3,120.2c0,11-0.1,22,0,32.9c0,4.1-1.2,7.3-5,8.9c-3.8,1.5-7,0.1-9.8-2.8c-10.7-10.9-21.6-21.7-32.3-32.6
			c-4.7-4.8-4.7-8.9,0.1-13.8c10.8-10.9,21.6-21.7,32.3-32.6c2.9-2.9,6.1-4.1,9.9-2.5c3.6,1.5,4.8,4.7,4.8,8.5
			C148.3,97.6,148.3,108.9,148.3,120.2z"/>
		<path d="M589.3,119.9c0-11.2,0.1-22.3,0-33.5c0-4.1,1.2-7.4,5-8.9c3.8-1.5,7-0.1,9.9,2.8c10.9,11.1,21.9,21.9,32.8,32.9
			c4.5,4.6,4.6,8.4,0.1,13c-11,11.1-22.1,22.2-33.2,33.3c-2.7,2.7-5.7,4.2-9.4,2.6c-3.9-1.6-5.2-4.7-5.2-8.8
			C589.4,142.3,589.3,131.1,589.3,119.9z"/>
		<path d="M527.3,119.5c0-11,0.1-22,0-33c0-4,1.1-7.4,5-8.9c3.8-1.5,7-0.2,9.9,2.7c10.7,10.9,21.6,21.7,32.4,32.6
			c4.8,4.9,4.7,8.8-0.1,13.8c-10.6,10.8-21.4,21.5-32,32.3c-3,3-6.2,4.7-10.2,3c-4-1.7-4.9-5.3-4.9-9.5
			C527.4,141.5,527.3,130.5,527.3,119.5z"/>
	</g>
</g>
</svg>
