<?xml version="1.0" encoding="utf-8"?>
<!-- Generator: Adobe Illustrator 18.1.0, SVG Export Plug-In . SVG Version: 6.00 Build 0)  -->
<!DOCTYPE svg PUBLIC "-//W3C//DTD SVG 1.1//EN" "http://www.w3.org/Graphics/SVG/1.1/DTD/svg11.dtd">
<svg version="1.1" id="Layer_1" xmlns="http://www.w3.org/2000/svg" xmlns:xlink="http://www.w3.org/1999/xlink" x="0px" y="0px"
	 viewBox="0 0 369.9 449.8" enable-background="new 0 0 369.9 449.8" xml:space="preserve">
<g id="d2RIeI.tif">
	<g>
		<path d="M248,187.1c2.1,0.5,3.9,0.8,5.6,1.4c8.9,2.9,15.2,10.8,15.2,20.7c0.2,29,0.3,58,0,87c-0.1,13.1-9.7,22-22.8,22
			c-40.8,0-81.6,0-122.4,0c-13,0-22.5-9.1-22.6-22.1c-0.2-28.7-0.2-57.3,0-86c0.1-12.1,6.6-19.2,20.9-23c0-11.2-0.2-22.7,0.1-34.1
			c0.2-5.6,0.7-11.3,2.1-16.7c7.3-28,33.4-47.4,62.1-46.6c29.4,0.8,54.7,21.7,60.4,50.2c0.8,4.2,1.1,8.6,1.2,12.9
			C248.1,164.1,248,175.5,248,187.1z M216.8,186.9c0-12.4,0.4-24.3-0.1-36.1c-0.7-15.9-13.8-29-29-29.8c-17.3-1-31.8,9.4-33.8,26.4
			c-1.5,12.9-0.3,26.2-0.3,39.6C174.5,186.9,195.4,186.9,216.8,186.9z M185,278.5c5.3,0,10.7,0.1,16,0c4.4-0.1,5.6-2.1,3.9-6.2
			c-1.9-4.8-3.8-9.6-6-14.2c-1.3-2.8-1.1-4.7,0.9-7.1c4.3-5,5.4-11,3.5-17.3c-2.3-7.7-7.7-12.4-15.6-13.6
			c-8.1-1.2-15.7,2.6-19.4,9.5c-3.8,7.3-3.6,14.6,1.6,21c2.3,2.8,2.4,5,1,8c-2.1,4.5-4,9.1-5.9,13.8c-1.6,4.1-0.4,6,4,6.2
			C174.3,278.7,179.6,278.5,185,278.5z"/>
		<g>
			<path fill="#FFFFFF" d="M369.9,86.6c-3,76.7-14,152.5-45,224.3c-15.5,35.9-36.1,68.6-64.9,95.5c-20.1,18.7-43,32.8-68.8,42.3
				c-4.6,1.7-9,1.2-13.6-0.5c-43.1-15.9-76.1-44.4-101.9-81.7C49,328.1,32.5,285.1,20.9,240.1C9.1,193.9,2.6,146.8,0.8,99.1
				C0.4,87.7,0.1,76.2,0,64.7C-0.1,51.1,5.1,46.2,18.6,46c45.2-0.7,89.1-7.6,130.3-27.1c9.3-4.4,17.9-10.1,26.6-15.6
				c6.6-4.1,12-4.6,18-0.3C219,21.2,247.7,31.2,277.7,38c25.1,5.6,50.6,7.9,76.3,8.1c9.7,0,15.6,5.7,15.8,15.4
				C370,69.6,369.9,77.7,369.9,86.6z M248,187.1c0-11.6,0.1-23-0.1-34.5c-0.1-4.3-0.3-8.7-1.2-12.9c-5.7-28.5-31-49.4-60.4-50.2
				c-28.8-0.7-54.8,18.6-62.1,46.6c-1.4,5.4-1.9,11.1-2.1,16.7c-0.3,11.4-0.1,22.8-0.1,34.1c-14.4,3.8-20.9,10.9-20.9,23
				c-0.1,28.7-0.2,57.3,0,86c0.1,13.1,9.6,22.1,22.6,22.1c40.8,0,81.6,0,122.4,0c13.1,0,22.7-8.9,22.8-22c0.2-29,0.2-58,0-87
				c-0.1-9.9-6.3-17.8-15.2-20.7C251.9,187.9,250.1,187.6,248,187.1z"/>
			<path fill="#FFFFFF" d="M216.8,186.9c-21.5,0-42.3,0-63.2,0c0-13.4-1.2-26.6,0.3-39.6c1.9-17,16.4-27.4,33.8-26.4
				c15.2,0.9,28.3,13.9,29,29.8C217.3,162.6,216.8,174.4,216.8,186.9z"/>
			<path fill="#FFFFFF" d="M185,278.5c-5.3,0-10.7,0.1-16,0c-4.4-0.1-5.6-2.1-4-6.2c1.9-4.6,3.8-9.2,5.9-13.8c1.4-3,1.3-5.2-1-8
				c-5.3-6.5-5.5-13.8-1.6-21c3.6-6.9,11.3-10.7,19.4-9.5c8,1.2,13.3,5.9,15.6,13.6c1.9,6.3,0.8,12.3-3.5,17.3
				c-2,2.4-2.2,4.3-0.9,7.1c2.2,4.6,4.1,9.4,6,14.2c1.6,4.1,0.5,6.1-3.9,6.2C195.6,278.7,190.3,278.5,185,278.5z"/>
		</g>
	</g>
</g>
</svg>
