<?xml version="1.0" encoding="utf-8"?>
<!-- Generator: Adobe Illustrator 18.1.0, SVG Export Plug-In . SVG Version: 6.00 Build 0)  -->
<!DOCTYPE svg PUBLIC "-//W3C//DTD SVG 1.1//EN" "http://www.w3.org/Graphics/SVG/1.1/DTD/svg11.dtd">
<svg version="1.1" id="Layer_1" xmlns="http://www.w3.org/2000/svg" xmlns:xlink="http://www.w3.org/1999/xlink" x="0px" y="0px"
	 viewBox="0 0 316.9 400.8" enable-background="new 0 0 316.9 400.8" xml:space="preserve">
<g id="vzxHEN.tif">
	<g>
		<g>
			<path fill="none" d="M125.2,266.9c38.9-23.6,77.3-46.9,116.6-70.8c-39.2-23.8-77.6-47.1-116.6-70.8
				C125.2,172.8,125.2,219.5,125.2,266.9z"/>
			<path fill="#FFFFFF" d="M316.9,42.1c0-23.8-18.3-42.1-42.1-42.1C185,0,95.2,0,5.4,0C3.6,0,1.9,0.2,0,0.3C0,133.9,0,267,0,400.7
				c2.7,0,4.9,0,7,0c63.3,0,126.6,0,189.9,0c26.3,0,52.7,0.3,79-0.1c23.5-0.4,41-18.6,41-42.1C317,253,317,147.6,316.9,42.1z
				 M66,383.8c-5.5,0-10.4,0-15.8,0c0-122.3,0-244.5,0-367c5.2,0,10.2,0,15.8,0C66,139,66,261.1,66,383.8z M125.2,266.9
				c0-47.5,0-94.1,0-141.5c38.9,23.6,77.4,47,116.6,70.8C202.5,220,164.1,243.3,125.2,266.9z"/>
		</g>
	</g>
</g>
</svg>
