<?xml version="1.0" encoding="utf-8"?>
<!-- Generator: Adobe Illustrator 18.1.1, SVG Export Plug-In . SVG Version: 6.00 Build 0)  -->
<!DOCTYPE svg PUBLIC "-//W3C//DTD SVG 1.1 Basic//EN" "http://www.w3.org/Graphics/SVG/1.1/DTD/svg11-basic.dtd">
<svg version="1.1" baseProfile="basic" id="Layer_1"
	 xmlns="http://www.w3.org/2000/svg" xmlns:xlink="http://www.w3.org/1999/xlink" x="0px" y="0px" viewBox="0 0 220.1 202"
	 xml:space="preserve">
<path fill="#FFFFFF" d="M89,123.1v3.2c0,23.4,0,46.9,0,70.3c0,4.4-0.8,5.2-5.3,5.2c-17.4,0-34.8,0-52.2,0c-4.2,0-5.2-1-5.2-5.2
	c0-27.6,0-55.2,0-82.7c0-2.6,0.8-4.3,3.1-5.9c25.8-17.9,51.4-36,77.1-54c3.6-2.6,3.8-2.5,7.5,0c25.6,17.9,51.1,35.8,76.7,53.7
	c2.1,1.5,2.9,3.1,2.9,5.7c-0.1,27.8,0,55.6,0,83.5c0,3.9-1,4.9-4.9,4.9c-17.5,0-35,0-52.5,0c-3.9,0-4.8-0.9-4.8-5
	c0-23.5,0-47,0-70.5c0-1,0-2.1,0-3.2H89z"/>
<path fill="#FFFFFF" d="M0.1,77.9c0.9-1,1.8-2.2,3-3c11.8-8.3,23.7-16.6,35.5-24.9C61.3,34,84,18.1,106.7,2.2c3.2-2.2,3.7-2.2,6.9,0
	c34.5,24.2,69,48.3,103.5,72.4c3.5,2.4,3.7,3.6,1.2,7.1c-4.1,5.9-8.2,11.7-12.3,17.6c-2.6,3.7-3.6,3.9-7.3,1.3
	c-28.8-20.2-57.7-40.4-86.5-60.6c-1.6-1.1-2.6-1.1-4.2,0C79.5,60.2,51,80.2,22.4,100.2c-0.7,0.5-1.5,1-2.2,1.5
	c-1.8,1.1-3.5,1-4.7-0.8c-4.9-6.9-9.7-13.8-14.5-20.8C0.6,79.7,0.5,79,0.1,77.9"/>
<path fill="#FFFFFF" d="M193.3,21.9c0,5.9,0.1,11.7-0.1,17.6c0,1.3-0.8,3.2-1.8,3.8c-1,0.5-3,0-4.1-0.8
	c-7.8-5.3-15.5-10.8-23.2-16.1c-1.6-1.1-2.4-2.4-2.4-4.4c0.1-5.9,0-11.7,0-17.6c0-3.1,1-4.2,4.1-4.2c7.8,0,15.6,0,23.4,0
	c3,0,4.1,1.1,4.1,4.2C193.3,10.2,193.3,16.1,193.3,21.9"/>
</svg>
