<?xml version="1.0" encoding="utf-8"?>
<!-- Generator: Adobe Illustrator 18.1.1, SVG Export Plug-In . SVG Version: 6.00 Build 0)  -->
<!DOCTYPE svg PUBLIC "-//W3C//DTD SVG 1.1 Basic//EN" "http://www.w3.org/Graphics/SVG/1.1/DTD/svg11-basic.dtd">
<svg version="1.1" baseProfile="basic" id="Layer_1"
	 xmlns="http://www.w3.org/2000/svg" xmlns:xlink="http://www.w3.org/1999/xlink" x="0px" y="0px" viewBox="0 0 114.2 58.9"
	 xml:space="preserve">
<g>
	<defs>
		<rect id="SVGID_1_" x="0" y="0" width="114.2" height="58.9"/>
	</defs>
	<clipPath id="SVGID_2_">
		<use xlink:href="#SVGID_1_"  overflow="visible"/>
	</clipPath>
	<g clip-path="url(#SVGID_2_)">
		<defs>
			<rect id="SVGID_3_" x="-0.2" y="-0.1" width="114.5" height="59.2"/>
		</defs>
		<clipPath id="SVGID_4_">
			<use xlink:href="#SVGID_3_"  overflow="visible"/>
		</clipPath>
		
			<path clip-path="url(#SVGID_4_)" fill="none" stroke="#FFFFFF" stroke-width="1.2453" stroke-linecap="round" stroke-miterlimit="10" d="
			M32.5,10c3.9,1.9,12.2,6.7,12.2,14.2v26.4c0,4.3,3.7,7.7,8.4,7.7h8.5c4.6,0,8.4-3.5,8.4-7.7V25c0-0.4,0-0.7,0.1-1.1
			c0.5-2.9,3-14.8,13.5-14.8h29.9"/>
		<path clip-path="url(#SVGID_4_)" fill="none" stroke="#FFFFFF" stroke-width="0.6226" stroke-miterlimit="10" d="M10.9,17.9h16.7
			c5.8,0,10.6,4.7,10.6,10.4V48c0,5.7-4.8,10.4-10.6,10.4H10.9C5.1,58.4,0.3,53.7,0.3,48V28.2C0.3,22.5,5.1,17.9,10.9,17.9z"/>
		<path clip-path="url(#SVGID_4_)" fill="none" stroke="#FFFFFF" stroke-width="0.6226" stroke-miterlimit="10" d="M86.9,17.4h16.4
			c5.8,0,10.5,4.6,10.5,10.3v19.9c0,5.7-4.7,10.3-10.5,10.3H86.9c-5.8,0-10.5-4.6-10.5-10.3V27.7C76.4,22,81.1,17.4,86.9,17.4z"/>
		
			<ellipse clip-path="url(#SVGID_4_)" fill="none" stroke="#FFFFFF" stroke-width="1.8679" stroke-miterlimit="10" cx="17.9" cy="7.7" rx="12.7" ry="6.8"/>
		
			<polyline clip-path="url(#SVGID_4_)" fill="none" stroke="#FFFFFF" stroke-width="1.8679" stroke-linecap="round" stroke-linejoin="round" stroke-miterlimit="10" points="
			45.9,6.3 51,20.3 64.6,20.3 68.2,6.3 45.9,6.3 		"/>
		<path clip-path="url(#SVGID_4_)" fill="#72BF44" d="M53.8,44.1h4.3c1.7,0,3.2-1.4,3.2-3.1V29.8c0-1.7-1.4-3.1-3.2-3.1h-4.3
			c-1.7,0-3.2,1.4-3.2,3.1V41C50.6,42.7,52,44.1,53.8,44.1"/>
		<polygon clip-path="url(#SVGID_4_)" fill="#72BF44" points="53.4,48 53.8,48.4 55.9,46.3 58.1,48.4 58.5,48 56.4,45.9 56.4,45.9 
			55.9,45.4 55.9,45.4 55.9,45.4 55.5,45.9 55.5,45.9 		"/>
		<path clip-path="url(#SVGID_4_)" fill="#010101" d="M56.4,38.1c0,0.2-0.2,0.4-0.5,0.4c-0.2,0-0.5-0.2-0.5-0.4
			c0-0.2,0.2-0.4,0.5-0.4C56.2,37.7,56.4,37.9,56.4,38.1 M57.8,38.8H54c0,0-0.1,0-0.1-0.1v-1.3h4L57.8,38.8
			C57.9,38.8,57.9,38.8,57.8,38.8 M54,32h3.8c0,0,0.1,0,0.1,0v4.9h-4L54,32C54,32,54,32,54,32 M57.9,31.4H54c-0.4,0-0.7,0.3-0.7,0.7
			v6.7c0,0.4,0.3,0.7,0.7,0.7h3.8c0.4,0,0.7-0.3,0.7-0.7V32C58.5,31.6,58.2,31.4,57.9,31.4"/>
		<polygon clip-path="url(#SVGID_4_)" fill="#72BF44" points="65.5,37.7 65.9,37.2 63.8,35.2 65.9,33.1 65.5,32.6 63.4,34.7 
			63.4,34.7 62.9,35.2 62.9,35.2 62.9,35.2 63.4,35.6 63.4,35.6 		"/>
		<polygon clip-path="url(#SVGID_4_)" fill="#72BF44" points="58.5,23.5 58.1,23 55.9,25.1 53.8,23 53.4,23.5 55.5,25.6 55.5,25.6 
			55.9,26 55.9,26 55.9,26 56.4,25.6 56.4,25.6 		"/>
	</g>
</g>
</svg>
