<?xml version="1.0" encoding="utf-8"?>
<!-- Generator: Adobe Illustrator 18.1.0, SVG Export Plug-In . SVG Version: 6.00 Build 0)  -->
<!DOCTYPE svg PUBLIC "-//W3C//DTD SVG 1.1//EN" "http://www.w3.org/Graphics/SVG/1.1/DTD/svg11.dtd">
<svg version="1.1" id="Layer_1" xmlns="http://www.w3.org/2000/svg" xmlns:xlink="http://www.w3.org/1999/xlink" x="0px" y="0px"
	 viewBox="0 0 306 642.7" enable-background="new 0 0 306 642.7" xml:space="preserve">
<g opacity="0.4">
	<path fill="#FFFFFF" d="M266.7,142c-19.4,0-38.5,0-57.5,0c0-2.2,0-4.1,0-6.4c19.4,0,38.5,0,57.5,0c0-18.3,0-36.3,0-54.4
		c-19.1,0-38.2,0-57.3,0c0-19.8,0-62.2,0-81.2c-18.6,0-36.5,0-54.7,0c0,19,0,61.7,0,81.2c-2.1,0-4.3,0-6.4,0c0-19.4,0-62.1,0-81.2
		c-18.4,0-36.4,0-54.8,0c0,18.9,0,61.5,0,81.2c-19.4,0-38.9,0-58.3,0c0,18.2,0,36.2,0,54.6c19.3,0,38.4,0,57.6,0c0,2.2,0,4.1,0,6.3
		c-19.3,0-38.4,0-57.6,0c0,18.4,0,36.6,0,55c19.3,0,38.4,0,57.9,0c0,19.4,0,272.8,0,291.9c18.4,0,36.4,0,54.8,0
		c0-19.3,0-272.7,0-291.8c2.3,0,4.2,0,6.4,0c0,19.3,0,272.6,0,291.8c18.2,0,36.1,0,54.7,0c0-19.3,0-272.7,0-292.1
		c19.5,0,38.6,0,57.7,0C266.7,178.5,266.7,160.4,266.7,142z"/>
	<path fill="#FFFFFF" d="M35.1,214.8c13.5,0,26.6,0,40.2,0c0,13.6,0,261.1,0,274.3c2.3,0,4.2,0,6.2,0c0-15.5,0-265.1,0-280.5
		c-15.6,0-30.9,0-46.4,0C35.1,210.6,35.1,212.4,35.1,214.8z"/>
	<path fill="#FFFFFF" d="M220.3,489.1c2.1,0,4.1,0,6.4,0c0-13.4,0-260.9,0-274.4c13.5,0,26.7,0,40,0c0-2.2,0-4.1,0-6.2
		c-15.5,0-30.9,0-46.5,0C220.3,224,220.3,473.6,220.3,489.1z"/>
	<path fill="#FFFFFF" d="M81.9,0c-2,0-3.9,0-6.2,0c0,13.2,0,50.7,0,64.3c-13.6,0-26.8,0-40.2,0c0,2.4,0,4.2,0,6.3
		c15.5,0,30.9,0,46.4,0C81.9,55.1,81.9,15.6,81.9,0z"/>
	<path fill="#FFFFFF" d="M227.2,64.4c0-13.5,0-51,0-64.4c-2.3,0-4.3,0-6.4,0c0,15.5,0,55.1,0,70.6c15.5,0,30.9,0,46.5,0
		c0-2.1,0-4,0-6.2C253.9,64.4,240.7,64.4,227.2,64.4z"/>
</g>
<g id="LusZfC.tif">
	<g>
		<path d="M200.1,414.7c0,9,0,18,0,27c0,0.8-0.1,1.7-0.2,2.5c-0.4,2.6-1.8,4.3-4.4,5.1c-4.9,1.6-9.9,2.2-15,2
			c-3.5-0.2-6.9-0.7-10.1-1.8c-3.5-1.2-4.9-2.1-5.1-6.7c-0.3-7.1-0.1-14.2-0.2-21.4c0-2,0-4.1,0-6.1c0-8.7,0-17.5,0-26.2
			c0-3.9,0.8-7.6,1.9-11.3c1-3.4,3.4-5.2,6.7-5.7c6.2-0.9,12.3-1,18.5,0.2c3.1,0.6,5.1,2.3,6,5.3c1.1,3.7,1.9,7.5,1.9,11.4
			C200.1,397.7,200.1,406.2,200.1,414.7z M172.4,406.2c6.8-1.9,13.5-1.9,20.3,0c1.3-4.5,2.6-8.9,4-13.6c-1.8-0.6-3.6-1.4-5.4-1.8
			c-4.8-1.1-9.7-1.2-14.6-0.6c-2.6,0.3-5.2,0.9-7.6,2.2c-0.4,0.2-0.7,0.4-0.5,1C169.9,397.6,171.1,401.8,172.4,406.2z M195.5,442.9
			c-0.9-1.2-1.8-2.2-2.6-3.3c-0.3-0.4-0.7-0.5-1.2-0.4c-6.2,1.4-12.3,1.4-18.5,0c-0.3-0.1-0.7-0.1-0.9,0.1c-1,1.1-1.9,2.3-2.9,3.6
			C178.2,445.4,186.8,445.4,195.5,442.9z M167.2,422.4c0,4.9,0,9.7,0,14.6c1.1-0.7,2.1-1.4,3-2.1c0.2-0.1,0.3-0.5,0.3-0.7
			c0-3.4,0-6.8,0-10.2c0-0.2-0.2-0.6-0.3-0.7C169.2,423,168.2,422.7,167.2,422.4z M197.9,437c0-5,0-9.7,0-14.6
			c-0.9,0.3-1.8,0.5-2.6,0.7c-0.5,0.1-0.7,0.4-0.7,0.9c0,3.3,0,6.7,0,10c0,0.3,0.1,0.7,0.3,0.8C195.8,435.6,196.8,436.3,197.9,437z
			 M170.5,418.5c0-2.1,0-4.1,0-6.1c0-0.3-0.1-0.7-0.2-1c-0.9-2.7-1.9-5.4-2.8-8c-0.1-0.2-0.2-0.4-0.3-0.6c-0.1,4.7-0.1,9.3-0.1,13.9
			c0,0.2,0.2,0.6,0.3,0.7C168.4,417.7,169.4,418.1,170.5,418.5z M194.8,418.4c0.7-0.3,1.4-0.6,2.1-0.8c0.8-0.2,1.1-0.6,1.1-1.5
			c-0.1-4.2,0-8.3,0-12.5c0-0.3,0-0.6,0-0.9C196.1,407.8,193.5,412.7,194.8,418.4z"/>
		<path fill="#FFFFFF" d="M172.4,406.2c-1.3-4.4-2.5-8.6-3.8-12.7c-0.2-0.6,0.1-0.8,0.5-1c2.4-1.2,5-1.8,7.6-2.2
			c4.9-0.6,9.8-0.6,14.6,0.6c1.8,0.4,3.5,1.2,5.4,1.8c-1.4,4.6-2.7,9-4,13.6C185.9,404.3,179.2,404.3,172.4,406.2z"/>
		<path fill="#FFFFFF" d="M195.5,442.9c-8.7,2.5-17.3,2.5-26,0c1-1.2,1.9-2.4,2.9-3.6c0.1-0.2,0.6-0.2,0.9-0.1
			c6.2,1.4,12.3,1.4,18.5,0c0.5-0.1,0.9,0,1.2,0.4C193.8,440.7,194.6,441.8,195.5,442.9z"/>
		<path fill="#FFFFFF" d="M167.2,422.4c1,0.3,2,0.5,3,0.9c0.2,0.1,0.3,0.4,0.3,0.7c0,3.4,0,6.8,0,10.2c0,0.2-0.1,0.6-0.3,0.7
			c-0.9,0.7-1.9,1.3-3,2.1C167.2,432.1,167.2,427.3,167.2,422.4z"/>
		<path fill="#FFFFFF" d="M197.9,437c-1.1-0.7-2.1-1.4-3-2.1c-0.2-0.1-0.3-0.5-0.3-0.8c0-3.3,0-6.7,0-10c0-0.5,0.2-0.8,0.7-0.9
			c0.9-0.2,1.7-0.5,2.6-0.7C197.9,427.3,197.9,432.1,197.9,437z"/>
		<path fill="#FFFFFF" d="M170.5,418.5c-1.1-0.4-2.1-0.8-3-1.2c-0.2-0.1-0.3-0.4-0.3-0.7c0-4.6,0-9.2,0.1-13.9
			c0.1,0.2,0.2,0.4,0.3,0.6c0.9,2.7,1.9,5.3,2.8,8c0.1,0.3,0.2,0.7,0.2,1C170.5,414.4,170.5,416.4,170.5,418.5z"/>
		<path fill="#FFFFFF" d="M194.8,418.4c-1.3-5.7,1.3-10.6,3.1-15.6c0,0.3,0,0.6,0,0.9c0,4.2,0,8.3,0,12.5c0,0.9-0.3,1.3-1.1,1.5
			C196.2,417.8,195.5,418.2,194.8,418.4z"/>
	</g>
</g>
<g id="vzXyuu.tif">
	<g>
		<path d="M139.3,140.1c0-8.2,0-16.4,0-24.5c0-1.5,0.4-1.9,1.9-1.9c6.7,0,13.3,0,20,0c1.4,0,1.8,0.4,1.8,1.8c0,16.5,0,32.9,0,49.4
			c0,1.3-0.5,1.8-1.8,1.8c-6.7,0-13.5,0-20.2,0c-1.3,0-1.8-0.5-1.8-1.8C139.3,156.6,139.3,148.4,139.3,140.1z M157.4,140.2
			c0-3.5-2.8-6.3-6.3-6.3c-3.4,0-6.2,2.8-6.3,6.2c0,3.5,2.8,6.3,6.2,6.3C154.6,146.5,157.4,143.6,157.4,140.2z M157.4,156.4
			c0-3.5-2.8-6.3-6.3-6.3c-3.4,0-6.2,2.9-6.2,6.3c0,3.5,2.8,6.3,6.3,6.3C154.6,162.6,157.4,159.9,157.4,156.4z M157.4,124
			c0-3.4-2.8-6.3-6.2-6.3c-3.5,0-6.3,2.8-6.4,6.2c0,3.4,2.8,6.3,6.2,6.3C154.5,130.3,157.4,127.4,157.4,124z"/>
		<path fill="#FFFFFF" d="M157.4,140.2c0,3.4-2.9,6.3-6.3,6.2c-3.4,0-6.3-2.9-6.2-6.3c0-3.4,2.8-6.2,6.3-6.2
			C154.6,133.9,157.4,136.7,157.4,140.2z"/>
		<path fill="#FFFFFF" d="M157.4,156.4c0,3.5-2.8,6.3-6.3,6.3c-3.5,0-6.3-2.8-6.3-6.3c0-3.4,2.9-6.3,6.2-6.3
			C154.6,150.1,157.4,152.9,157.4,156.4z"/>
		<path fill="#FFFFFF" d="M157.4,124c0,3.5-2.9,6.3-6.4,6.3c-3.4-0.1-6.2-2.9-6.2-6.3c0-3.5,2.8-6.3,6.4-6.2
			C154.6,117.7,157.4,120.5,157.4,124z"/>
	</g>
</g>
<g id="LusZfC.tif_1_" opacity="0.4">
	<g>
		<path d="M200.1,289.1c0,9,0,18,0,27c0,0.8-0.1,1.7-0.2,2.5c-0.4,2.6-1.8,4.3-4.4,5.1c-4.9,1.6-9.9,2.2-15,2
			c-3.5-0.2-6.9-0.7-10.1-1.8c-3.5-1.2-4.9-2.1-5.1-6.7c-0.3-7.1-0.1-14.2-0.2-21.4c0-2,0-4.1,0-6.1c0-8.7,0-17.5,0-26.2
			c0-3.9,0.8-7.6,1.9-11.3c1-3.4,3.4-5.2,6.7-5.7c6.2-0.9,12.3-1,18.5,0.2c3.1,0.6,5.1,2.3,6,5.3c1.1,3.7,1.9,7.5,1.9,11.4
			C200.1,272,200.1,280.5,200.1,289.1z M172.4,280.5c6.8-1.9,13.5-1.9,20.3,0c1.3-4.5,2.6-8.9,4-13.6c-1.8-0.6-3.6-1.4-5.4-1.8
			c-4.8-1.1-9.7-1.2-14.6-0.6c-2.6,0.3-5.2,0.9-7.6,2.2c-0.4,0.2-0.7,0.4-0.5,1C169.9,272,171.1,276.2,172.4,280.5z M195.5,317.3
			c-0.9-1.2-1.8-2.2-2.6-3.3c-0.3-0.4-0.7-0.5-1.2-0.4c-6.2,1.4-12.3,1.4-18.5,0c-0.3-0.1-0.7-0.1-0.9,0.1c-1,1.1-1.9,2.3-2.9,3.6
			C178.2,319.7,186.8,319.7,195.5,317.3z M167.2,296.7c0,4.9,0,9.7,0,14.6c1.1-0.7,2.1-1.4,3-2.1c0.2-0.1,0.3-0.5,0.3-0.7
			c0-3.4,0-6.8,0-10.2c0-0.2-0.2-0.6-0.3-0.7C169.2,297.3,168.2,297,167.2,296.7z M197.9,311.4c0-5,0-9.7,0-14.6
			c-0.9,0.3-1.8,0.5-2.6,0.7c-0.5,0.1-0.7,0.4-0.7,0.9c0,3.3,0,6.7,0,10c0,0.3,0.1,0.7,0.3,0.8C195.8,310,196.8,310.6,197.9,311.4z
			 M170.5,292.8c0-2.1,0-4.1,0-6.1c0-0.3-0.1-0.7-0.2-1c-0.9-2.7-1.9-5.4-2.8-8c-0.1-0.2-0.2-0.4-0.3-0.6c-0.1,4.7-0.1,9.3-0.1,13.9
			c0,0.2,0.2,0.6,0.3,0.7C168.4,292.1,169.4,292.4,170.5,292.8z M194.8,292.7c0.7-0.3,1.4-0.6,2.1-0.8c0.8-0.2,1.1-0.6,1.1-1.5
			c-0.1-4.2,0-8.3,0-12.5c0-0.3,0-0.6,0-0.9C196.1,282.2,193.5,287,194.8,292.7z"/>
		<path fill="#FFFFFF" d="M172.4,280.5c-1.3-4.4-2.5-8.6-3.8-12.7c-0.2-0.6,0.1-0.8,0.5-1c2.4-1.2,5-1.8,7.6-2.2
			c4.9-0.6,9.8-0.6,14.6,0.6c1.8,0.4,3.5,1.2,5.4,1.8c-1.4,4.6-2.7,9-4,13.6C185.9,278.6,179.2,278.6,172.4,280.5z"/>
		<path fill="#FFFFFF" d="M195.5,317.3c-8.7,2.5-17.3,2.5-26,0c1-1.2,1.9-2.4,2.9-3.6c0.1-0.2,0.6-0.2,0.9-0.1
			c6.2,1.4,12.3,1.4,18.5,0c0.5-0.1,0.9,0,1.2,0.4C193.8,315.1,194.6,316.1,195.5,317.3z"/>
		<path fill="#FFFFFF" d="M167.2,296.7c1,0.3,2,0.5,3,0.9c0.2,0.1,0.3,0.4,0.3,0.7c0,3.4,0,6.8,0,10.2c0,0.2-0.1,0.6-0.3,0.7
			c-0.9,0.7-1.9,1.3-3,2.1C167.2,306.4,167.2,301.7,167.2,296.7z"/>
		<path fill="#FFFFFF" d="M197.9,311.4c-1.1-0.7-2.1-1.4-3-2.1c-0.2-0.1-0.3-0.5-0.3-0.8c0-3.3,0-6.7,0-10c0-0.5,0.2-0.8,0.7-0.9
			c0.9-0.2,1.7-0.5,2.6-0.7C197.9,301.6,197.9,306.4,197.9,311.4z"/>
		<path fill="#FFFFFF" d="M170.5,292.8c-1.1-0.4-2.1-0.8-3-1.2c-0.2-0.1-0.3-0.4-0.3-0.7c0-4.6,0-9.2,0.1-13.9
			c0.1,0.2,0.2,0.4,0.3,0.6c0.9,2.7,1.9,5.3,2.8,8c0.1,0.3,0.2,0.7,0.2,1C170.5,288.8,170.5,290.7,170.5,292.8z"/>
		<path fill="#FFFFFF" d="M194.8,292.7c-1.3-5.7,1.3-10.6,3.1-15.6c0,0.3,0,0.6,0,0.9c0,4.2,0,8.3,0,12.5c0,0.9-0.3,1.3-1.1,1.5
			C196.2,292.2,195.5,292.5,194.8,292.7z"/>
	</g>
</g>
<g id="LusZfC.tif_2_" opacity="0.4">
	<g>
		<path d="M104,47.5c0-9,0-18,0-27c0-0.8,0.1-1.7,0.2-2.5c0.4-2.6,1.8-4.3,4.4-5.1c4.9-1.6,9.9-2.2,15-2c3.5,0.2,6.9,0.7,10.1,1.8
			c3.5,1.2,4.9,2.1,5.1,6.7c0.3,7.1,0.1,14.2,0.2,21.4c0,2,0,4.1,0,6.1c0,8.7,0,17.5,0,26.2c0,3.9-0.8,7.6-1.9,11.3
			c-1,3.4-3.4,5.2-6.7,5.7c-6.2,0.9-12.3,1-18.5-0.2c-3.1-0.6-5.1-2.3-6-5.3c-1.1-3.7-1.9-7.5-1.9-11.4C104,64.6,104,56.1,104,47.5z
			 M131.7,56.1c-6.8,1.9-13.5,1.9-20.3,0c-1.3,4.5-2.6,8.9-4,13.6c1.8,0.6,3.6,1.4,5.4,1.8c4.8,1.1,9.7,1.2,14.6,0.6
			c2.6-0.3,5.2-0.9,7.6-2.2c0.4-0.2,0.7-0.4,0.5-1C134.2,64.6,133,60.4,131.7,56.1z M108.6,19.3c0.9,1.2,1.8,2.2,2.6,3.3
			c0.3,0.4,0.7,0.5,1.2,0.4c6.2-1.4,12.3-1.4,18.5,0c0.3,0.1,0.7,0.1,0.9-0.1c1-1.1,1.9-2.3,2.9-3.6
			C125.9,16.9,117.3,16.9,108.6,19.3z M136.9,39.9c0-4.9,0-9.7,0-14.6c-1.1,0.7-2.1,1.4-3,2.1c-0.2,0.1-0.3,0.5-0.3,0.7
			c0,3.4,0,6.8,0,10.2c0,0.2,0.2,0.6,0.3,0.7C134.9,39.3,135.9,39.6,136.9,39.9z M106.2,25.2c0,5,0,9.7,0,14.6
			c0.9-0.3,1.8-0.5,2.6-0.7c0.5-0.1,0.7-0.4,0.7-0.9c0-3.3,0-6.7,0-10c0-0.3-0.1-0.7-0.3-0.8C108.3,26.6,107.3,26,106.2,25.2z
			 M133.6,43.8c0,2.1,0,4.1,0,6.1c0,0.3,0.1,0.7,0.2,1c0.9,2.7,1.9,5.4,2.8,8c0.1,0.2,0.2,0.4,0.3,0.6c0.1-4.7,0.1-9.3,0.1-13.9
			c0-0.2-0.2-0.6-0.3-0.7C135.7,44.5,134.7,44.2,133.6,43.8z M109.3,43.9c-0.7,0.3-1.4,0.6-2.1,0.8c-0.8,0.2-1.1,0.6-1.1,1.5
			c0.1,4.2,0,8.3,0,12.5c0,0.3,0,0.6,0,0.9C108,54.4,110.6,49.6,109.3,43.9z"/>
		<path fill="#FFFFFF" d="M131.7,56.1c1.3,4.4,2.5,8.6,3.8,12.7c0.2,0.6-0.1,0.8-0.5,1c-2.4,1.2-5,1.8-7.6,2.2
			c-4.9,0.6-9.8,0.6-14.6-0.6c-1.8-0.4-3.5-1.2-5.4-1.8c1.4-4.6,2.7-9,4-13.6C118.2,58,124.9,58,131.7,56.1z"/>
		<path fill="#FFFFFF" d="M108.6,19.3c8.7-2.5,17.3-2.5,26,0c-1,1.2-1.9,2.4-2.9,3.6c-0.1,0.2-0.6,0.2-0.9,0.1
			c-6.2-1.4-12.3-1.4-18.5,0c-0.5,0.1-0.9,0-1.2-0.4C110.3,21.5,109.5,20.5,108.6,19.3z"/>
		<path fill="#FFFFFF" d="M136.9,39.9c-1-0.3-2-0.5-3-0.9c-0.2-0.1-0.3-0.4-0.3-0.7c0-3.4,0-6.8,0-10.2c0-0.2,0.1-0.6,0.3-0.7
			c0.9-0.7,1.9-1.3,3-2.1C136.9,30.2,136.9,34.9,136.9,39.9z"/>
		<path fill="#FFFFFF" d="M106.2,25.2c1.1,0.7,2.1,1.4,3,2.1c0.2,0.1,0.3,0.5,0.3,0.8c0,3.3,0,6.7,0,10c0,0.5-0.2,0.8-0.7,0.9
			c-0.9,0.2-1.7,0.5-2.6,0.7C106.2,35,106.2,30.2,106.2,25.2z"/>
		<path fill="#FFFFFF" d="M133.6,43.8c1.1,0.4,2.1,0.8,3,1.2c0.2,0.1,0.3,0.4,0.3,0.7c0,4.6,0,9.2-0.1,13.9
			c-0.1-0.2-0.2-0.4-0.3-0.6c-0.9-2.7-1.9-5.3-2.8-8c-0.1-0.3-0.2-0.7-0.2-1C133.6,47.8,133.6,45.9,133.6,43.8z"/>
		<path fill="#FFFFFF" d="M109.3,43.9c1.3,5.7-1.3,10.6-3.1,15.6c0-0.3,0-0.6,0-0.9c0-4.2,0-8.3,0-12.5c0-0.9,0.3-1.3,1.1-1.5
			C107.9,44.4,108.6,44.1,109.3,43.9z"/>
	</g>
</g>
<g>
	<rect x="229.3" y="217.8" fill="#FFFFFF" width="36.4" height="86"/>
	<g>
		<polyline fill="none" stroke="#000000" stroke-width="2" stroke-miterlimit="10" points="265.7,301.3 265.7,303.8 263.2,303.8 		
			"/>
		
			<line fill="none" stroke="#000000" stroke-width="2" stroke-miterlimit="10" stroke-dasharray="4.4851,4.4851" x1="258.7" y1="303.8" x2="234" y2="303.8"/>
		<polyline fill="none" stroke="#000000" stroke-width="2" stroke-miterlimit="10" points="231.8,303.8 229.3,303.8 229.3,301.3 		
			"/>
		
			<line fill="none" stroke="#000000" stroke-width="2" stroke-miterlimit="10" stroke-dasharray="4.7647,4.7647" x1="229.3" y1="296.6" x2="229.3" y2="222.7"/>
		<polyline fill="none" stroke="#000000" stroke-width="2" stroke-miterlimit="10" points="229.3,220.3 229.3,217.8 231.8,217.8 		
			"/>
		
			<line fill="none" stroke="#000000" stroke-width="2" stroke-miterlimit="10" stroke-dasharray="4.4851,4.4851" x1="236.3" y1="217.8" x2="260.9" y2="217.8"/>
		<polyline fill="none" stroke="#000000" stroke-width="2" stroke-miterlimit="10" points="263.2,217.8 265.7,217.8 265.7,220.3 		
			"/>
		
			<line fill="none" stroke="#000000" stroke-width="2" stroke-miterlimit="10" stroke-dasharray="4.7647,4.7647" x1="265.7" y1="225.1" x2="265.7" y2="298.9"/>
	</g>
</g>
<g id="_x38_IFZuO.tif">
	<g>
		<path fill="#FFFFFF" d="M288.5,242.3c2,2,4.1,4.1,6.2,6.2c-2.3,2.3-4.6,4.6-6.9,6.9c6.1,0,12.2,0,18.3,0c0,2.9,0,5.9,0,8.8
			c-6,0-12.1,0-18.2,0c2.3,2.3,4.6,4.6,6.8,6.8c-2.1,2.1-4.2,4.2-6.2,6.2c-5.8-5.8-11.6-11.6-17.4-17.4
			C276.8,254,282.6,248.1,288.5,242.3z"/>
	</g>
</g>
<g id="_x38_IFZuO.tif_1_">
	<g>
		<path fill="#FFFFFF" d="M199.7,514.1c-2,2-4.1,4.1-6.2,6.2c-2.3-2.3-4.6-4.6-6.9-6.9c0,6.1,0,12.2,0,18.3c-2.9,0-5.9,0-8.8,0
			c0-6,0-12.1,0-18.2c-2.3,2.3-4.6,4.6-6.8,6.8c-2.1-2.1-4.2-4.2-6.2-6.2c5.8-5.8,11.6-11.6,17.4-17.4
			C188,502.4,193.9,508.2,199.7,514.1z"/>
	</g>
</g>
<g id="_x34_g8dlu.tif">
	<g>
		<path d="M260.4,260.5c0,7.2-5.8,12.9-13,12.9c-7.1,0-12.9-5.8-12.9-13c0-7.1,5.8-12.9,13-12.9
			C254.6,247.6,260.4,253.4,260.4,260.5z M247.5,250c-5.8,0-10.5,4.7-10.5,10.4c0,5.9,4.6,10.6,10.5,10.6c5.8,0,10.5-4.7,10.5-10.5
			C258,254.7,253.3,250,247.5,250z"/>
		<path d="M239.4,260.5c0-4.5,3.6-8.1,8.2-8c4.4,0,8,3.7,8,8.1c0,4.5-3.6,8.1-8.1,8.1C243,268.6,239.4,264.9,239.4,260.5z
			 M253.1,260.5c0-3.1-2.5-5.7-5.6-5.7c-3.2,0-5.7,2.5-5.7,5.6c0,3.1,2.5,5.7,5.6,5.7C250.6,266.1,253.1,263.6,253.1,260.5z"/>
		<path d="M247.5,263.7c-1.8,0-3.2-1.4-3.2-3.2c0-1.8,1.4-3.2,3.2-3.2c1.8,0,3.2,1.4,3.2,3.2C250.7,262.3,249.3,263.7,247.5,263.7z"
			/>
	</g>
</g>
<g>
	<path fill="#FFFFFF" d="M205.5,595.3c0,12,0,24,0,35.9c0,1.1-0.2,2.2-0.3,3.3c-0.5,3.5-2.4,4.6-5.8,5.7c-6.5,2.1-10.4,2.8-17.2,2.4
		c-4.6-0.2-11.8-0.3-16.2-1.8c-4.7-1.5-6.5-2.1-6.8-8.1c-0.4-9.5-0.2-18.9-0.2-28.4c0-2.7,0-5.4,0-8.2c0-11.6,0-23.2,0-34.8
		c0-5.1-0.8-10.1,0.7-15c1.3-4.5,6.3-6.9,10.8-7.5c8.2-1.2,16.4-1.3,24.6,0.2c4.1,0.8,8.6,3.1,9.8,7.1c1.5,4.9,0.7,9.9,0.7,15.1
		C205.5,572.6,205.5,583.9,205.5,595.3z M168.7,576.7c9-2.6,18-2.6,27,0c3.5-5.7,3.5-4.6,5.3-10.7c-2.4-0.8-4.7-1.8-7.1-2.4
		c-6.4-1.5-12.9-1.6-19.4-0.7c-3.5,0.4-6.9,1.3-10.1,2.9c-0.6,0.3-0.9,0.6-0.7,1.3C165.3,572.6,165.2,571.5,168.7,576.7z
		 M199.5,636.4c-1.2-1.5-2.3-1.1-3.4-2.5c-0.4-0.6-0.9-0.7-1.6-0.6c-8.2,1.8-16.4,1.9-24.6,0c-0.4-0.1-1-0.1-1.1,0.2
		c-1.3,1.5-2.5,1.3-3.8,2.9C176.5,639.7,187.9,639.7,199.5,636.4z M161.8,605.5c0,6.6,0,12.9,0,19.4c1.4-1,2.7-1.8,4-2.8
		c0.2-0.2,0.4-0.6,0.4-1c0-4.5,0-9.1,0-13.6c0-0.3-0.2-0.8-0.4-0.9C164.4,606.2,163.1,605.9,161.8,605.5z M202.6,624.9
		c0-6.6,0-12.9,0-19.4c-1.2,0.3-2.3,0.7-3.5,1c-0.7,0.2-1,0.5-0.9,1.2c0,4.5,0,8.9,0,13.4c0,0.4,0.1,0.9,0.4,1.1
		C199.9,623.1,201.2,623.9,202.6,624.9z M166.2,600.3c0-2.8,0-5.4,0-8c0-0.5-0.1-0.9-0.2-1.4c-1.2-3.6-2.5-7.1-3.7-10.7
		c-0.1-0.3-0.2-0.5-0.4-0.8c-0.2,6.2-0.2,12.3-0.2,18.4c0,0.3,0.2,0.8,0.5,0.9C163.4,599.3,164.7,599.8,166.2,600.3z M198.5,600.2
		c0.9-0.3,1.8-0.8,2.8-1c1.1-0.3,1.4-0.8,1.4-2c-0.1-5.5,0-11,0-16.6c0-0.4,0-0.8,0-1.2C200.2,586.1,196.8,592.6,198.5,600.2z"/>
	<g>
		<path d="M184,598v6h5.7v2.6H184v6h-2.7v-6h-5.7V604h5.7v-6H184z"/>
	</g>
	<polygon fill="#FFFFFF" points="160.2,574.5 160.4,631.8 167.9,632.3 172.5,622 168.1,580.1 	"/>
	<polygon fill="#FFFFFF" points="204.2,573.8 204,631 196.6,631.5 191.9,621.3 196.3,579.4 	"/>
	<rect x="169.7" y="582.8" width="11.9" height="3.9"/>
	<rect x="183.7" y="582.8" width="11.9" height="3.9"/>
</g>
</svg>
