<?xml version="1.0" encoding="utf-8"?>
<!-- Generator: Adobe Illustrator 18.1.0, SVG Export Plug-In . SVG Version: 6.00 Build 0)  -->
<!DOCTYPE svg PUBLIC "-//W3C//DTD SVG 1.1 Basic//EN" "http://www.w3.org/Graphics/SVG/1.1/DTD/svg11-basic.dtd">
<svg version="1.1" baseProfile="basic" xmlns="http://www.w3.org/2000/svg" xmlns:xlink="http://www.w3.org/1999/xlink" x="0px"
	 y="0px" viewBox="0 0 680.2 769" xml:space="preserve">
<g id="STREETS_x5F_001">
</g>
<g id="MEDICALCENTER">
</g>
<g id="ARBORETUM">
</g>
<g id="HIGHSCHOOL">
</g>
<g id="PARK">
</g>
<g id="STADIUM">
</g>
<g id="STREETS">
</g>
<g id="LAKE">
	<g>
		<path fill="none" stroke="#2E98D8" stroke-width="2.4573" stroke-linecap="round" stroke-miterlimit="10" d="M222.2,562.8
			l-44.6,4.1c-1.4,0.1-2.7-0.9-2.8-2.3l-8.6-94.7c0-0.5-0.2-1-0.4-1.4l-3.6-7.9c-0.9-1.9-0.3-4.2,1.5-5.4l16.4-11.3
			c0.6-0.4,1.3-0.7,2.1-0.7l84.1-7.6"/>
		<g>
			<circle fill="#2E98D8" cx="222.1" cy="562.8" r="2.8"/>
		</g>
		<g>
			<circle fill="#2E98D8" cx="266.1" cy="435.7" r="2.8"/>
		</g>
	</g>
	<g id="RdzH6Y.tif">
		<g>
			<path d="M266.5,421.9c0.3,0,0.5-0.1,0.8-0.1c0.8,0,1.5,0.2,2.2,0.6c0.5,0.3,0.9,0.6,1.4,0.8c1.5,0.8,2.9,0.7,4.4-0.2
				c0,0,0,0,0.1,0c0,0.1,0,0.1,0,0.2c0,2.1,0,4.1,0,6.2c0,0.1,0,0.2-0.1,0.2c-1.3,0.8-2.6,0.9-4,0.3c-0.5-0.2-1-0.6-1.5-0.8
				c-0.7-0.4-1.4-0.7-2.2-0.7c-0.3,0-0.6,0-0.9,0.1c-0.1,0-0.2,0.1-0.2,0.2c0,2.4,0,4.9,0,7.3c0,0.1,0,0.1,0,0.2
				c0,0.2-0.1,0.3-0.3,0.3c-0.1,0-0.3-0.1-0.3-0.2c0-0.1,0-0.1,0-0.2c0-4.8,0-9.5,0-14.3c0-0.1,0-0.1,0-0.2c0-0.1,0.1-0.2,0.3-0.2
				c0.1,0,0.3,0.1,0.3,0.3C266.5,421.7,266.5,421.8,266.5,421.9z"/>
		</g>
	</g>
</g>
<g id="BACKGROUND_x5F_PLANE">
</g>
</svg>
