<?xml version="1.0" encoding="utf-8"?>
<!-- Generator: Adobe Illustrator 18.1.0, SVG Export Plug-In . SVG Version: 6.00 Build 0)  -->
<!DOCTYPE svg PUBLIC "-//W3C//DTD SVG 1.1//EN" "http://www.w3.org/Graphics/SVG/1.1/DTD/svg11.dtd">
<svg version="1.1" id="Layer_1" xmlns="http://www.w3.org/2000/svg" xmlns:xlink="http://www.w3.org/1999/xlink" x="0px" y="0px"
	 viewBox="0 659.1 612 125.1" enable-background="new 0 659.1 612 125.1" xml:space="preserve">
<path fill="#FFFFFF" d="M319.7,674.6h-27.4L0,784.2h612L319.7,674.6z M302.7,681.6c2.6,0,4.9,0,7.4,0c1.6,2.2,3.1,4.3,4.7,6.5
	c-5.8,0-11.4,0-17.5,0C299.1,685.9,301,683.7,302.7,681.6z M297.7,704.3c6.1,0,11.4,0,17.1,0c3.5,5,7.2,9.9,10.7,15.1
	c-13.4,0-26.4,0-40.2,0C289.6,714.3,293.6,709.3,297.7,704.3z M290.9,745.3c11,0,20.6,0,30.9,0c6.5,9,12.9,17.9,19.4,27.1
	c-24.2,0-47.6,0-72.4,0C276.2,763.3,283.5,754.3,290.9,745.3z"/>
<g id="_x34_g8dlu.tif">
	<g>
		<path fill="#59C1E2" d="M471.7,686c0,14.9-12.2,26.9-27.1,26.9c-14.9,0-26.9-12.2-26.7-27.1c0-14.9,12.2-26.9,27.1-26.7
			C459.7,659.1,471.7,671.1,471.7,686z M444.8,664.1c-12,0-21.9,9.7-21.9,21.7c0,12.4,9.7,22,21.9,22c12.2,0,21.9-9.7,21.9-21.9
			C466.6,673.8,456.8,664.1,444.8,664.1z"/>
		<path fill="#59C1E2" d="M427.9,685.8c0-9.3,7.5-16.8,17-16.7c9.1,0,16.7,7.7,16.7,16.8c0,9.3-7.5,16.8-16.8,16.8
			C435.5,702.6,427.9,695.1,427.9,685.8z M456.4,686c0-6.5-5.2-11.8-11.6-11.8c-6.6,0-11.8,5.2-11.8,11.6c0,6.6,5.2,11.8,11.6,11.8
			C451.2,697.6,456.4,692.4,456.4,686z"/>
		<path fill="#59C1E2" d="M444.8,692.6c-3.8,0-6.6-2.9-6.6-6.6c0-3.8,3-6.6,6.6-6.6c3.8,0,6.6,3,6.6,6.8
			C451.4,689.7,448.5,692.6,444.8,692.6z"/>
	</g>
</g>
<g id="WPJ7VR.tif">
	<g>
		<path fill="#59C1E2" d="M372.1,717c-0.1-0.7-0.1-1.4-0.1-2.1c-0.2-6.9,1.7-13.3,5.5-19c3.4-5.2,8-9.2,13.7-11.7
			c3.1-1.3,6.2-2,9.6-2.1c0.2,0,0.5,0,0.7-0.1c0-2.1,0-4.2,0-6.4c0,0,0.1,0,0.1-0.1c4,4.2,8,8.3,12.1,12.5c-4,4.2-8,8.3-12.1,12.6
			c0-2.2,0-4.3,0-6.4c-0.7,0-1.4,0-2.1,0c-7.4,0.6-13.8,3.4-19.3,8.5c-3.2,3-5.7,6.6-7.1,10.8C372.6,714.7,372.4,715.8,372.1,717z"
			/>
	</g>
</g>
</svg>
