<?xml version="1.0" encoding="utf-8"?>
<!-- Generator: Adobe Illustrator 18.1.0, SVG Export Plug-In . SVG Version: 6.00 Build 0)  -->
<!DOCTYPE svg PUBLIC "-//W3C//DTD SVG 1.1//EN" "http://www.w3.org/Graphics/SVG/1.1/DTD/svg11.dtd">
<svg version="1.1" id="Layer_1" xmlns="http://www.w3.org/2000/svg" xmlns:xlink="http://www.w3.org/1999/xlink" x="0px" y="0px"
	 viewBox="0 659.1 612 125.1" enable-background="new 0 659.1 612 125.1" xml:space="preserve">
<path fill="#FFFFFF" d="M319.7,674.6h-27.4L0,784.2h612L319.7,674.6z M302.7,681.6c2.6,0,4.9,0,7.4,0c1.6,2.2,3.1,4.3,4.7,6.5
	c-5.8,0-11.4,0-17.5,0C299.1,685.9,301,683.7,302.7,681.6z M297.7,704.3c6.1,0,11.4,0,17.1,0c3.5,5,7.2,9.9,10.7,15.1
	c-13.4,0-26.4,0-40.2,0C289.6,714.3,293.6,709.3,297.7,704.3z M290.9,745.3c11,0,20.6,0,30.9,0c6.5,9,12.9,17.9,19.4,27.1
	c-24.2,0-47.6,0-72.4,0C276.2,763.3,283.5,754.3,290.9,745.3z"/>
<g id="_x34_g8dlu.tif">
	<g>
		<path fill="#59C1E2" d="M347.4,668.3c0,5.1-4.2,9.3-9.3,9.3c-5.1,0-9.3-4.2-9.2-9.3c0-5.1,4.2-9.3,9.3-9.2
			C343.3,659,347.4,663.2,347.4,668.3z M338.2,660.8c-4.1,0-7.6,3.4-7.6,7.5c0,4.2,3.3,7.6,7.5,7.6s7.6-3.4,7.6-7.5
			C345.7,664.1,342.3,660.8,338.2,660.8z"/>
		<path fill="#59C1E2" d="M332.3,668.3c0-3.2,2.6-5.8,5.9-5.8c3.2,0,5.8,2.6,5.8,5.8s-2.6,5.8-5.8,5.8
			C334.9,674.1,332.3,671.5,332.3,668.3z M342.2,668.3c0-2.2-1.8-4.1-4-4.1c-2.3,0-4.1,1.8-4.1,4c0,2.3,1.8,4.1,4,4.1
			C340.4,672.4,342.2,670.6,342.2,668.3z"/>
		<path fill="#59C1E2" d="M338.2,670.6c-1.3,0-2.3-1-2.3-2.3s1-2.3,2.3-2.3s2.3,1,2.3,2.3S339.4,670.6,338.2,670.6z"/>
	</g>
</g>
</svg>
