<?xml version="1.0" encoding="utf-8"?>
<!-- Generator: Adobe Illustrator 18.1.0, SVG Export Plug-In . SVG Version: 6.00 Build 0)  -->
<!DOCTYPE svg PUBLIC "-//W3C//DTD SVG 1.1//EN" "http://www.w3.org/Graphics/SVG/1.1/DTD/svg11.dtd">
<svg version="1.1" id="Layer_1" xmlns="http://www.w3.org/2000/svg" xmlns:xlink="http://www.w3.org/1999/xlink" x="0px" y="0px"
	 viewBox="0 659.1 612 125.1" enable-background="new 0 659.1 612 125.1" xml:space="preserve">
<path fill="#FFFFFF" d="M319.7,674.6h-27.4L0,784.2h612L319.7,674.6z M302.7,681.6c2.6,0,4.9,0,7.4,0c1.6,2.2,3.1,4.3,4.7,6.5
	c-5.8,0-11.4,0-17.5,0C299.1,685.9,301,683.7,302.7,681.6z M297.7,704.3c6.1,0,11.4,0,17.1,0c3.5,5,7.2,9.9,10.7,15.1
	c-13.4,0-26.4,0-40.2,0C289.6,714.3,293.6,709.3,297.7,704.3z M290.9,745.3c11,0,20.6,0,30.9,0c6.5,9,12.9,17.9,19.4,27.1
	c-24.2,0-47.6,0-72.4,0C276.2,763.3,283.5,754.3,290.9,745.3z"/>
<g id="_x34_g8dlu.tif">
	<g>
		<path fill="#59C1E2" d="M393.9,674.1c0,8.3-6.8,15-15.1,15c-8.3,0-15-6.8-14.9-15.1c0-8.3,6.8-15,15.1-14.9
			C387.2,659.1,393.9,665.8,393.9,674.1z M378.9,661.9c-6.7,0-12.2,5.4-12.2,12.1c0,6.9,5.4,12.3,12.2,12.3
			c6.8,0,12.2-5.4,12.2-12.2S385.6,661.9,378.9,661.9z"/>
		<path fill="#59C1E2" d="M369.5,674c0-5.2,4.2-9.4,9.5-9.3c5.1,0,9.3,4.3,9.3,9.4c0,5.2-4.2,9.4-9.4,9.4
			C373.7,683.4,369.5,679.2,369.5,674z M385.4,674.1c0-3.6-2.9-6.6-6.5-6.6c-3.7,0-6.6,2.9-6.6,6.5c0,3.7,2.9,6.6,6.5,6.6
			C382.5,680.6,385.4,677.7,385.4,674.1z"/>
		<path fill="#59C1E2" d="M378.9,677.8c-2.1,0-3.7-1.6-3.7-3.7c0-2.1,1.7-3.7,3.7-3.7c2.1,0,3.7,1.7,3.7,3.8
			C382.6,676.2,381,677.8,378.9,677.8z"/>
	</g>
</g>
</svg>
