<?xml version="1.0" encoding="utf-8"?>
<!-- Generator: Adobe Illustrator 18.1.0, SVG Export Plug-In . SVG Version: 6.00 Build 0)  -->
<!DOCTYPE svg PUBLIC "-//W3C//DTD SVG 1.1//EN" "http://www.w3.org/Graphics/SVG/1.1/DTD/svg11.dtd">
<svg version="1.1" id="Layer_1" xmlns="http://www.w3.org/2000/svg" xmlns:xlink="http://www.w3.org/1999/xlink" x="0px" y="0px"
	 viewBox="0 0 604.5 349.7" enable-background="new 0 0 604.5 349.7" xml:space="preserve">
<g>
	<line fill="none" stroke="#FFFFFF" stroke-width="4" stroke-miterlimit="10" x1="308.9" y1="17" x2="308.9" y2="258.6"/>
	<g>
		<g>
			<g>
				<rect x="299.1" y="0" fill="none" width="19.5" height="23.2"/>
				<g>
					<polygon fill="#FFFFFF" points="318.7,23.2 308.9,19 299.1,23.2 308.9,0 					"/>
				</g>
			</g>
		</g>
	</g>
</g>
<line fill="none" stroke="#FFFFFF" stroke-width="4" stroke-miterlimit="10" x1="55.1" y1="258.8" x2="556.7" y2="258.8"/>
<g>
	<circle stroke="#FFFFFF" stroke-width="4" stroke-miterlimit="10" cx="307.2" cy="257" r="90.7"/>
	<g id="KKSuJG.tif">
		<g>
			<path fill="#FFFFFF" d="M247.6,257c0-19.2,13.7-35.7,32.7-39.1c9.1-1.6,17.7-0.2,25.9,4.1c0.8,0.4,1.4,0.4,2.2,0
				c22.9-12.3,51.6,0.6,57.5,25.9c5.1,21.9-8.8,43.7-30.8,48.1c-9.2,1.8-18,0.6-26.3-3.8c-1-0.5-1.8-0.6-2.8,0
				c-15.2,8.1-34.3,5.3-46.4-6.9C251.8,277.7,247.6,267.7,247.6,257z M317,283.5c12.1,4.9,26.2,0.6,33.8-10.2
				c7.6-10.8,6.6-25.6-2.2-35.4c-9.1-10.1-22.9-11.3-31.5-7.4c6.5,7.6,10,16.4,10,26.5C327.1,267,323.6,275.8,317,283.5z
				 M297.5,230.3c-8.8-3.8-22.7-2.4-31.4,7.9c-9.1,10.7-9.4,25.6-0.9,36.4c8.6,10.9,22.7,13,32.4,9c-6.7-7.6-10.2-16.5-10.2-26.6
				C287.3,246.9,290.8,238,297.5,230.3z M307.5,277.4c11.8-11.1,11.3-30.3,0-40.7C296.5,246.6,295.4,265.9,307.5,277.4z"/>
		</g>
	</g>
</g>
<g id="X3peSN.tif">
	<g>
		<path fill="#FFFFFF" d="M547.2,314.2c-31.5,0-57.1-25.6-57.2-57.3c0-31.5,25.6-57.2,57.1-57.2c31.6,0,57.4,25.6,57.3,57.1
			C604.5,288.6,578.9,314.2,547.2,314.2z M538.9,230.1c-9.2-0.1-18.1,0.9-26.9,3.4c-3.1,0.9-4.8,3.7-4.2,6.4
			c0.8,3.1,3.6,4.8,6.8,3.9c9.9-2.7,19.9-3.6,30.1-2.9c12.8,0.8,25.1,3.1,36.4,9.5c2.6,1.5,5.8,0.6,7.3-1.8c1.5-2.6,0.8-5.7-1.9-7.4
			c-1.3-0.8-2.6-1.5-4-2.2C568.7,232.5,554,230.2,538.9,230.1z M537.6,249.7c-7.6-0.1-15.1,0.9-22.4,3c-2.8,0.8-4.3,3.2-3.5,5.7
			c0.8,2.5,3.2,3.7,5.9,2.9c13.5-3.8,27.1-3.6,40.6,0c5.7,1.5,11,3.8,16.1,6.7c3,1.7,6.2,0.2,6.8-3.2c0.3-1.9-0.7-3.6-3-4.9
			C565.6,252.8,552,249.9,537.6,249.7z M538.2,275.5c10.7,0,20.8,2.2,30.1,7.8c0.8,0.5,1.8,0.7,2.6,0.6c1.6-0.1,2.7-1.2,3-2.7
			c0.4-1.7-0.3-3.1-1.8-3.8c-4.3-2.1-8.7-4.3-13.2-5.9c-9.6-3.2-19.6-3.6-29.5-2.6c-4.1,0.4-8.1,1.2-12.1,2
			c-3.1,0.6-4.3,3.5-2.6,5.7c1.2,1.6,2.8,1.6,4.6,1.2C525.4,276.3,531.8,275.5,538.2,275.5z"/>
		<path fill="#010101" d="M538.9,230.1c15.1,0.1,29.8,2.4,43.6,9c1.4,0.7,2.7,1.4,4,2.2c2.6,1.7,3.4,4.8,1.9,7.4
			c-1.5,2.5-4.6,3.3-7.3,1.8c-11.3-6.4-23.6-8.8-36.4-9.5c-10.2-0.6-20.2,0.2-30.1,2.9c-3.2,0.9-6-0.9-6.8-3.9
			c-0.7-2.7,1.1-5.6,4.2-6.4C520.8,231,529.8,230,538.9,230.1z"/>
		<path fill="#010101" d="M537.6,249.7c14.3,0.1,27.9,3.1,40.5,10.3c2.3,1.3,3.3,3,3,4.9c-0.6,3.3-3.8,4.9-6.8,3.2
			c-5.1-2.9-10.4-5.2-16.1-6.7c-13.5-3.6-27.1-3.8-40.6,0c-2.7,0.8-5.1-0.4-5.9-2.9c-0.8-2.5,0.7-4.9,3.5-5.7
			C522.5,250.7,530,249.7,537.6,249.7z"/>
		<path fill="#010101" d="M538.2,275.5c-6.4,0-12.7,0.8-18.9,2.2c-1.7,0.4-3.4,0.4-4.6-1.2c-1.7-2.3-0.5-5.1,2.6-5.7
			c4-0.8,8-1.5,12.1-2c10-1.1,19.9-0.7,29.5,2.6c4.5,1.5,8.9,3.8,13.2,5.9c1.5,0.7,2.2,2.2,1.8,3.8c-0.3,1.6-1.4,2.7-3,2.7
			c-0.9,0-1.9-0.2-2.6-0.6C559,277.7,548.9,275.5,538.2,275.5z"/>
	</g>
</g>
<g id="X3peSN.tif_1_">
	<g>
		<path fill="#FFFFFF" d="M57.2,314.2C25.6,314.2,0,288.6,0,257c0-31.5,25.6-57.2,57.1-57.2c31.6,0,57.4,25.6,57.3,57.1
			C114.5,288.6,88.9,314.2,57.2,314.2z M48.9,230.1c-9.2-0.1-18.1,0.9-26.9,3.4c-3.1,0.9-4.8,3.7-4.2,6.4c0.8,3.1,3.6,4.8,6.8,3.9
			c9.9-2.7,19.9-3.6,30.1-2.9c12.8,0.8,25.1,3.1,36.4,9.5c2.6,1.5,5.8,0.6,7.3-1.8c1.5-2.6,0.8-5.7-1.9-7.4c-1.3-0.8-2.6-1.5-4-2.2
			C78.7,232.5,64,230.2,48.9,230.1z M47.6,249.7c-7.6-0.1-15.1,0.9-22.4,3c-2.8,0.8-4.3,3.2-3.5,5.7c0.8,2.5,3.2,3.7,5.9,2.9
			c13.5-3.8,27.1-3.6,40.6,0c5.7,1.5,11,3.8,16.1,6.7c3,1.7,6.2,0.2,6.8-3.2c0.3-1.9-0.7-3.6-3-4.9C75.6,252.8,62,249.9,47.6,249.7z
			 M48.2,275.5c10.7,0,20.8,2.2,30.1,7.8c0.8,0.5,1.8,0.7,2.6,0.6c1.6-0.1,2.7-1.2,3-2.7c0.4-1.7-0.3-3.1-1.8-3.8
			c-4.3-2.1-8.7-4.3-13.2-5.9c-9.6-3.2-19.6-3.6-29.5-2.6c-4.1,0.4-8.1,1.2-12.1,2c-3.1,0.6-4.3,3.5-2.6,5.7
			c1.2,1.6,2.8,1.6,4.6,1.2C35.4,276.3,41.8,275.5,48.2,275.5z"/>
		<path fill="#010101" d="M48.9,230.1c15.1,0.1,29.8,2.4,43.6,9c1.4,0.7,2.7,1.4,4,2.2c2.6,1.7,3.4,4.8,1.9,7.4
			c-1.5,2.5-4.6,3.3-7.3,1.8c-11.3-6.4-23.6-8.8-36.4-9.5c-10.2-0.6-20.2,0.2-30.1,2.9c-3.2,0.9-6-0.9-6.8-3.9
			c-0.7-2.7,1.1-5.6,4.2-6.4C30.8,231,39.8,230,48.9,230.1z"/>
		<path fill="#010101" d="M47.6,249.7c14.3,0.1,27.9,3.1,40.5,10.3c2.3,1.3,3.3,3,3,4.9c-0.6,3.3-3.8,4.9-6.8,3.2
			c-5.1-2.9-10.4-5.2-16.1-6.7c-13.5-3.6-27.1-3.8-40.6,0c-2.7,0.8-5.1-0.4-5.9-2.9s0.7-4.9,3.5-5.7C32.5,250.7,40,249.7,47.6,249.7
			z"/>
		<path fill="#010101" d="M48.2,275.5c-6.4,0-12.7,0.8-18.9,2.2c-1.7,0.4-3.4,0.4-4.6-1.2c-1.7-2.3-0.5-5.1,2.6-5.7
			c4-0.8,8-1.5,12.1-2c10-1.1,19.9-0.7,29.5,2.6c4.5,1.5,8.9,3.8,13.2,5.9c1.5,0.7,2.2,2.2,1.8,3.8c-0.3,1.6-1.4,2.7-3,2.7
			c-0.9,0-1.9-0.2-2.6-0.6C69,277.7,58.9,275.5,48.2,275.5z"/>
	</g>
</g>
</svg>
