<?xml version="1.0" encoding="utf-8"?>
<!-- Generator: Adobe Illustrator 18.1.1, SVG Export Plug-In . SVG Version: 6.00 Build 0)  -->
<!DOCTYPE svg PUBLIC "-//W3C//DTD SVG 1.1//EN" "http://www.w3.org/Graphics/SVG/1.1/DTD/svg11.dtd">
<svg version="1.1" id="Layer_1" xmlns="http://www.w3.org/2000/svg" xmlns:xlink="http://www.w3.org/1999/xlink" x="0px" y="0px"
	 viewBox="262 78.5 127.7 63" enable-background="new 262 78.5 127.7 63" xml:space="preserve">
<g>
	<line fill="none" stroke="#FFFFFF" stroke-width="4" stroke-miterlimit="10" x1="262" y1="110.1" x2="369.6" y2="110.1"/>
</g>
<g>
	<circle stroke="#59C1E2" stroke-width="4" stroke-miterlimit="10" cx="358.2" cy="110.1" r="29.5"/>
	<g id="KKSuJG.tif">
		<g>
			<path fill="#59C1E2" d="M338.8,110.1c0-6.2,4.5-11.6,10.6-12.7c3-0.5,5.8-0.1,8.4,1.4c0.3,0.1,0.5,0.1,0.7,0
				c7.5-4,16.8,0.2,18.7,8.4c1.7,7.1-2.9,14.2-10,15.7c-3,0.6-5.9,0.2-8.6-1.2c-0.3-0.2-0.6-0.2-0.9,0c-5,2.6-11.2,1.7-15.1-2.3
				C340.2,116.8,338.8,113.5,338.8,110.1z M361.4,118.7c4,1.6,8.5,0.2,11-3.3s2.2-8.3-0.7-11.5c-3-3.3-7.5-3.7-10.3-2.4
				c2.1,2.5,3.2,5.3,3.2,8.6C364.7,113.3,363.5,116.2,361.4,118.7z M355,101.3c-2.9-1.2-7.4-0.8-10.2,2.6c-3,3.5-3.1,8.3-0.3,11.9
				c2.8,3.5,7.4,4.2,10.5,2.9c-2.2-2.5-3.3-5.4-3.3-8.6C351.7,106.7,352.9,103.9,355,101.3z M358.3,116.7c3.8-3.6,3.7-9.9,0-13.2
				C354.7,106.6,354.4,112.9,358.3,116.7z"/>
		</g>
	</g>
</g>
</svg>
