<?xml version="1.0" encoding="utf-8"?>
<!-- Generator: Adobe Illustrator 18.1.1, SVG Export Plug-In . SVG Version: 6.00 Build 0)  -->
<!DOCTYPE svg PUBLIC "-//W3C//DTD SVG 1.1 Basic//EN" "http://www.w3.org/Graphics/SVG/1.1/DTD/svg11-basic.dtd">
<svg version="1.1" baseProfile="basic" id="Layer_1"
	 xmlns="http://www.w3.org/2000/svg" xmlns:xlink="http://www.w3.org/1999/xlink" x="0px" y="0px"
	 viewBox="217.2 125.1 187.7 447.9" xml:space="preserve">
<g>
	<line fill="none" stroke="#FFFFFF" stroke-width="4" stroke-miterlimit="10" x1="312.7" y1="132.2" x2="312.7" y2="466.8"/>
</g>
<g>
	<circle stroke="#59C1E2" stroke-width="4" stroke-miterlimit="10" cx="311" cy="479.2" r="91.8"/>
	<g id="KKSuJG.tif">
		<g>
			<path fill="#59C1E2" d="M250.7,479.2c0-19.4,13.9-36.1,33.1-39.6c9.2-1.6,17.9-0.2,26.2,4.2c0.8,0.4,1.4,0.4,2.2,0
				c23.2-12.5,52.2,0.6,58.2,26.2c5.2,22.2-8.9,44.2-31.2,48.7c-9.3,1.8-18.2,0.6-26.6-3.8c-1-0.5-1.8-0.6-2.8,0
				c-15.4,8.2-34.7,5.4-47-7C254.9,500.1,250.7,490,250.7,479.2z M320.9,506c12.3,5,26.5,0.6,34.2-10.3c7.7-10.9,6.7-25.9-2.2-35.8
				c-9.2-10.2-23.2-11.4-31.9-7.5c6.6,7.7,10.1,16.6,10.1,26.8C331.2,489.3,327.6,498.2,320.9,506z M301.2,452.1
				c-8.9-3.8-23-2.4-31.8,8c-9.2,10.8-9.5,25.9-0.9,36.9c8.7,11,23,13.2,32.8,9.1c-6.8-7.7-10.3-16.7-10.3-26.9
				C290.9,468.9,294.4,459.9,301.2,452.1z M311.3,499.8c11.9-11.2,11.4-30.7,0-41.2C300.2,468.6,299.1,488.2,311.3,499.8z"/>
		</g>
	</g>
</g>
<path fill="#FFFFFF" d="M300.8,125.1c0.4,6.3,5.6,11.3,12,11.3c6.4,0,11.6-5,12-11.3H300.8z"/>
</svg>
