<?xml version="1.0" encoding="utf-8"?>
<!-- Generator: Adobe Illustrator 18.1.0, SVG Export Plug-In . SVG Version: 6.00 Build 0)  -->
<!DOCTYPE svg PUBLIC "-//W3C//DTD SVG 1.1//EN" "http://www.w3.org/Graphics/SVG/1.1/DTD/svg11.dtd">
<svg version="1.1" id="Layer_1" xmlns="http://www.w3.org/2000/svg" xmlns:xlink="http://www.w3.org/1999/xlink" x="0px" y="0px"
	 viewBox="217.2 385.3 215.2 200.6" enable-background="new 217.2 385.3 215.2 200.6" xml:space="preserve">
<g>
	<circle stroke="#FFFFFF" stroke-width="4" stroke-miterlimit="10" cx="311" cy="479.2" r="91.8"/>
	<g id="KKSuJG.tif">
		<g>
			<path fill="#FFFFFF" d="M250.7,479.2c0-19.4,13.9-36.1,33.1-39.6c9.2-1.6,17.9-0.2,26.2,4.2c0.8,0.4,1.4,0.4,2.2,0
				c23.2-12.5,52.2,0.6,58.2,26.2c5.2,22.2-8.9,44.2-31.2,48.7c-9.3,1.8-18.2,0.6-26.6-3.8c-1-0.5-1.8-0.6-2.8,0
				c-15.4,8.2-34.7,5.4-47-7C254.9,500.1,250.7,490,250.7,479.2z M320.9,506c12.3,5,26.5,0.6,34.2-10.3c7.7-10.9,6.7-25.9-2.2-35.8
				c-9.2-10.2-23.2-11.4-31.9-7.5c6.6,7.7,10.1,16.6,10.1,26.8C331.2,489.3,327.6,498.2,320.9,506z M301.2,452.1
				c-8.9-3.8-23-2.4-31.8,8c-9.2,10.8-9.5,25.9-0.9,36.9c8.7,11,23,13.2,32.8,9.1c-6.8-7.7-10.3-16.7-10.3-26.9
				C290.9,468.9,294.4,459.9,301.2,452.1z M311.3,499.8c11.9-11.2,11.4-30.7,0-41.2C300.2,468.6,299.1,488.2,311.3,499.8z"/>
		</g>
	</g>
</g>
<g id="X3peSN.tif">
	<g>
		<path fill="#FFFFFF" d="M392.4,586c-22,0-39.9-17.9-39.9-40c0-22,17.9-39.9,39.9-39.9c22.1,0,40.1,17.9,40,39.9
			C432.4,568.1,414.6,586,392.4,586z M386.6,527.3c-6.4-0.1-12.6,0.6-18.8,2.4c-2.2,0.6-3.4,2.6-2.9,4.5c0.6,2.2,2.5,3.4,4.7,2.7
			c6.9-1.9,13.9-2.5,21-2c8.9,0.6,17.5,2.2,25.4,6.6c1.8,1,4.1,0.4,5.1-1.3c1-1.8,0.6-4-1.3-5.2c-0.9-0.6-1.8-1-2.8-1.5
			C407.4,528.9,397.2,527.3,386.6,527.3z M385.7,540.9c-5.3-0.1-10.5,0.6-15.6,2.1c-2,0.6-3,2.2-2.4,4c0.6,1.7,2.2,2.6,4.1,2
			c9.4-2.7,18.9-2.5,28.4,0c4,1,7.7,2.7,11.2,4.7c2.1,1.2,4.3,0.1,4.7-2.2c0.2-1.3-0.5-2.5-2.1-3.4
			C405.3,543.1,395.8,541.1,385.7,540.9z M386.1,559c7.5,0,14.5,1.5,21,5.4c0.6,0.3,1.3,0.5,1.8,0.4c1.1-0.1,1.9-0.8,2.1-1.9
			c0.3-1.2-0.2-2.2-1.3-2.7c-3-1.5-6.1-3-9.2-4.1c-6.7-2.2-13.7-2.5-20.6-1.8c-2.9,0.3-5.7,0.8-8.5,1.4c-2.2,0.4-3,2.4-1.8,4
			c0.8,1.1,2,1.1,3.2,0.8C377.2,559.5,381.7,559,386.1,559z"/>
		<path fill="#010101" d="M386.6,527.3c10.5,0.1,20.8,1.7,30.4,6.3c1,0.5,1.9,1,2.8,1.5c1.8,1.2,2.4,3.4,1.3,5.2
			c-1,1.7-3.2,2.3-5.1,1.3c-7.9-4.5-16.5-6.1-25.4-6.6c-7.1-0.4-14.1,0.1-21,2c-2.2,0.6-4.2-0.6-4.7-2.7c-0.5-1.9,0.8-3.9,2.9-4.5
			C374,527.9,380.3,527.2,386.6,527.3z"/>
		<path fill="#010101" d="M385.7,540.9c10,0.1,19.5,2.2,28.3,7.2c1.6,0.9,2.3,2.1,2.1,3.4c-0.4,2.3-2.7,3.4-4.7,2.2
			c-3.6-2-7.3-3.6-11.2-4.7c-9.4-2.5-18.9-2.7-28.4,0c-1.9,0.6-3.6-0.3-4.1-2c-0.6-1.7,0.5-3.4,2.4-4
			C375.2,541.6,380.4,540.9,385.7,540.9z"/>
		<path fill="#010101" d="M386.1,559c-4.5,0-8.9,0.6-13.2,1.5c-1.2,0.3-2.4,0.3-3.2-0.8c-1.2-1.6-0.3-3.6,1.8-4
			c2.8-0.6,5.6-1,8.5-1.4c7-0.8,13.9-0.5,20.6,1.8c3.1,1,6.2,2.7,9.2,4.1c1,0.5,1.5,1.5,1.3,2.7c-0.2,1.1-1,1.9-2.1,1.9
			c-0.6,0-1.3-0.1-1.8-0.4C400.7,560.5,393.6,559,386.1,559z"/>
	</g>
</g>
<path fill="#FFFFFF" d="M432.4,406.4c0,0.7-0.2,1.3-0.7,1.8c-5.7,5.9-11.3,11.8-17,17.7c-0.1,0.1-0.2,0.2-0.4,0.3
	c-1.8-1.8-3.6-3.6-5.3-5.4c-4.2-4.2-8.4-8.4-12.6-12.6c-0.5-0.5-0.7-1-0.7-1.7"/>
</svg>
